<ttFont>
<head>
    <!-- Most of this table will be recalculated by the compiler -->
    <tableVersion value="1.0"/>
    <fontRevision value="1.106"/>
    <checkSumAdjustment value="0x731348ca"/>
    <magicNumber value="0x5f0f3cf5"/>
    <flags value="00000000 00000001"/>
    <unitsPerEm value="1000"/>
    <created value="Mon Sep 16 15:14:22 2019"/>
    <modified value="Mon Sep 16 15:22:46 2019"/>
    <xMin value="-265"/>
    <yMin value="-316"/>
    <xMax value="1971"/>
    <yMax value="1293"/>
    <macStyle value="00000000 00000010"/>
    <lowestRecPPEM value="6"/>
    <fontDirectionHint value="2"/>
    <indexToLocFormat value="0"/>
    <glyphDataFormat value="0"/>
  </head>
    <TTGlyph name=".notdef" xMin="116" yMin="-200" xMax="616" yMax="800">
      <contour>
        <pt x="116" y="-200" on="1"/>
        <pt x="116" y="800" on="1"/>
        <pt x="616" y="800" on="1"/>
        <pt x="616" y="-200" on="1"/>
      </contour>
      <contour>
        <pt x="187" y="750" on="1"/>
        <pt x="366" y="360" on="1"/>
        <pt x="545" y="750" on="1"/>
      </contour>
      <contour>
        <pt x="166" y="-76" on="1"/>
        <pt x="338" y="300" on="1"/>
        <pt x="166" y="676" on="1"/>
      </contour>
      <contour>
        <pt x="566" y="676" on="1"/>
        <pt x="394" y="300" on="1"/>
        <pt x="566" y="-76" on="1"/>
      </contour>
      <contour>
        <pt x="366" y="240" on="1"/>
        <pt x="187" y="-150" on="1"/>
        <pt x="545" y="-150" on="1"/>
      </contour>
    </TTGlyph>
    <TTGlyph name="A" xMin="-14" yMin="0" xMax="708" yMax="700">
      <contour>
        <pt x="-14" y="0" on="1"/>
        <pt x="394" y="700" on="1"/>
        <pt x="602" y="700" on="1"/>
        <pt x="708" y="0" on="1"/>
        <pt x="582" y="0" on="1"/>
        <pt x="557" y="178" on="1"/>
        <pt x="228" y="178" on="1"/>
        <pt x="126" y="0" on="1"/>
      </contour>
      <contour>
        <pt x="459" y="582" on="1"/>
        <pt x="292" y="290" on="1"/>
        <pt x="541" y="290" on="1"/>
        <pt x="499" y="582" on="1"/>
      </contour>
    </TTGlyph>
    <TTGlyph name="A.sc" xMin="-6" yMin="0" xMax="639" yMax="590">
      <component glyphName="a.sc" x="0" y="0" flags="0x204"/>
    </TTGlyph>
    <TTGlyph name="AE" xMin="-37" yMin="0" xMax="1194" yMax="700">
      <contour>
        <pt x="772" y="588" on="1"/>
        <pt x="736" y="419" on="1"/>
        <pt x="1065" y="419" on="1"/>
        <pt x="1040" y="308" on="1"/>
        <pt x="713" y="308" on="1"/>
        <pt x="671" y="112" on="1"/>
        <pt x="1102" y="112" on="1"/>
        <pt x="1069" y="0" on="1"/>
        <pt x="522" y="0" on="1"/>
        <pt x="560" y="178" on="1"/>
        <pt x="251" y="178" on="1"/>
        <pt x="113" y="0" on="1"/>
        <pt x="-37" y="0" on="1"/>
        <pt x="506" y="700" on="1"/>
        <pt x="1194" y="700" on="1"/>
        <pt x="1183" y="588" on="1"/>
      </contour>
      <contour>
        <pt x="563" y="582" on="1"/>
        <pt x="337" y="290" on="1"/>
        <pt x="584" y="290" on="1"/>
        <pt x="646" y="582" on="1"/>
      </contour>
    </TTGlyph>
    <TTGlyph name="AE.sc" xMin="-31" yMin="0" xMax="1055" yMax="589">
      <component glyphName="ae.sc" x="0" y="0" flags="0x204"/>
    </TTGlyph>
    <TTGlyph name="AEacute" xMin="-37" yMin="0" xMax="1194" yMax="952">
      <component glyphName="AE" x="0" y="0" flags="0x204"/>
      <component glyphName="acute" x="507" y="164" flags="0x4"/>
    </TTGlyph>
    <TTGlyph name="AEacute.sc" xMin="-31" yMin="0" xMax="1055" yMax="841">
      <component glyphName="aeacute.sc" x="0" y="0" flags="0x204"/>
    </TTGlyph>
    <TTGlyph name="Aacute" xMin="-14" yMin="0" xMax="770" yMax="952">
      <component glyphName="A" x="0" y="0" flags="0x204"/>
      <component glyphName="acute" x="244" y="164" flags="0x4"/>
    </TTGlyph>
    <TTGlyph name="Aacute.sc" xMin="-6" yMin="0" xMax="710" yMax="842">
      <component glyphName="aacute.sc" x="0" y="0" flags="0x204"/>
    </TTGlyph>
    <TTGlyph name="Abreve" xMin="-14" yMin="0" xMax="722" yMax="968">
      <component glyphName="A" x="0" y="0" flags="0x204"/>
      <component glyphName="breve" x="189" y="164" flags="0x4"/>
    </TTGlyph>
    <TTGlyph name="Abreve.sc" xMin="-6" yMin="0" xMax="664" yMax="858">
      <component glyphName="abreve.sc" x="0" y="0" flags="0x204"/>
    </TTGlyph>
    <TTGlyph name="Acircumflex" xMin="-14" yMin="0" xMax="730" yMax="965">
      <component glyphName="A" x="0" y="0" flags="0x204"/>
      <component glyphName="circumflex" x="188" y="164" flags="0x4"/>
    </TTGlyph>
    <TTGlyph name="Acircumflex.sc" xMin="-6" yMin="0" xMax="673" yMax="855">
      <component glyphName="acircumflex.sc" x="0" y="0" flags="0x204"/>
    </TTGlyph>
    <TTGlyph name="Adieresis" xMin="-14" yMin="0" xMax="731" yMax="920">
      <component glyphName="A" x="0" y="0" flags="0x204"/>
      <component glyphName="dieresis" x="188" y="164" flags="0x4"/>
    </TTGlyph>
    <TTGlyph name="Adieresis.sc" xMin="-6" yMin="0" xMax="674" yMax="810">
      <component glyphName="adieresis.sc" x="0" y="0" flags="0x204"/>
    </TTGlyph>
    <TTGlyph name="Agrave" xMin="-14" yMin="0" xMax="708" yMax="952">
      <component glyphName="A" x="0" y="0" flags="0x204"/>
      <component glyphName="grave" x="130" y="164" flags="0x4"/>
    </TTGlyph>
    <TTGlyph name="Agrave.sc" xMin="-6" yMin="0" xMax="639" yMax="842">
      <component glyphName="agrave.sc" x="0" y="0" flags="0x204"/>
    </TTGlyph>
    <TTGlyph name="Amacron" xMin="-14" yMin="0" xMax="723" yMax="897">
      <component glyphName="A" x="0" y="0" flags="0x204"/>
      <component glyphName="macron" x="188" y="164" flags="0x4"/>
    </TTGlyph>
    <TTGlyph name="Amacron.sc" xMin="-6" yMin="0" xMax="666" yMax="787">
      <component glyphName="amacron.sc" x="0" y="0" flags="0x204"/>
    </TTGlyph>
    <TTGlyph name="Aogonek" xMin="-14" yMin="-289" xMax="708" yMax="700">
      <contour>
        <pt x="-14" y="0" on="1"/>
        <pt x="394" y="700" on="1"/>
        <pt x="602" y="700" on="1"/>
        <pt x="708" y="0" on="1"/>
        <pt x="641" y="-54" on="1"/>
        <pt x="591" y="-94" on="0"/>
        <pt x="550" y="-142" on="0"/>
        <pt x="550" y="-163" on="1"/>
        <pt x="550" y="-179" on="0"/>
        <pt x="575" y="-198" on="0"/>
        <pt x="603" y="-198" on="1"/>
        <pt x="622" y="-198" on="0"/>
        <pt x="667" y="-187" on="0"/>
        <pt x="692" y="-176" on="1"/>
        <pt x="673" y="-265" on="1"/>
        <pt x="649" y="-278" on="0"/>
        <pt x="598" y="-289" on="0"/>
        <pt x="570" y="-289" on="1"/>
        <pt x="507" y="-289" on="0"/>
        <pt x="437" y="-230" on="0"/>
        <pt x="437" y="-187" on="1"/>
        <pt x="437" y="-139" on="0"/>
        <pt x="512" y="-53" on="0"/>
        <pt x="574" y="-6" on="1"/>
        <pt x="582" y="0" on="1"/>
        <pt x="557" y="178" on="1"/>
        <pt x="228" y="178" on="1"/>
        <pt x="126" y="0" on="1"/>
      </contour>
      <contour>
        <pt x="459" y="582" on="1"/>
        <pt x="292" y="290" on="1"/>
        <pt x="541" y="290" on="1"/>
        <pt x="499" y="582" on="1"/>
      </contour>
    </TTGlyph>
    <TTGlyph name="Aogonek.sc" xMin="-6" yMin="-289" xMax="639" yMax="590">
      <component glyphName="aogonek.sc" x="0" y="0" flags="0x204"/>
    </TTGlyph>
    <TTGlyph name="Aring" xMin="-14" yMin="0" xMax="708" yMax="1069">
      <component glyphName="A" x="0" y="0" flags="0x204"/>
      <component glyphName="ring" x="133" y="164" flags="0x4"/>
    </TTGlyph>
    <TTGlyph name="Aring.sc" xMin="-6" yMin="0" xMax="649" yMax="959">
      <component glyphName="aring.sc" x="0" y="0" flags="0x204"/>
    </TTGlyph>
    <TTGlyph name="Aringacute" xMin="-14" yMin="0" xMax="840" yMax="1293">
      <component glyphName="A" x="0" y="0" flags="0x204"/>
      <component glyphName="ring" x="133" y="164" flags="0x4"/>
      <component glyphName="acute" x="314" y="505" flags="0x4"/>
    </TTGlyph>
    <TTGlyph name="Aringacute.sc" xMin="-6" yMin="0" xMax="783" yMax="1183">
      <component glyphName="aringacute.sc" x="0" y="0" flags="0x204"/>
    </TTGlyph>
    <TTGlyph name="Atilde" xMin="-14" yMin="0" xMax="727" yMax="937">
      <component glyphName="A" x="0" y="0" flags="0x204"/>
      <component glyphName="tilde" x="188" y="164" flags="0x4"/>
    </TTGlyph>
    <TTGlyph name="Atilde.sc" xMin="-6" yMin="0" xMax="670" yMax="827">
      <component glyphName="atilde.sc" x="0" y="0" flags="0x204"/>
    </TTGlyph>
    <TTGlyph name="B" xMin="50" yMin="0" xMax="740" yMax="700">
      <contour>
        <pt x="50" y="0" on="1"/>
        <pt x="199" y="700" on="1"/>
        <pt x="524" y="700" on="1"/>
        <pt x="633" y="700" on="0"/>
        <pt x="740" y="609" on="0"/>
        <pt x="740" y="537" on="1"/>
        <pt x="740" y="475" on="0"/>
        <pt x="664" y="380" on="0"/>
        <pt x="588" y="358" on="1"/>
        <pt x="639" y="342" on="0"/>
        <pt x="698" y="268" on="0"/>
        <pt x="698" y="214" on="1"/>
        <pt x="698" y="166" on="0"/>
        <pt x="656" y="87" on="0"/>
        <pt x="579" y="31" on="0"/>
        <pt x="472" y="0" on="0"/>
        <pt x="408" y="0" on="1"/>
      </contour>
      <contour>
        <pt x="262" y="408" on="1"/>
        <pt x="482" y="408" on="1"/>
        <pt x="547" y="408" on="0"/>
        <pt x="617" y="470" on="0"/>
        <pt x="617" y="514" on="1"/>
        <pt x="617" y="551" on="0"/>
        <pt x="565" y="590" on="0"/>
        <pt x="514" y="590" on="1"/>
        <pt x="300" y="590" on="1"/>
      </contour>
      <contour>
        <pt x="240" y="307" on="1"/>
        <pt x="198" y="110" on="1"/>
        <pt x="423" y="110" on="1"/>
        <pt x="498" y="110" on="0"/>
        <pt x="574" y="177" on="0"/>
        <pt x="574" y="224" on="1"/>
        <pt x="574" y="261" on="0"/>
        <pt x="521" y="307" on="0"/>
        <pt x="459" y="307" on="1"/>
      </contour>
    </TTGlyph>
    <TTGlyph name="B.sc" xMin="51" yMin="0" xMax="662" yMax="589">
      <component glyphName="b.sc" x="0" y="0" flags="0x204"/>
    </TTGlyph>
    <TTGlyph name="C" xMin="78" yMin="-14" xMax="739" yMax="714">
      <contour>
        <pt x="483" y="714" on="1"/>
        <pt x="564" y="714" on="0"/>
        <pt x="695" y="666" on="0"/>
        <pt x="739" y="628" on="1"/>
        <pt x="714" y="508" on="1"/>
        <pt x="713" y="508" on="1"/>
        <pt x="670" y="548" on="0"/>
        <pt x="550" y="600" on="0"/>
        <pt x="481" y="600" on="1"/>
        <pt x="414" y="600" on="0"/>
        <pt x="311" y="552" on="0"/>
        <pt x="242" y="471" on="0"/>
        <pt x="206" y="365" on="0"/>
        <pt x="206" y="308" on="1"/>
        <pt x="206" y="206" on="0"/>
        <pt x="327" y="99" on="0"/>
        <pt x="428" y="99" on="1"/>
        <pt x="492" y="99" on="0"/>
        <pt x="609" y="135" on="0"/>
        <pt x="652" y="160" on="1"/>
        <pt x="653" y="160" on="1"/>
        <pt x="627" y="36" on="1"/>
        <pt x="588" y="12" on="0"/>
        <pt x="470" y="-14" on="0"/>
        <pt x="410" y="-14" on="1"/>
        <pt x="256" y="-14" on="0"/>
        <pt x="78" y="156" on="0"/>
        <pt x="78" y="302" on="1"/>
        <pt x="78" y="384" on="0"/>
        <pt x="134" y="534" on="0"/>
        <pt x="238" y="647" on="0"/>
        <pt x="389" y="714" on="0"/>
      </contour>
    </TTGlyph>
    <TTGlyph name="C.sc" xMin="70" yMin="-15" xMax="646" yMax="603">
      <component glyphName="c.sc" x="0" y="0" flags="0x204"/>
    </TTGlyph>
    <TTGlyph name="Cacute" xMin="78" yMin="-14" xMax="769" yMax="966">
      <component glyphName="C" x="0" y="0" flags="0x204"/>
      <component glyphName="acute" x="243" y="178" flags="0x4"/>
    </TTGlyph>
    <TTGlyph name="Cacute.sc" xMin="70" yMin="-15" xMax="698" yMax="855">
      <component glyphName="cacute.sc" x="0" y="0" flags="0x204"/>
    </TTGlyph>
    <TTGlyph name="Ccaron" xMin="78" yMin="-14" xMax="769" yMax="979">
      <component glyphName="C" x="0" y="0" flags="0x204"/>
      <component glyphName="caron" x="190" y="178" flags="0x4"/>
    </TTGlyph>
    <TTGlyph name="Ccaron.sc" xMin="70" yMin="-15" xMax="698" yMax="868">
      <component glyphName="ccaron.sc" x="0" y="0" flags="0x204"/>
    </TTGlyph>
    <TTGlyph name="Ccedilla" xMin="78" yMin="-184" xMax="739" yMax="714">
      <contour>
        <pt x="483" y="714" on="1"/>
        <pt x="564" y="714" on="0"/>
        <pt x="695" y="666" on="0"/>
        <pt x="739" y="628" on="1"/>
        <pt x="714" y="508" on="1"/>
        <pt x="713" y="508" on="1"/>
        <pt x="670" y="548" on="0"/>
        <pt x="550" y="600" on="0"/>
        <pt x="481" y="600" on="1"/>
        <pt x="414" y="600" on="0"/>
        <pt x="311" y="552" on="0"/>
        <pt x="242" y="471" on="0"/>
        <pt x="206" y="365" on="0"/>
        <pt x="206" y="308" on="1"/>
        <pt x="206" y="206" on="0"/>
        <pt x="327" y="99" on="0"/>
        <pt x="428" y="99" on="1"/>
        <pt x="492" y="99" on="0"/>
        <pt x="609" y="135" on="0"/>
        <pt x="652" y="160" on="1"/>
        <pt x="653" y="160" on="1"/>
        <pt x="627" y="36" on="1"/>
        <pt x="590" y="13" on="0"/>
        <pt x="477" y="-13" on="0"/>
        <pt x="420" y="-14" on="1"/>
        <pt x="295" y="-184" on="1"/>
        <pt x="144" y="-184" on="1"/>
        <pt x="146" y="-178" on="1"/>
        <pt x="322" y="-6" on="1"/>
        <pt x="208" y="16" on="0"/>
        <pt x="78" y="178" on="0"/>
        <pt x="78" y="302" on="1"/>
        <pt x="78" y="384" on="0"/>
        <pt x="134" y="534" on="0"/>
        <pt x="238" y="647" on="0"/>
        <pt x="389" y="714" on="0"/>
      </contour>
    </TTGlyph>
    <TTGlyph name="Ccedilla.sc" xMin="70" yMin="-185" xMax="646" yMax="603">
      <component glyphName="ccedilla.sc" x="0" y="0" flags="0x204"/>
    </TTGlyph>
    <TTGlyph name="Cdotaccent" xMin="78" yMin="-14" xMax="739" yMax="939">
      <component glyphName="C" x="0" y="0" flags="0x204"/>
      <component glyphName="dotaccent" x="189" y="178" flags="0x4"/>
    </TTGlyph>
    <TTGlyph name="Cdotaccent.sc" xMin="70" yMin="-15" xMax="646" yMax="828">
      <component glyphName="cdotaccent.sc" x="0" y="0" flags="0x204"/>
    </TTGlyph>
    <TTGlyph name="D" xMin="50" yMin="0" xMax="775" yMax="700">
      <contour>
        <pt x="50" y="0" on="1"/>
        <pt x="199" y="700" on="1"/>
        <pt x="444" y="700" on="1"/>
        <pt x="531" y="700" on="0"/>
        <pt x="657" y="658" on="0"/>
        <pt x="737" y="582" on="0"/>
        <pt x="775" y="477" on="0"/>
        <pt x="775" y="414" on="1"/>
        <pt x="775" y="334" on="0"/>
        <pt x="724" y="184" on="0"/>
        <pt x="616" y="69" on="0"/>
        <pt x="444" y="0" on="0"/>
        <pt x="324" y="0" on="1"/>
      </contour>
      <contour>
        <pt x="647" y="408" on="1"/>
        <pt x="647" y="484" on="0"/>
        <pt x="551" y="587" on="0"/>
        <pt x="426" y="587" on="1"/>
        <pt x="300" y="587" on="1"/>
        <pt x="200" y="113" on="1"/>
        <pt x="339" y="113" on="1"/>
        <pt x="423" y="113" on="0"/>
        <pt x="540" y="162" on="0"/>
        <pt x="614" y="243" on="0"/>
        <pt x="647" y="351" on="0"/>
      </contour>
    </TTGlyph>
    <TTGlyph name="D.sc" xMin="51" yMin="0" xMax="688" yMax="589">
      <component glyphName="d.sc" x="0" y="0" flags="0x204"/>
    </TTGlyph>
    <TTGlyph name="Dcaron" xMin="50" yMin="0" xMax="775" yMax="965">
      <component glyphName="D" x="0" y="0" flags="0x204"/>
      <component glyphName="caron" x="157" y="164" flags="0x4"/>
    </TTGlyph>
    <TTGlyph name="Dcaron.sc" xMin="51" yMin="0" xMax="688" yMax="854">
      <component glyphName="dcaron.sc" x="0" y="0" flags="0x204"/>
    </TTGlyph>
    <TTGlyph name="Dcroat" xMin="46" yMin="0" xMax="804" yMax="700">
      <component glyphName="Eth" x="0" y="0" flags="0x204"/>
    </TTGlyph>
    <TTGlyph name="Dcroat.sc" xMin="42" yMin="0" xMax="719" yMax="589">
      <component glyphName="dcroat.sc" x="0" y="0" flags="0x204"/>
    </TTGlyph>
    <TTGlyph name="E" xMin="50" yMin="0" xMax="722" yMax="700">
      <contour>
        <pt x="300" y="588" on="1"/>
        <pt x="264" y="419" on="1"/>
        <pt x="593" y="419" on="1"/>
        <pt x="569" y="308" on="1"/>
        <pt x="241" y="308" on="1"/>
        <pt x="200" y="112" on="1"/>
        <pt x="630" y="112" on="1"/>
        <pt x="597" y="0" on="1"/>
        <pt x="50" y="0" on="1"/>
        <pt x="199" y="700" on="1"/>
        <pt x="722" y="700" on="1"/>
        <pt x="712" y="588" on="1"/>
      </contour>
    </TTGlyph>
    <TTGlyph name="E.sc" xMin="51" yMin="0" xMax="638" yMax="589">
      <component glyphName="e.sc" x="0" y="0" flags="0x204"/>
    </TTGlyph>
    <TTGlyph name="Eacute" xMin="50" yMin="0" xMax="740" yMax="952">
      <component glyphName="E" x="0" y="0" flags="0x204"/>
      <component glyphName="acute" x="214" y="164" flags="0x4"/>
    </TTGlyph>
    <TTGlyph name="Eacute.sc" xMin="51" yMin="0" xMax="674" yMax="841">
      <component glyphName="eacute.sc" x="0" y="0" flags="0x204"/>
    </TTGlyph>
    <TTGlyph name="Ebreve" xMin="50" yMin="0" xMax="722" yMax="968">
      <component glyphName="E" x="0" y="0" flags="0x204"/>
      <component glyphName="breve" x="161" y="164" flags="0x4"/>
    </TTGlyph>
    <TTGlyph name="Ebreve.sc" xMin="51" yMin="0" xMax="638" yMax="857">
      <component glyphName="ebreve.sc" x="0" y="0" flags="0x204"/>
    </TTGlyph>
    <TTGlyph name="Ecaron" xMin="50" yMin="0" xMax="740" yMax="965">
      <component glyphName="E" x="0" y="0" flags="0x204"/>
      <component glyphName="caron" x="161" y="164" flags="0x4"/>
    </TTGlyph>
    <TTGlyph name="Ecaron.sc" xMin="51" yMin="0" xMax="674" yMax="854">
      <component glyphName="ecaron.sc" x="0" y="0" flags="0x204"/>
    </TTGlyph>
    <TTGlyph name="Ecircumflex" xMin="50" yMin="0" xMax="722" yMax="965">
      <component glyphName="E" x="0" y="0" flags="0x204"/>
      <component glyphName="circumflex" x="161" y="164" flags="0x4"/>
    </TTGlyph>
    <TTGlyph name="Ecircumflex.sc" xMin="51" yMin="0" xMax="638" yMax="854">
      <component glyphName="ecircumflex.sc" x="0" y="0" flags="0x204"/>
    </TTGlyph>
    <TTGlyph name="Edieresis" xMin="50" yMin="0" xMax="722" yMax="920">
      <component glyphName="E" x="0" y="0" flags="0x204"/>
      <component glyphName="dieresis" x="160" y="164" flags="0x4"/>
    </TTGlyph>
    <TTGlyph name="Edieresis.sc" xMin="51" yMin="0" xMax="638" yMax="809">
      <component glyphName="edieresis.sc" x="0" y="0" flags="0x204"/>
    </TTGlyph>
    <TTGlyph name="Edotaccent" xMin="50" yMin="0" xMax="722" yMax="925">
      <component glyphName="E" x="0" y="0" flags="0x204"/>
      <component glyphName="dotaccent" x="160" y="164" flags="0x4"/>
    </TTGlyph>
    <TTGlyph name="Edotaccent.sc" xMin="51" yMin="0" xMax="638" yMax="814">
      <component glyphName="edotaccent.sc" x="0" y="0" flags="0x204"/>
    </TTGlyph>
    <TTGlyph name="Egrave" xMin="50" yMin="0" xMax="722" yMax="952">
      <component glyphName="E" x="0" y="0" flags="0x204"/>
      <component glyphName="grave" x="106" y="164" flags="0x4"/>
    </TTGlyph>
    <TTGlyph name="Egrave.sc" xMin="51" yMin="0" xMax="638" yMax="841">
      <component glyphName="egrave.sc" x="0" y="0" flags="0x204"/>
    </TTGlyph>
    <TTGlyph name="Emacron" xMin="50" yMin="0" xMax="722" yMax="897">
      <component glyphName="E" x="0" y="0" flags="0x204"/>
      <component glyphName="macron" x="160" y="164" flags="0x4"/>
    </TTGlyph>
    <TTGlyph name="Emacron.sc" xMin="51" yMin="0" xMax="638" yMax="786">
      <component glyphName="emacron.sc" x="0" y="0" flags="0x204"/>
    </TTGlyph>
    <TTGlyph name="Eogonek" xMin="50" yMin="-289" xMax="722" yMax="700">
      <contour>
        <pt x="300" y="588" on="1"/>
        <pt x="264" y="419" on="1"/>
        <pt x="593" y="419" on="1"/>
        <pt x="569" y="308" on="1"/>
        <pt x="241" y="308" on="1"/>
        <pt x="200" y="112" on="1"/>
        <pt x="630" y="112" on="1"/>
        <pt x="597" y="0" on="1"/>
        <pt x="530" y="-54" on="1"/>
        <pt x="480" y="-94" on="0"/>
        <pt x="439" y="-142" on="0"/>
        <pt x="439" y="-163" on="1"/>
        <pt x="439" y="-179" on="0"/>
        <pt x="464" y="-198" on="0"/>
        <pt x="492" y="-198" on="1"/>
        <pt x="511" y="-198" on="0"/>
        <pt x="556" y="-187" on="0"/>
        <pt x="581" y="-176" on="1"/>
        <pt x="562" y="-265" on="1"/>
        <pt x="538" y="-278" on="0"/>
        <pt x="487" y="-289" on="0"/>
        <pt x="459" y="-289" on="1"/>
        <pt x="396" y="-289" on="0"/>
        <pt x="326" y="-230" on="0"/>
        <pt x="326" y="-187" on="1"/>
        <pt x="326" y="-139" on="0"/>
        <pt x="401" y="-53" on="0"/>
        <pt x="463" y="-6" on="1"/>
        <pt x="471" y="0" on="1"/>
        <pt x="50" y="0" on="1"/>
        <pt x="199" y="700" on="1"/>
        <pt x="722" y="700" on="1"/>
        <pt x="712" y="588" on="1"/>
      </contour>
    </TTGlyph>
    <TTGlyph name="Eogonek.sc" xMin="51" yMin="-289" xMax="638" yMax="589">
      <component glyphName="eogonek.sc" x="0" y="0" flags="0x204"/>
    </TTGlyph>
    <TTGlyph name="Eth" xMin="46" yMin="0" xMax="804" yMax="700">
      <contour>
        <pt x="79" y="0" on="1"/>
        <pt x="144" y="304" on="1"/>
        <pt x="46" y="304" on="1"/>
        <pt x="73" y="398" on="1"/>
        <pt x="164" y="398" on="1"/>
        <pt x="228" y="700" on="1"/>
        <pt x="472" y="700" on="1"/>
        <pt x="559" y="700" on="0"/>
        <pt x="685" y="658" on="0"/>
        <pt x="766" y="582" on="0"/>
        <pt x="804" y="477" on="0"/>
        <pt x="804" y="414" on="1"/>
        <pt x="804" y="334" on="0"/>
        <pt x="753" y="184" on="0"/>
        <pt x="645" y="69" on="0"/>
        <pt x="473" y="0" on="0"/>
        <pt x="353" y="0" on="1"/>
      </contour>
      <contour>
        <pt x="676" y="408" on="1"/>
        <pt x="676" y="486" on="0"/>
        <pt x="580" y="587" on="0"/>
        <pt x="455" y="587" on="1"/>
        <pt x="329" y="587" on="1"/>
        <pt x="289" y="398" on="1"/>
        <pt x="495" y="398" on="1"/>
        <pt x="475" y="304" on="1"/>
        <pt x="269" y="304" on="1"/>
        <pt x="228" y="113" on="1"/>
        <pt x="368" y="113" on="1"/>
        <pt x="452" y="113" on="0"/>
        <pt x="569" y="162" on="0"/>
        <pt x="643" y="243" on="0"/>
        <pt x="676" y="351" on="0"/>
      </contour>
    </TTGlyph>
    <TTGlyph name="Eth.sc" xMin="42" yMin="0" xMax="719" yMax="589">
      <component glyphName="eth.sc" x="0" y="0" flags="0x204"/>
    </TTGlyph>
    <TTGlyph name="Euro" xMin="30" yMin="-12" xMax="741" yMax="711">
      <contour>
        <pt x="30" y="225" on="1"/>
        <pt x="53" y="307" on="1"/>
        <pt x="151" y="307" on="1"/>
        <pt x="152" y="329" on="0"/>
        <pt x="157" y="372" on="0"/>
        <pt x="161" y="393" on="1"/>
        <pt x="77" y="393" on="1"/>
        <pt x="100" y="475" on="1"/>
        <pt x="187" y="475" on="1"/>
        <pt x="208" y="526" on="0"/>
        <pt x="274" y="613" on="0"/>
        <pt x="361" y="675" on="0"/>
        <pt x="469" y="711" on="0"/>
        <pt x="531" y="711" on="1"/>
        <pt x="606" y="711" on="0"/>
        <pt x="710" y="669" on="0"/>
        <pt x="741" y="643" on="1"/>
        <pt x="719" y="538" on="1"/>
        <pt x="718" y="538" on="1"/>
        <pt x="682" y="565" on="0"/>
        <pt x="588" y="606" on="0"/>
        <pt x="531" y="606" on="1"/>
        <pt x="455" y="606" on="0"/>
        <pt x="344" y="532" on="0"/>
        <pt x="312" y="475" on="1"/>
        <pt x="578" y="475" on="1"/>
        <pt x="561" y="393" on="1"/>
        <pt x="280" y="393" on="1"/>
        <pt x="275" y="372" on="0"/>
        <pt x="269" y="329" on="0"/>
        <pt x="268" y="307" on="1"/>
        <pt x="543" y="307" on="1"/>
        <pt x="525" y="226" on="1"/>
        <pt x="275" y="226" on="1"/>
        <pt x="291" y="159" on="0"/>
        <pt x="392" y="93" on="0"/>
        <pt x="469" y="93" on="1"/>
        <pt x="520" y="93" on="0"/>
        <pt x="617" y="120" on="0"/>
        <pt x="651" y="136" on="1"/>
        <pt x="652" y="136" on="1"/>
        <pt x="628" y="24" on="1"/>
        <pt x="597" y="8" on="0"/>
        <pt x="504" y="-12" on="0"/>
        <pt x="455" y="-12" on="1"/>
        <pt x="330" y="-12" on="0"/>
        <pt x="174" y="112" on="0"/>
        <pt x="156" y="225" on="1"/>
      </contour>
    </TTGlyph>
    <TTGlyph name="Euro.tab" xMin="34" yMin="-12" xMax="722" yMax="711">
      <contour>
        <pt x="34" y="225" on="1"/>
        <pt x="57" y="307" on="1"/>
        <pt x="153" y="307" on="1"/>
        <pt x="154" y="329" on="0"/>
        <pt x="159" y="372" on="0"/>
        <pt x="163" y="393" on="1"/>
        <pt x="81" y="393" on="1"/>
        <pt x="104" y="475" on="1"/>
        <pt x="187" y="475" on="1"/>
        <pt x="208" y="526" on="0"/>
        <pt x="272" y="613" on="0"/>
        <pt x="356" y="675" on="0"/>
        <pt x="460" y="711" on="0"/>
        <pt x="520" y="711" on="1"/>
        <pt x="591" y="711" on="0"/>
        <pt x="691" y="668" on="0"/>
        <pt x="722" y="641" on="1"/>
        <pt x="700" y="536" on="1"/>
        <pt x="699" y="536" on="1"/>
        <pt x="665" y="564" on="0"/>
        <pt x="575" y="606" on="0"/>
        <pt x="520" y="606" on="1"/>
        <pt x="447" y="606" on="0"/>
        <pt x="342" y="532" on="0"/>
        <pt x="311" y="475" on="1"/>
        <pt x="567" y="475" on="1"/>
        <pt x="550" y="393" on="1"/>
        <pt x="281" y="393" on="1"/>
        <pt x="277" y="372" on="0"/>
        <pt x="271" y="329" on="0"/>
        <pt x="270" y="307" on="1"/>
        <pt x="532" y="307" on="1"/>
        <pt x="514" y="226" on="1"/>
        <pt x="277" y="226" on="1"/>
        <pt x="293" y="159" on="0"/>
        <pt x="386" y="93" on="0"/>
        <pt x="458" y="93" on="1"/>
        <pt x="506" y="93" on="0"/>
        <pt x="599" y="119" on="0"/>
        <pt x="632" y="134" on="1"/>
        <pt x="633" y="134" on="1"/>
        <pt x="609" y="22" on="1"/>
        <pt x="578" y="8" on="0"/>
        <pt x="491" y="-12" on="0"/>
        <pt x="444" y="-12" on="1"/>
        <pt x="325" y="-12" on="0"/>
        <pt x="175" y="112" on="0"/>
        <pt x="158" y="225" on="1"/>
      </contour>
    </TTGlyph>
    <TTGlyph name="F" xMin="50" yMin="0" xMax="712" yMax="700">
      <contour>
        <pt x="300" y="588" on="1"/>
        <pt x="259" y="393" on="1"/>
        <pt x="591" y="393" on="1"/>
        <pt x="567" y="282" on="1"/>
        <pt x="235" y="282" on="1"/>
        <pt x="175" y="0" on="1"/>
        <pt x="50" y="0" on="1"/>
        <pt x="199" y="700" on="1"/>
        <pt x="712" y="700" on="1"/>
        <pt x="701" y="588" on="1"/>
      </contour>
    </TTGlyph>
    <TTGlyph name="F.sc" xMin="51" yMin="0" xMax="622" yMax="589">
      <component glyphName="f.sc" x="0" y="0" flags="0x204"/>
    </TTGlyph>
    <TTGlyph name="G" xMin="78" yMin="-17" xMax="791" yMax="714">
      <contour>
        <pt x="487" y="600" on="1"/>
        <pt x="420" y="600" on="0"/>
        <pt x="315" y="552" on="0"/>
        <pt x="243" y="472" on="0"/>
        <pt x="206" y="365" on="0"/>
        <pt x="206" y="307" on="1"/>
        <pt x="206" y="210" on="0"/>
        <pt x="320" y="95" on="0"/>
        <pt x="421" y="95" on="1"/>
        <pt x="520" y="95" on="0"/>
        <pt x="636" y="202" on="0"/>
        <pt x="652" y="289" on="1"/>
        <pt x="402" y="289" on="1"/>
        <pt x="425" y="395" on="1"/>
        <pt x="791" y="395" on="1"/>
        <pt x="784" y="289" on="0"/>
        <pt x="722" y="130" on="0"/>
        <pt x="671" y="79" on="1"/>
        <pt x="622" y="31" on="0"/>
        <pt x="490" y="-17" on="0"/>
        <pt x="411" y="-17" on="1"/>
        <pt x="258" y="-17" on="0"/>
        <pt x="78" y="153" on="0"/>
        <pt x="78" y="299" on="1"/>
        <pt x="78" y="380" on="0"/>
        <pt x="133" y="531" on="0"/>
        <pt x="239" y="645" on="0"/>
        <pt x="393" y="714" on="0"/>
        <pt x="492" y="714" on="1"/>
        <pt x="576" y="714" on="0"/>
        <pt x="716" y="656" on="0"/>
        <pt x="758" y="616" on="1"/>
        <pt x="733" y="498" on="1"/>
        <pt x="732" y="498" on="1"/>
        <pt x="692" y="538" on="0"/>
        <pt x="566" y="600" on="0"/>
      </contour>
    </TTGlyph>
    <TTGlyph name="G.sc" xMin="70" yMin="-16" xMax="694" yMax="602">
      <component glyphName="g.sc" x="0" y="0" flags="0x204"/>
    </TTGlyph>
    <TTGlyph name="Gbreve" xMin="78" yMin="-17" xMax="791" yMax="982">
      <component glyphName="G" x="0" y="0" flags="0x204"/>
      <component glyphName="breve" x="188" y="178" flags="0x4"/>
    </TTGlyph>
    <TTGlyph name="Gbreve.sc" xMin="70" yMin="-16" xMax="694" yMax="870">
      <component glyphName="gbreve.sc" x="0" y="0" flags="0x204"/>
    </TTGlyph>
    <TTGlyph name="Gdotaccent" xMin="78" yMin="-17" xMax="791" yMax="939">
      <component glyphName="G" x="0" y="0" flags="0x204"/>
      <component glyphName="dotaccent" x="188" y="178" flags="0x4"/>
    </TTGlyph>
    <TTGlyph name="Gdotaccent.sc" xMin="70" yMin="-16" xMax="694" yMax="827">
      <component glyphName="gdotaccent.sc" x="0" y="0" flags="0x204"/>
    </TTGlyph>
    <TTGlyph name="H" xMin="50" yMin="0" xMax="821" yMax="700">
      <contour>
        <pt x="546" y="0" on="1"/>
        <pt x="611" y="305" on="1"/>
        <pt x="240" y="305" on="1"/>
        <pt x="175" y="0" on="1"/>
        <pt x="50" y="0" on="1"/>
        <pt x="199" y="700" on="1"/>
        <pt x="324" y="700" on="1"/>
        <pt x="264" y="419" on="1"/>
        <pt x="635" y="419" on="1"/>
        <pt x="695" y="700" on="1"/>
        <pt x="821" y="700" on="1"/>
        <pt x="672" y="0" on="1"/>
      </contour>
    </TTGlyph>
    <TTGlyph name="H.sc" xMin="51" yMin="0" xMax="736" yMax="589">
      <component glyphName="h.sc" x="0" y="0" flags="0x204"/>
    </TTGlyph>
    <TTGlyph name="Hbar" xMin="79" yMin="0" xMax="912" yMax="700">
      <contour>
        <pt x="87" y="501" on="1"/>
        <pt x="114" y="595" on="1"/>
        <pt x="206" y="595" on="1"/>
        <pt x="228" y="700" on="1"/>
        <pt x="353" y="700" on="1"/>
        <pt x="330" y="592" on="1"/>
        <pt x="701" y="592" on="1"/>
        <pt x="724" y="700" on="1"/>
        <pt x="849" y="700" on="1"/>
        <pt x="827" y="595" on="1"/>
        <pt x="912" y="595" on="1"/>
        <pt x="907" y="501" on="1"/>
        <pt x="807" y="501" on="1"/>
        <pt x="700" y="0" on="1"/>
        <pt x="575" y="0" on="1"/>
        <pt x="633" y="272" on="1"/>
        <pt x="262" y="272" on="1"/>
        <pt x="204" y="0" on="1"/>
        <pt x="79" y="0" on="1"/>
        <pt x="186" y="501" on="1"/>
      </contour>
      <contour>
        <pt x="286" y="385" on="1"/>
        <pt x="657" y="385" on="1"/>
        <pt x="683" y="506" on="1"/>
        <pt x="312" y="506" on="1"/>
      </contour>
    </TTGlyph>
    <TTGlyph name="Hbar.sc" xMin="70" yMin="0" xMax="838" yMax="589">
      <component glyphName="hbar.sc" x="0" y="0" flags="0x204"/>
    </TTGlyph>
    <TTGlyph name="I" xMin="52" yMin="0" xMax="327" yMax="700">
      <contour>
        <pt x="178" y="0" on="1"/>
        <pt x="52" y="0" on="1"/>
        <pt x="201" y="700" on="1"/>
        <pt x="327" y="700" on="1"/>
      </contour>
    </TTGlyph>
    <TTGlyph name="I.sc" xMin="52" yMin="0" xMax="297" yMax="589">
      <component glyphName="i.sc" x="0" y="0" flags="0x204"/>
    </TTGlyph>
    <TTGlyph name="Iacute" xMin="52" yMin="0" xMax="548" yMax="952">
      <component glyphName="I" x="0" y="0" flags="0x204"/>
      <component glyphName="acute" x="22" y="164" flags="0x4"/>
    </TTGlyph>
    <TTGlyph name="Iacute.sc" xMin="52" yMin="0" xMax="518" yMax="841">
      <component glyphName="iacute.sc" x="0" y="0" flags="0x204"/>
    </TTGlyph>
    <TTGlyph name="Ibreve" xMin="52" yMin="0" xMax="488" yMax="968">
      <component glyphName="I" x="0" y="0" flags="0x204"/>
      <component glyphName="breve" x="-45" y="164" flags="0x4"/>
    </TTGlyph>
    <TTGlyph name="Ibreve.sc" xMin="52" yMin="0" xMax="461" yMax="857">
      <component glyphName="ibreve.sc" x="0" y="0" flags="0x204"/>
    </TTGlyph>
    <TTGlyph name="Icircumflex" xMin="52" yMin="0" xMax="497" yMax="965">
      <component glyphName="I" x="0" y="0" flags="0x204"/>
      <component glyphName="circumflex" x="-45" y="164" flags="0x4"/>
    </TTGlyph>
    <TTGlyph name="Icircumflex.sc" xMin="43" yMin="0" xMax="470" yMax="854">
      <component glyphName="icircumflex.sc" x="0" y="0" flags="0x204"/>
    </TTGlyph>
    <TTGlyph name="Idieresis" xMin="52" yMin="0" xMax="498" yMax="920">
      <component glyphName="I" x="0" y="0" flags="0x204"/>
      <component glyphName="dieresis" x="-45" y="164" flags="0x4"/>
    </TTGlyph>
    <TTGlyph name="Idieresis.sc" xMin="52" yMin="0" xMax="471" yMax="809">
      <component glyphName="idieresis.sc" x="0" y="0" flags="0x204"/>
    </TTGlyph>
    <TTGlyph name="Idotaccent" xMin="52" yMin="0" xMax="374" yMax="925">
      <component glyphName="I" x="0" y="0" flags="0x204"/>
      <component glyphName="dotaccent" x="-46" y="164" flags="0x4"/>
    </TTGlyph>
    <TTGlyph name="Idotaccent.sc" xMin="52" yMin="0" xMax="348" yMax="814">
      <component glyphName="idotaccent.sc" x="0" y="0" flags="0x204"/>
    </TTGlyph>
    <TTGlyph name="Igrave" xMin="52" yMin="0" xMax="334" yMax="952">
      <component glyphName="I" x="0" y="0" flags="0x204"/>
      <component glyphName="grave" x="-114" y="164" flags="0x4"/>
    </TTGlyph>
    <TTGlyph name="Igrave.sc" xMin="52" yMin="0" xMax="304" yMax="841">
      <component glyphName="igrave.sc" x="0" y="0" flags="0x204"/>
    </TTGlyph>
    <TTGlyph name="Imacron" xMin="52" yMin="0" xMax="490" yMax="897">
      <component glyphName="I" x="0" y="0" flags="0x204"/>
      <component glyphName="macron" x="-45" y="164" flags="0x4"/>
    </TTGlyph>
    <TTGlyph name="Imacron.sc" xMin="52" yMin="0" xMax="463" yMax="786">
      <component glyphName="imacron.sc" x="0" y="0" flags="0x204"/>
    </TTGlyph>
    <TTGlyph name="Iogonek" xMin="-94" yMin="-289" xMax="327" yMax="700">
      <contour>
        <pt x="178" y="0" on="1"/>
        <pt x="110" y="-54" on="1"/>
        <pt x="58" y="-96" on="0"/>
        <pt x="20" y="-143" on="0"/>
        <pt x="20" y="-162" on="1"/>
        <pt x="20" y="-178" on="0"/>
        <pt x="45" y="-198" on="0"/>
        <pt x="74" y="-198" on="1"/>
        <pt x="94" y="-198" on="0"/>
        <pt x="137" y="-187" on="0"/>
        <pt x="162" y="-176" on="1"/>
        <pt x="143" y="-265" on="1"/>
        <pt x="119" y="-277" on="0"/>
        <pt x="69" y="-289" on="0"/>
        <pt x="41" y="-289" on="1"/>
        <pt x="-23" y="-289" on="0"/>
        <pt x="-94" y="-230" on="0"/>
        <pt x="-94" y="-187" on="1"/>
        <pt x="-94" y="-141" on="0"/>
        <pt x="-20" y="-55" on="0"/>
        <pt x="44" y="-6" on="1"/>
        <pt x="52" y="0" on="1"/>
        <pt x="201" y="700" on="1"/>
        <pt x="327" y="700" on="1"/>
      </contour>
    </TTGlyph>
    <TTGlyph name="Iogonek.sc" xMin="-100" yMin="-289" xMax="297" yMax="589">
      <component glyphName="iogonek.sc" x="0" y="0" flags="0x204"/>
    </TTGlyph>
    <TTGlyph name="J" xMin="35" yMin="-15" xMax="665" yMax="700">
      <contour>
        <pt x="288" y="-15" on="1"/>
        <pt x="219" y="-15" on="0"/>
        <pt x="83" y="26" on="0"/>
        <pt x="35" y="67" on="1"/>
        <pt x="61" y="189" on="1"/>
        <pt x="62" y="189" on="1"/>
        <pt x="111" y="144" on="0"/>
        <pt x="229" y="100" on="0"/>
        <pt x="283" y="100" on="1"/>
        <pt x="350" y="100" on="0"/>
        <pt x="429" y="175" on="0"/>
        <pt x="447" y="259" on="1"/>
        <pt x="516" y="588" on="1"/>
        <pt x="250" y="588" on="1"/>
        <pt x="282" y="700" on="1"/>
        <pt x="665" y="700" on="1"/>
        <pt x="569" y="241" on="1"/>
        <pt x="541" y="109" on="0"/>
        <pt x="402" y="-15" on="0"/>
      </contour>
    </TTGlyph>
    <TTGlyph name="J.sc" xMin="32" yMin="-14" xMax="582" yMax="589">
      <component glyphName="j.sc" x="0" y="0" flags="0x204"/>
    </TTGlyph>
    <TTGlyph name="K" xMin="50" yMin="0" xMax="815" yMax="700">
      <contour>
        <pt x="50" y="0" on="1"/>
        <pt x="199" y="700" on="1"/>
        <pt x="324" y="700" on="1"/>
        <pt x="263" y="415" on="1"/>
        <pt x="372" y="415" on="1"/>
        <pt x="656" y="700" on="1"/>
        <pt x="815" y="700" on="1"/>
        <pt x="815" y="699" on="1"/>
        <pt x="465" y="352" on="1"/>
        <pt x="684" y="1" on="1"/>
        <pt x="684" y="0" on="1"/>
        <pt x="545" y="0" on="1"/>
        <pt x="356" y="301" on="1"/>
        <pt x="239" y="301" on="1"/>
        <pt x="175" y="0" on="1"/>
      </contour>
    </TTGlyph>
    <TTGlyph name="K.sc" xMin="51" yMin="0" xMax="732" yMax="589">
      <component glyphName="k.sc" x="0" y="0" flags="0x204"/>
    </TTGlyph>
    <TTGlyph name="L" xMin="50" yMin="0" xMax="589" yMax="700">
      <contour>
        <pt x="50" y="0" on="1"/>
        <pt x="199" y="700" on="1"/>
        <pt x="324" y="700" on="1"/>
        <pt x="200" y="116" on="1"/>
        <pt x="589" y="116" on="1"/>
        <pt x="557" y="0" on="1"/>
      </contour>
    </TTGlyph>
    <TTGlyph name="L.sc" xMin="51" yMin="0" xMax="523" yMax="589">
      <component glyphName="l.sc" x="0" y="0" flags="0x204"/>
    </TTGlyph>
    <TTGlyph name="Lacute" xMin="50" yMin="0" xMax="589" yMax="952">
      <component glyphName="L" x="0" y="0" flags="0x204"/>
      <component glyphName="acute" x="18" y="164" flags="0x4"/>
    </TTGlyph>
    <TTGlyph name="Lacute.sc" xMin="51" yMin="0" xMax="523" yMax="841">
      <component glyphName="lacute.sc" x="0" y="0" flags="0x204"/>
    </TTGlyph>
    <TTGlyph name="Lcaron" xMin="50" yMin="0" xMax="589" yMax="747">
      <component glyphName="L" x="0" y="0" flags="0x204"/>
      <component glyphName="caron.alt" x="124" y="-19" flags="0x4"/>
    </TTGlyph>
    <TTGlyph name="Lcaron.sc" xMin="51" yMin="0" xMax="523" yMax="589">
      <component glyphName="lcaron.sc" x="0" y="0" flags="0x204"/>
    </TTGlyph>
    <TTGlyph name="Ldot" xMin="50" yMin="0" xMax="607" yMax="700">
      <contour>
        <pt x="50" y="0" on="1"/>
        <pt x="199" y="700" on="1"/>
        <pt x="324" y="700" on="1"/>
        <pt x="200" y="116" on="1"/>
        <pt x="589" y="116" on="1"/>
        <pt x="557" y="0" on="1"/>
      </contour>
      <contour>
        <pt x="448" y="418" on="1"/>
        <pt x="448" y="448" on="0"/>
        <pt x="493" y="494" on="0"/>
        <pt x="533" y="494" on="1"/>
        <pt x="570" y="494" on="0"/>
        <pt x="607" y="457" on="0"/>
        <pt x="607" y="430" on="1"/>
        <pt x="607" y="400" on="0"/>
        <pt x="561" y="354" on="0"/>
        <pt x="521" y="354" on="1"/>
        <pt x="484" y="354" on="0"/>
        <pt x="448" y="392" on="0"/>
      </contour>
    </TTGlyph>
    <TTGlyph name="Ldot.sc" xMin="51" yMin="0" xMax="569" yMax="589">
      <component glyphName="ldot.sc" x="0" y="0" flags="0x204"/>
    </TTGlyph>
    <TTGlyph name="Lslash" xMin="6" yMin="0" xMax="615" yMax="700">
      <contour>
        <pt x="76" y="0" on="1"/>
        <pt x="127" y="240" on="1"/>
        <pt x="6" y="182" on="1"/>
        <pt x="32" y="302" on="1"/>
        <pt x="153" y="360" on="1"/>
        <pt x="225" y="700" on="1"/>
        <pt x="350" y="700" on="1"/>
        <pt x="292" y="427" on="1"/>
        <pt x="524" y="537" on="1"/>
        <pt x="499" y="417" on="1"/>
        <pt x="266" y="306" on="1"/>
        <pt x="226" y="116" on="1"/>
        <pt x="615" y="116" on="1"/>
        <pt x="583" y="0" on="1"/>
      </contour>
    </TTGlyph>
    <TTGlyph name="Lslash.sc" xMin="27" yMin="0" xMax="557" yMax="589">
      <component glyphName="lslash.sc" x="0" y="0" flags="0x204"/>
    </TTGlyph>
    <TTGlyph name="M" xMin="50" yMin="0" xMax="957" yMax="700">
      <contour>
        <pt x="50" y="0" on="1"/>
        <pt x="199" y="700" on="1"/>
        <pt x="343" y="700" on="1"/>
        <pt x="483" y="269" on="1"/>
        <pt x="794" y="700" on="1"/>
        <pt x="957" y="700" on="1"/>
        <pt x="808" y="0" on="1"/>
        <pt x="685" y="0" on="1"/>
        <pt x="795" y="521" on="1"/>
        <pt x="792" y="521" on="1"/>
        <pt x="449" y="51" on="1"/>
        <pt x="439" y="51" on="1"/>
        <pt x="286" y="515" on="1"/>
        <pt x="283" y="515" on="1"/>
        <pt x="173" y="0" on="1"/>
      </contour>
    </TTGlyph>
    <TTGlyph name="M.sc" xMin="51" yMin="0" xMax="841" yMax="589">
      <component glyphName="m.sc" x="0" y="0" flags="0x204"/>
    </TTGlyph>
    <TTGlyph name="N" xMin="50" yMin="0" xMax="825" yMax="700">
      <contour>
        <pt x="50" y="0" on="1"/>
        <pt x="199" y="700" on="1"/>
        <pt x="346" y="700" on="1"/>
        <pt x="580" y="182" on="1"/>
        <pt x="591" y="182" on="1"/>
        <pt x="702" y="700" on="1"/>
        <pt x="825" y="700" on="1"/>
        <pt x="676" y="0" on="1"/>
        <pt x="538" y="0" on="1"/>
        <pt x="297" y="530" on="1"/>
        <pt x="286" y="530" on="1"/>
        <pt x="173" y="0" on="1"/>
      </contour>
    </TTGlyph>
    <TTGlyph name="N.sc" xMin="51" yMin="0" xMax="733" yMax="589">
      <component glyphName="n.sc" x="0" y="0" flags="0x204"/>
    </TTGlyph>
    <TTGlyph name="Nacute" xMin="50" yMin="0" xMax="825" yMax="927">
      <component glyphName="N" x="0" y="0" flags="0x204"/>
      <component glyphName="acute" x="256" y="139" flags="0x4"/>
    </TTGlyph>
    <TTGlyph name="Nacute.sc" xMin="51" yMin="0" xMax="733" yMax="816">
      <component glyphName="nacute.sc" x="0" y="0" flags="0x204"/>
    </TTGlyph>
    <TTGlyph name="Ncaron" xMin="50" yMin="0" xMax="825" yMax="940">
      <component glyphName="N" x="0" y="0" flags="0x204"/>
      <component glyphName="caron" x="203" y="139" flags="0x4"/>
    </TTGlyph>
    <TTGlyph name="Ncaron.sc" xMin="51" yMin="0" xMax="733" yMax="829">
      <component glyphName="ncaron.sc" x="0" y="0" flags="0x204"/>
    </TTGlyph>
    <TTGlyph name="Ntilde" xMin="50" yMin="0" xMax="825" yMax="937">
      <component glyphName="N" x="0" y="0" flags="0x204"/>
      <component glyphName="tilde" x="208" y="164" flags="0x4"/>
    </TTGlyph>
    <TTGlyph name="Ntilde.sc" xMin="51" yMin="0" xMax="733" yMax="826">
      <component glyphName="ntilde.sc" x="0" y="0" flags="0x204"/>
    </TTGlyph>
    <TTGlyph name="O" xMin="78" yMin="-17" xMax="809" yMax="716">
      <contour>
        <pt x="404" y="-17" on="1"/>
        <pt x="331" y="-17" on="0"/>
        <pt x="210" y="28" on="0"/>
        <pt x="125" y="110" on="0"/>
        <pt x="78" y="227" on="0"/>
        <pt x="78" y="299" on="1"/>
        <pt x="78" y="378" on="0"/>
        <pt x="132" y="529" on="0"/>
        <pt x="235" y="645" on="0"/>
        <pt x="387" y="716" on="0"/>
        <pt x="484" y="716" on="1"/>
        <pt x="557" y="716" on="0"/>
        <pt x="677" y="671" on="0"/>
        <pt x="762" y="589" on="0"/>
        <pt x="809" y="472" on="0"/>
        <pt x="809" y="400" on="1"/>
        <pt x="809" y="321" on="0"/>
        <pt x="755" y="170" on="0"/>
        <pt x="653" y="54" on="0"/>
        <pt x="501" y="-17" on="0"/>
      </contour>
      <contour>
        <pt x="413" y="96" on="1"/>
        <pt x="477" y="96" on="0"/>
        <pt x="577" y="145" on="0"/>
        <pt x="646" y="227" on="0"/>
        <pt x="682" y="335" on="0"/>
        <pt x="682" y="393" on="1"/>
        <pt x="682" y="489" on="0"/>
        <pt x="573" y="603" on="0"/>
        <pt x="474" y="603" on="1"/>
        <pt x="410" y="603" on="0"/>
        <pt x="310" y="554" on="0"/>
        <pt x="241" y="472" on="0"/>
        <pt x="205" y="364" on="0"/>
        <pt x="205" y="306" on="1"/>
        <pt x="205" y="210" on="0"/>
        <pt x="314" y="96" on="0"/>
      </contour>
    </TTGlyph>
    <TTGlyph name="O.sc" xMin="70" yMin="-17" xMax="712" yMax="607">
      <component glyphName="o.sc" x="0" y="0" flags="0x204"/>
    </TTGlyph>
    <TTGlyph name="OE" xMin="77" yMin="0" xMax="1200" yMax="700">
      <contour>
        <pt x="778" y="588" on="1"/>
        <pt x="741" y="419" on="1"/>
        <pt x="1069" y="419" on="1"/>
        <pt x="1045" y="308" on="1"/>
        <pt x="718" y="308" on="1"/>
        <pt x="677" y="112" on="1"/>
        <pt x="1107" y="112" on="1"/>
        <pt x="1074" y="0" on="1"/>
        <pt x="408" y="0" on="1"/>
        <pt x="321" y="0" on="0"/>
        <pt x="195" y="42" on="0"/>
        <pt x="115" y="118" on="0"/>
        <pt x="77" y="223" on="0"/>
        <pt x="77" y="286" on="1"/>
        <pt x="77" y="366" on="0"/>
        <pt x="128" y="516" on="0"/>
        <pt x="236" y="631" on="0"/>
        <pt x="408" y="700" on="0"/>
        <pt x="527" y="700" on="1"/>
        <pt x="1200" y="700" on="1"/>
        <pt x="1189" y="588" on="1"/>
      </contour>
      <contour>
        <pt x="205" y="292" on="1"/>
        <pt x="205" y="214" on="0"/>
        <pt x="300" y="113" on="0"/>
        <pt x="425" y="113" on="1"/>
        <pt x="551" y="113" on="1"/>
        <pt x="652" y="587" on="1"/>
        <pt x="512" y="587" on="1"/>
        <pt x="429" y="587" on="0"/>
        <pt x="311" y="538" on="0"/>
        <pt x="238" y="457" on="0"/>
        <pt x="205" y="349" on="0"/>
      </contour>
    </TTGlyph>
    <TTGlyph name="OE.sc" xMin="69" yMin="0" xMax="1047" yMax="589">
      <component glyphName="oe.sc" x="0" y="0" flags="0x204"/>
    </TTGlyph>
    <TTGlyph name="Oacute" xMin="78" yMin="-17" xMax="809" yMax="968">
      <component glyphName="O" x="0" y="0" flags="0x204"/>
      <component glyphName="acute" x="252" y="180" flags="0x4"/>
    </TTGlyph>
    <TTGlyph name="Oacute.sc" xMin="70" yMin="-17" xMax="712" yMax="859">
      <component glyphName="oacute.sc" x="0" y="0" flags="0x204"/>
    </TTGlyph>
    <TTGlyph name="Obreve" xMin="78" yMin="-17" xMax="809" yMax="984">
      <component glyphName="O" x="0" y="0" flags="0x204"/>
      <component glyphName="breve" x="199" y="180" flags="0x4"/>
    </TTGlyph>
    <TTGlyph name="Obreve.sc" xMin="70" yMin="-17" xMax="712" yMax="875">
      <component glyphName="obreve.sc" x="0" y="0" flags="0x204"/>
    </TTGlyph>
    <TTGlyph name="Ocircumflex" xMin="78" yMin="-17" xMax="809" yMax="981">
      <component glyphName="O" x="0" y="0" flags="0x204"/>
      <component glyphName="circumflex" x="198" y="180" flags="0x4"/>
    </TTGlyph>
    <TTGlyph name="Ocircumflex.sc" xMin="70" yMin="-17" xMax="712" yMax="872">
      <component glyphName="ocircumflex.sc" x="0" y="0" flags="0x204"/>
    </TTGlyph>
    <TTGlyph name="Odieresis" xMin="78" yMin="-17" xMax="809" yMax="936">
      <component glyphName="O" x="0" y="0" flags="0x204"/>
      <component glyphName="dieresis" x="198" y="180" flags="0x4"/>
    </TTGlyph>
    <TTGlyph name="Odieresis.sc" xMin="70" yMin="-17" xMax="712" yMax="827">
      <component glyphName="odieresis.sc" x="0" y="0" flags="0x204"/>
    </TTGlyph>
    <TTGlyph name="Ograve" xMin="78" yMin="-17" xMax="809" yMax="968">
      <component glyphName="O" x="0" y="0" flags="0x204"/>
      <component glyphName="grave" x="143" y="180" flags="0x4"/>
    </TTGlyph>
    <TTGlyph name="Ograve.sc" xMin="70" yMin="-17" xMax="712" yMax="859">
      <component glyphName="ograve.sc" x="0" y="0" flags="0x204"/>
    </TTGlyph>
    <TTGlyph name="Ohungarumlaut" xMin="78" yMin="-17" xMax="876" yMax="968">
      <component glyphName="O" x="0" y="0" flags="0x204"/>
      <component glyphName="hungarumlaut" x="261" y="180" flags="0x4"/>
    </TTGlyph>
    <TTGlyph name="Ohungarumlaut.sc" xMin="70" yMin="-17" xMax="798" yMax="859">
      <component glyphName="ohungarumlaut.sc" x="0" y="0" flags="0x204"/>
    </TTGlyph>
    <TTGlyph name="Omacron" xMin="78" yMin="-17" xMax="809" yMax="913">
      <component glyphName="O" x="0" y="0" flags="0x204"/>
      <component glyphName="macron" x="198" y="180" flags="0x4"/>
    </TTGlyph>
    <TTGlyph name="Omacron.sc" xMin="70" yMin="-17" xMax="712" yMax="804">
      <component glyphName="omacron.sc" x="0" y="0" flags="0x204"/>
    </TTGlyph>
    <TTGlyph name="Oslash" xMin="-8" yMin="-60" xMax="896" yMax="760">
      <contour>
        <pt x="-8" y="-60" on="1"/>
        <pt x="141" y="100" on="1"/>
        <pt x="110" y="139" on="0"/>
        <pt x="78" y="240" on="0"/>
        <pt x="78" y="300" on="1"/>
        <pt x="78" y="378" on="0"/>
        <pt x="132" y="529" on="0"/>
        <pt x="234" y="645" on="0"/>
        <pt x="385" y="716" on="0"/>
        <pt x="482" y="716" on="1"/>
        <pt x="536" y="716" on="0"/>
        <pt x="632" y="691" on="0"/>
        <pt x="670" y="668" on="1"/>
        <pt x="756" y="760" on="1"/>
        <pt x="896" y="760" on="1"/>
        <pt x="747" y="599" on="1"/>
        <pt x="777" y="560" on="0"/>
        <pt x="809" y="459" on="0"/>
        <pt x="809" y="400" on="1"/>
        <pt x="809" y="322" on="0"/>
        <pt x="755" y="171" on="0"/>
        <pt x="653" y="55" on="0"/>
        <pt x="502" y="-16" on="0"/>
        <pt x="405" y="-16" on="1"/>
        <pt x="351" y="-16" on="0"/>
        <pt x="255" y="9" on="0"/>
        <pt x="217" y="32" on="1"/>
        <pt x="132" y="-60" on="1"/>
      </contour>
      <contour>
        <pt x="202" y="304" on="1"/>
        <pt x="202" y="270" on="0"/>
        <pt x="217" y="211" on="0"/>
        <pt x="231" y="186" on="1"/>
        <pt x="593" y="578" on="1"/>
        <pt x="569" y="592" on="0"/>
        <pt x="509" y="607" on="0"/>
        <pt x="474" y="607" on="1"/>
        <pt x="409" y="607" on="0"/>
        <pt x="307" y="557" on="0"/>
        <pt x="238" y="473" on="0"/>
        <pt x="202" y="363" on="0"/>
      </contour>
      <contour>
        <pt x="413" y="93" on="1"/>
        <pt x="478" y="93" on="0"/>
        <pt x="580" y="143" on="0"/>
        <pt x="649" y="227" on="0"/>
        <pt x="685" y="337" on="0"/>
        <pt x="685" y="396" on="1"/>
        <pt x="685" y="430" on="0"/>
        <pt x="670" y="489" on="0"/>
        <pt x="656" y="514" on="1"/>
        <pt x="294" y="122" on="1"/>
        <pt x="318" y="108" on="0"/>
        <pt x="378" y="93" on="0"/>
      </contour>
    </TTGlyph>
    <TTGlyph name="Oslash.sc" xMin="-5" yMin="-58" xMax="787" yMax="645">
      <component glyphName="oslash.sc" x="0" y="0" flags="0x204"/>
    </TTGlyph>
    <TTGlyph name="Oslashacute" xMin="-8" yMin="-60" xMax="896" yMax="968">
      <component glyphName="Oslash" x="0" y="0" flags="0x204"/>
      <component glyphName="acute" x="252" y="180" flags="0x4"/>
    </TTGlyph>
    <TTGlyph name="Oslashacute.sc" xMin="-5" yMin="-58" xMax="787" yMax="858">
      <component glyphName="oslashacute.sc" x="0" y="0" flags="0x204"/>
    </TTGlyph>
    <TTGlyph name="Otilde" xMin="78" yMin="-17" xMax="809" yMax="953">
      <component glyphName="O" x="0" y="0" flags="0x204"/>
      <component glyphName="tilde" x="198" y="180" flags="0x4"/>
    </TTGlyph>
    <TTGlyph name="Otilde.sc" xMin="70" yMin="-17" xMax="712" yMax="844">
      <component glyphName="otilde.sc" x="0" y="0" flags="0x204"/>
    </TTGlyph>
    <TTGlyph name="P" xMin="50" yMin="0" xMax="737" yMax="700">
      <contour>
        <pt x="441" y="201" on="1"/>
        <pt x="218" y="201" on="1"/>
        <pt x="175" y="0" on="1"/>
        <pt x="50" y="0" on="1"/>
        <pt x="199" y="700" on="1"/>
        <pt x="493" y="700" on="1"/>
        <pt x="558" y="700" on="0"/>
        <pt x="650" y="667" on="0"/>
        <pt x="709" y="609" on="0"/>
        <pt x="737" y="530" on="0"/>
        <pt x="737" y="484" on="1"/>
        <pt x="737" y="427" on="0"/>
        <pt x="699" y="324" on="0"/>
        <pt x="625" y="247" on="0"/>
        <pt x="513" y="201" on="0"/>
      </contour>
      <contour>
        <pt x="437" y="316" on="1"/>
        <pt x="481" y="316" on="0"/>
        <pt x="546" y="343" on="0"/>
        <pt x="588" y="387" on="0"/>
        <pt x="609" y="445" on="0"/>
        <pt x="609" y="477" on="1"/>
        <pt x="609" y="526" on="0"/>
        <pt x="553" y="587" on="0"/>
        <pt x="488" y="587" on="1"/>
        <pt x="300" y="587" on="1"/>
        <pt x="243" y="316" on="1"/>
      </contour>
    </TTGlyph>
    <TTGlyph name="P.sc" xMin="51" yMin="0" xMax="646" yMax="589">
      <component glyphName="p.sc" x="0" y="0" flags="0x204"/>
    </TTGlyph>
    <TTGlyph name="Q" xMin="78" yMin="-39" xMax="809" yMax="716">
      <contour>
        <pt x="405" y="-17" on="1"/>
        <pt x="331" y="-17" on="0"/>
        <pt x="210" y="28" on="0"/>
        <pt x="125" y="110" on="0"/>
        <pt x="78" y="227" on="0"/>
        <pt x="78" y="299" on="1"/>
        <pt x="78" y="378" on="0"/>
        <pt x="132" y="529" on="0"/>
        <pt x="235" y="645" on="0"/>
        <pt x="387" y="716" on="0"/>
        <pt x="484" y="716" on="1"/>
        <pt x="557" y="716" on="0"/>
        <pt x="677" y="671" on="0"/>
        <pt x="762" y="589" on="0"/>
        <pt x="809" y="472" on="0"/>
        <pt x="809" y="400" on="1"/>
        <pt x="809" y="330" on="0"/>
        <pt x="765" y="193" on="0"/>
        <pt x="723" y="138" on="1"/>
        <pt x="780" y="85" on="1"/>
        <pt x="753" y="-39" on="1"/>
        <pt x="645" y="59" on="1"/>
        <pt x="597" y="24" on="0"/>
        <pt x="477" y="-17" on="0"/>
      </contour>
      <contour>
        <pt x="414" y="95" on="1"/>
        <pt x="459" y="95" on="0"/>
        <pt x="534" y="117" on="0"/>
        <pt x="564" y="137" on="1"/>
        <pt x="407" y="281" on="1"/>
        <pt x="475" y="363" on="1"/>
        <pt x="637" y="213" on="1"/>
        <pt x="660" y="250" on="0"/>
        <pt x="684" y="342" on="0"/>
        <pt x="684" y="393" on="1"/>
        <pt x="684" y="489" on="0"/>
        <pt x="574" y="603" on="0"/>
        <pt x="475" y="603" on="1"/>
        <pt x="411" y="603" on="0"/>
        <pt x="310" y="554" on="0"/>
        <pt x="241" y="472" on="0"/>
        <pt x="205" y="364" on="0"/>
        <pt x="205" y="306" on="1"/>
        <pt x="205" y="210" on="0"/>
        <pt x="315" y="95" on="0"/>
      </contour>
    </TTGlyph>
    <TTGlyph name="Q.sc" xMin="70" yMin="-39" xMax="712" yMax="607">
      <component glyphName="q.sc" x="0" y="0" flags="0x204"/>
    </TTGlyph>
    <TTGlyph name="R" xMin="50" yMin="0" xMax="736" yMax="700">
      <contour>
        <pt x="657" y="0" on="1"/>
        <pt x="517" y="0" on="1"/>
        <pt x="400" y="227" on="1"/>
        <pt x="224" y="227" on="1"/>
        <pt x="175" y="0" on="1"/>
        <pt x="50" y="0" on="1"/>
        <pt x="199" y="700" on="1"/>
        <pt x="499" y="700" on="1"/>
        <pt x="562" y="700" on="0"/>
        <pt x="652" y="669" on="0"/>
        <pt x="709" y="614" on="0"/>
        <pt x="736" y="537" on="0"/>
        <pt x="736" y="493" on="1"/>
        <pt x="736" y="405" on="0"/>
        <pt x="632" y="263" on="0"/>
        <pt x="529" y="238" on="1"/>
      </contour>
      <contour>
        <pt x="444" y="337" on="1"/>
        <pt x="485" y="337" on="0"/>
        <pt x="547" y="362" on="0"/>
        <pt x="588" y="403" on="0"/>
        <pt x="608" y="457" on="0"/>
        <pt x="608" y="486" on="1"/>
        <pt x="608" y="531" on="0"/>
        <pt x="555" y="587" on="0"/>
        <pt x="489" y="587" on="1"/>
        <pt x="300" y="587" on="1"/>
        <pt x="247" y="337" on="1"/>
      </contour>
    </TTGlyph>
    <TTGlyph name="R.sc" xMin="51" yMin="0" xMax="658" yMax="589">
      <component glyphName="r.sc" x="0" y="0" flags="0x204"/>
    </TTGlyph>
    <TTGlyph name="R_p" xMin="78" yMin="-194" xMax="1345" yMax="700">
      <contour>
        <pt x="246" y="222" on="1"/>
        <pt x="199" y="0" on="1"/>
        <pt x="78" y="0" on="1"/>
        <pt x="227" y="700" on="1"/>
        <pt x="501" y="700" on="1"/>
        <pt x="626" y="700" on="0"/>
        <pt x="743" y="581" on="0"/>
        <pt x="743" y="490" on="1"/>
        <pt x="743" y="400" on="0"/>
        <pt x="639" y="260" on="0"/>
        <pt x="537" y="235" on="1"/>
        <pt x="664" y="0" on="1"/>
        <pt x="523" y="0" on="1"/>
        <pt x="409" y="222" on="1"/>
      </contour>
      <contour>
        <pt x="453" y="329" on="1"/>
        <pt x="537" y="329" on="0"/>
        <pt x="619" y="421" on="0"/>
        <pt x="619" y="483" on="1"/>
        <pt x="619" y="531" on="0"/>
        <pt x="561" y="591" on="0"/>
        <pt x="496" y="591" on="1"/>
        <pt x="324" y="591" on="1"/>
        <pt x="269" y="329" on="1"/>
      </contour>
      <contour>
        <pt x="1157" y="547" on="1"/>
        <pt x="1196" y="547" on="0"/>
        <pt x="1265" y="521" on="0"/>
        <pt x="1315" y="468" on="0"/>
        <pt x="1345" y="388" on="0"/>
        <pt x="1345" y="334" on="1"/>
        <pt x="1345" y="263" on="0"/>
        <pt x="1299" y="136" on="0"/>
        <pt x="1218" y="41" on="0"/>
        <pt x="1107" y="-15" on="0"/>
        <pt x="1043" y="-15" on="1"/>
        <pt x="997" y="-15" on="0"/>
        <pt x="926" y="9" on="0"/>
        <pt x="901" y="28" on="1"/>
        <pt x="854" y="-194" on="1"/>
        <pt x="732" y="-194" on="1"/>
        <pt x="887" y="536" on="1"/>
        <pt x="1007" y="536" on="1"/>
        <pt x="993" y="470" on="1"/>
        <pt x="1024" y="502" on="0"/>
        <pt x="1105" y="547" on="0"/>
      </contour>
      <contour>
        <pt x="1113" y="447" on="1"/>
        <pt x="1075" y="447" on="0"/>
        <pt x="1005" y="414" on="0"/>
        <pt x="977" y="386" on="1"/>
        <pt x="924" y="132" on="1"/>
        <pt x="943" y="113" on="0"/>
        <pt x="1002" y="86" on="0"/>
        <pt x="1039" y="86" on="1"/>
        <pt x="1083" y="86" on="0"/>
        <pt x="1152" y="126" on="0"/>
        <pt x="1200" y="191" on="0"/>
        <pt x="1225" y="277" on="0"/>
        <pt x="1225" y="322" on="1"/>
        <pt x="1225" y="389" on="0"/>
        <pt x="1162" y="447" on="0"/>
      </contour>
    </TTGlyph>
    <TTGlyph name="Racute" xMin="50" yMin="0" xMax="736" yMax="952">
      <component glyphName="R" x="0" y="0" flags="0x204"/>
      <component glyphName="acute" x="210" y="164" flags="0x4"/>
    </TTGlyph>
    <TTGlyph name="Racute.sc" xMin="51" yMin="0" xMax="671" yMax="841">
      <component glyphName="racute.sc" x="0" y="0" flags="0x204"/>
    </TTGlyph>
    <TTGlyph name="Rcaron" xMin="50" yMin="0" xMax="736" yMax="965">
      <component glyphName="R" x="0" y="0" flags="0x204"/>
      <component glyphName="caron" x="157" y="164" flags="0x4"/>
    </TTGlyph>
    <TTGlyph name="Rcaron.sc" xMin="51" yMin="0" xMax="671" yMax="854">
      <component glyphName="rcaron.sc" x="0" y="0" flags="0x204"/>
    </TTGlyph>
    <TTGlyph name="S" xMin="42" yMin="-15" xMax="699" yMax="715">
      <contour>
        <pt x="68" y="198" on="1"/>
        <pt x="122" y="158" on="0"/>
        <pt x="286" y="96" on="0"/>
        <pt x="369" y="96" on="1"/>
        <pt x="447" y="96" on="0"/>
        <pt x="522" y="152" on="0"/>
        <pt x="522" y="194" on="1"/>
        <pt x="522" y="216" on="0"/>
        <pt x="504" y="245" on="0"/>
        <pt x="464" y="268" on="0"/>
        <pt x="398" y="289" on="0"/>
        <pt x="350" y="304" on="1"/>
        <pt x="308" y="317" on="0"/>
        <pt x="228" y="346" on="0"/>
        <pt x="166" y="388" on="0"/>
        <pt x="129" y="449" on="0"/>
        <pt x="129" y="494" on="1"/>
        <pt x="129" y="591" on="0"/>
        <pt x="277" y="715" on="0"/>
        <pt x="415" y="715" on="1"/>
        <pt x="504" y="715" on="0"/>
        <pt x="649" y="667" on="0"/>
        <pt x="699" y="636" on="1"/>
        <pt x="674" y="518" on="1"/>
        <pt x="673" y="518" on="1"/>
        <pt x="621" y="555" on="0"/>
        <pt x="482" y="604" on="0"/>
        <pt x="407" y="604" on="1"/>
        <pt x="327" y="604" on="0"/>
        <pt x="254" y="548" on="0"/>
        <pt x="254" y="509" on="1"/>
        <pt x="254" y="468" on="0"/>
        <pt x="330" y="433" on="0"/>
        <pt x="415" y="407" on="1"/>
        <pt x="464" y="392" on="0"/>
        <pt x="549" y="360" on="0"/>
        <pt x="611" y="316" on="0"/>
        <pt x="647" y="251" on="0"/>
        <pt x="647" y="204" on="1"/>
        <pt x="647" y="160" on="0"/>
        <pt x="613" y="80" on="0"/>
        <pt x="543" y="20" on="0"/>
        <pt x="436" y="-15" on="0"/>
        <pt x="364" y="-15" on="1"/>
        <pt x="263" y="-15" on="0"/>
        <pt x="99" y="39" on="0"/>
        <pt x="42" y="76" on="1"/>
        <pt x="67" y="198" on="1"/>
      </contour>
    </TTGlyph>
    <TTGlyph name="S.sc" xMin="39" yMin="-16" xMax="615" yMax="605">
      <component glyphName="s.sc" x="0" y="0" flags="0x204"/>
    </TTGlyph>
    <TTGlyph name="Sacute" xMin="42" yMin="-15" xMax="718" yMax="967">
      <component glyphName="S" x="0" y="0" flags="0x204"/>
      <component glyphName="acute" x="192" y="179" flags="0x4"/>
    </TTGlyph>
    <TTGlyph name="Sacute.sc" xMin="39" yMin="-16" xMax="655" yMax="857">
      <component glyphName="sacute.sc" x="0" y="0" flags="0x204"/>
    </TTGlyph>
    <TTGlyph name="Scaron" xMin="42" yMin="-15" xMax="718" yMax="980">
      <component glyphName="S" x="0" y="0" flags="0x204"/>
      <component glyphName="caron" x="139" y="179" flags="0x4"/>
    </TTGlyph>
    <TTGlyph name="Scaron.sc" xMin="39" yMin="-16" xMax="656" yMax="870">
      <component glyphName="scaron.sc" x="0" y="0" flags="0x204"/>
    </TTGlyph>
    <TTGlyph name="Scedilla" xMin="42" yMin="-185" xMax="699" yMax="715">
      <contour>
        <pt x="68" y="198" on="1"/>
        <pt x="122" y="158" on="0"/>
        <pt x="286" y="96" on="0"/>
        <pt x="369" y="96" on="1"/>
        <pt x="447" y="96" on="0"/>
        <pt x="522" y="152" on="0"/>
        <pt x="522" y="194" on="1"/>
        <pt x="522" y="216" on="0"/>
        <pt x="504" y="245" on="0"/>
        <pt x="464" y="268" on="0"/>
        <pt x="398" y="289" on="0"/>
        <pt x="350" y="304" on="1"/>
        <pt x="308" y="317" on="0"/>
        <pt x="228" y="346" on="0"/>
        <pt x="166" y="388" on="0"/>
        <pt x="129" y="449" on="0"/>
        <pt x="129" y="494" on="1"/>
        <pt x="129" y="591" on="0"/>
        <pt x="277" y="715" on="0"/>
        <pt x="415" y="715" on="1"/>
        <pt x="504" y="715" on="0"/>
        <pt x="649" y="667" on="0"/>
        <pt x="699" y="636" on="1"/>
        <pt x="674" y="518" on="1"/>
        <pt x="673" y="518" on="1"/>
        <pt x="621" y="555" on="0"/>
        <pt x="482" y="604" on="0"/>
        <pt x="407" y="604" on="1"/>
        <pt x="327" y="604" on="0"/>
        <pt x="254" y="548" on="0"/>
        <pt x="254" y="509" on="1"/>
        <pt x="254" y="468" on="0"/>
        <pt x="330" y="433" on="0"/>
        <pt x="415" y="407" on="1"/>
        <pt x="464" y="392" on="0"/>
        <pt x="549" y="360" on="0"/>
        <pt x="611" y="316" on="0"/>
        <pt x="647" y="251" on="0"/>
        <pt x="647" y="204" on="1"/>
        <pt x="647" y="163" on="0"/>
        <pt x="617" y="87" on="0"/>
        <pt x="556" y="29" on="0"/>
        <pt x="463" y="-10" on="0"/>
        <pt x="400" y="-14" on="1"/>
        <pt x="275" y="-185" on="1"/>
        <pt x="124" y="-185" on="1"/>
        <pt x="126" y="-179" on="1"/>
        <pt x="297" y="-12" on="1"/>
        <pt x="219" y="-4" on="0"/>
        <pt x="89" y="45" on="0"/>
        <pt x="42" y="76" on="1"/>
        <pt x="67" y="198" on="1"/>
      </contour>
    </TTGlyph>
    <TTGlyph name="Scedilla.sc" xMin="39" yMin="-185" xMax="615" yMax="605">
      <component glyphName="scedilla.sc" x="0" y="0" flags="0x204"/>
    </TTGlyph>
    <TTGlyph name="T" xMin="106" yMin="0" xMax="747" yMax="700">
      <contour>
        <pt x="736" y="584" on="1"/>
        <pt x="487" y="584" on="1"/>
        <pt x="363" y="0" on="1"/>
        <pt x="238" y="0" on="1"/>
        <pt x="362" y="584" on="1"/>
        <pt x="106" y="584" on="1"/>
        <pt x="139" y="700" on="1"/>
        <pt x="747" y="700" on="1"/>
      </contour>
    </TTGlyph>
    <TTGlyph name="T.sc" xMin="93" yMin="0" xMax="675" yMax="589">
      <component glyphName="t.sc" x="0" y="0" flags="0x204"/>
    </TTGlyph>
    <TTGlyph name="Tcaron" xMin="106" yMin="0" xMax="747" yMax="965">
      <component glyphName="T" x="0" y="0" flags="0x204"/>
      <component glyphName="caron" x="140" y="164" flags="0x4"/>
    </TTGlyph>
    <TTGlyph name="Tcaron.sc" xMin="93" yMin="0" xMax="686" yMax="854">
      <component glyphName="tcaron.sc" x="0" y="0" flags="0x204"/>
    </TTGlyph>
    <TTGlyph name="Thorn" xMin="50" yMin="0" xMax="724" yMax="700">
      <contour>
        <pt x="199" y="700" on="1"/>
        <pt x="324" y="700" on="1"/>
        <pt x="302" y="596" on="1"/>
        <pt x="476" y="596" on="1"/>
        <pt x="542" y="596" on="0"/>
        <pt x="637" y="564" on="0"/>
        <pt x="696" y="508" on="0"/>
        <pt x="724" y="430" on="0"/>
        <pt x="724" y="385" on="1"/>
        <pt x="724" y="328" on="0"/>
        <pt x="686" y="227" on="0"/>
        <pt x="612" y="152" on="0"/>
        <pt x="501" y="108" on="0"/>
        <pt x="429" y="108" on="1"/>
        <pt x="199" y="108" on="1"/>
        <pt x="175" y="0" on="1"/>
        <pt x="50" y="0" on="1"/>
      </contour>
      <contour>
        <pt x="278" y="481" on="1"/>
        <pt x="223" y="223" on="1"/>
        <pt x="425" y="223" on="1"/>
        <pt x="512" y="223" on="0"/>
        <pt x="596" y="315" on="0"/>
        <pt x="596" y="377" on="1"/>
        <pt x="596" y="425" on="0"/>
        <pt x="540" y="481" on="0"/>
        <pt x="471" y="481" on="1"/>
      </contour>
    </TTGlyph>
    <TTGlyph name="Thorn.sc" xMin="51" yMin="0" xMax="637" yMax="589">
      <component glyphName="thorn.sc" x="0" y="0" flags="0x204"/>
    </TTGlyph>
    <TTGlyph name="U" xMin="94" yMin="-16" xMax="803" yMax="700">
      <contour>
        <pt x="373" y="-16" on="1"/>
        <pt x="312" y="-16" on="0"/>
        <pt x="209" y="10" on="0"/>
        <pt x="136" y="63" on="0"/>
        <pt x="94" y="147" on="0"/>
        <pt x="94" y="204" on="1"/>
        <pt x="94" y="227" on="0"/>
        <pt x="100" y="274" on="0"/>
        <pt x="106" y="302" on="1"/>
        <pt x="191" y="700" on="1"/>
        <pt x="316" y="700" on="1"/>
        <pt x="230" y="292" on="1"/>
        <pt x="226" y="271" on="0"/>
        <pt x="221" y="238" on="0"/>
        <pt x="221" y="220" on="1"/>
        <pt x="221" y="156" on="0"/>
        <pt x="310" y="100" on="0"/>
        <pt x="377" y="100" on="1"/>
        <pt x="459" y="100" on="0"/>
        <pt x="567" y="178" on="0"/>
        <pt x="588" y="275" on="1"/>
        <pt x="678" y="700" on="1"/>
        <pt x="803" y="700" on="1"/>
        <pt x="710" y="260" on="1"/>
        <pt x="679" y="111" on="0"/>
        <pt x="504" y="-16" on="0"/>
      </contour>
    </TTGlyph>
    <TTGlyph name="U.sc" xMin="87" yMin="-16" xMax="714" yMax="589">
      <component glyphName="u.sc" x="0" y="0" flags="0x204"/>
    </TTGlyph>
    <TTGlyph name="Uacute" xMin="94" yMin="-16" xMax="803" yMax="928">
      <component glyphName="U" x="0" y="0" flags="0x204"/>
      <component glyphName="acute" x="233" y="140" flags="0x4"/>
    </TTGlyph>
    <TTGlyph name="Uacute.sc" xMin="87" yMin="-16" xMax="714" yMax="817">
      <component glyphName="uacute.sc" x="0" y="0" flags="0x204"/>
    </TTGlyph>
    <TTGlyph name="Ubreve" xMin="94" yMin="-16" xMax="803" yMax="944">
      <component glyphName="U" x="0" y="0" flags="0x204"/>
      <component glyphName="breve" x="180" y="140" flags="0x4"/>
    </TTGlyph>
    <TTGlyph name="Ubreve.sc" xMin="87" yMin="-16" xMax="714" yMax="833">
      <component glyphName="ubreve.sc" x="0" y="0" flags="0x204"/>
    </TTGlyph>
    <TTGlyph name="Ucircumflex" xMin="94" yMin="-16" xMax="803" yMax="965">
      <component glyphName="U" x="0" y="0" flags="0x204"/>
      <component glyphName="circumflex" x="185" y="164" flags="0x4"/>
    </TTGlyph>
    <TTGlyph name="Ucircumflex.sc" xMin="87" yMin="-16" xMax="714" yMax="854">
      <component glyphName="ucircumflex.sc" x="0" y="0" flags="0x204"/>
    </TTGlyph>
    <TTGlyph name="Udieresis" xMin="94" yMin="-16" xMax="803" yMax="920">
      <component glyphName="U" x="0" y="0" flags="0x204"/>
      <component glyphName="dieresis" x="184" y="164" flags="0x4"/>
    </TTGlyph>
    <TTGlyph name="Udieresis.sc" xMin="87" yMin="-16" xMax="714" yMax="809">
      <component glyphName="udieresis.sc" x="0" y="0" flags="0x204"/>
    </TTGlyph>
    <TTGlyph name="Ugrave" xMin="94" yMin="-16" xMax="803" yMax="928">
      <component glyphName="U" x="0" y="0" flags="0x204"/>
      <component glyphName="grave" x="125" y="140" flags="0x4"/>
    </TTGlyph>
    <TTGlyph name="Ugrave.sc" xMin="87" yMin="-16" xMax="714" yMax="817">
      <component glyphName="ugrave.sc" x="0" y="0" flags="0x204"/>
    </TTGlyph>
    <TTGlyph name="Uhungarumlaut" xMin="94" yMin="-16" xMax="850" yMax="952">
      <component glyphName="U" x="0" y="0" flags="0x204"/>
      <component glyphName="hungarumlaut" x="235" y="164" flags="0x4"/>
    </TTGlyph>
    <TTGlyph name="Uhungarumlaut.sc" xMin="87" yMin="-16" xMax="765" yMax="841">
      <component glyphName="uhungarumlaut.sc" x="0" y="0" flags="0x204"/>
    </TTGlyph>
    <TTGlyph name="Umacron" xMin="94" yMin="-16" xMax="803" yMax="897">
      <component glyphName="U" x="0" y="0" flags="0x204"/>
      <component glyphName="macron" x="184" y="164" flags="0x4"/>
    </TTGlyph>
    <TTGlyph name="Umacron.sc" xMin="87" yMin="-16" xMax="714" yMax="786">
      <component glyphName="umacron.sc" x="0" y="0" flags="0x204"/>
    </TTGlyph>
    <TTGlyph name="Uogonek" xMin="94" yMin="-294" xMax="803" yMax="700">
      <contour>
        <pt x="423" y="-270" on="1"/>
        <pt x="399" y="-283" on="0"/>
        <pt x="348" y="-294" on="0"/>
        <pt x="320" y="-294" on="1"/>
        <pt x="257" y="-294" on="0"/>
        <pt x="187" y="-235" on="0"/>
        <pt x="187" y="-192" on="1"/>
        <pt x="187" y="-144" on="0"/>
        <pt x="261" y="-59" on="0"/>
        <pt x="321" y="-14" on="1"/>
        <pt x="220" y="-4" on="0"/>
        <pt x="94" y="103" on="0"/>
        <pt x="94" y="204" on="1"/>
        <pt x="94" y="227" on="0"/>
        <pt x="100" y="274" on="0"/>
        <pt x="106" y="302" on="1"/>
        <pt x="191" y="700" on="1"/>
        <pt x="316" y="700" on="1"/>
        <pt x="230" y="292" on="1"/>
        <pt x="226" y="271" on="0"/>
        <pt x="221" y="238" on="0"/>
        <pt x="221" y="220" on="1"/>
        <pt x="221" y="156" on="0"/>
        <pt x="310" y="100" on="0"/>
        <pt x="377" y="100" on="1"/>
        <pt x="459" y="100" on="0"/>
        <pt x="567" y="178" on="0"/>
        <pt x="588" y="275" on="1"/>
        <pt x="678" y="700" on="1"/>
        <pt x="803" y="700" on="1"/>
        <pt x="710" y="260" on="1"/>
        <pt x="684" y="135" on="0"/>
        <pt x="551" y="6" on="0"/>
        <pt x="452" y="-10" on="1"/>
        <pt x="391" y="-59" on="1"/>
        <pt x="341" y="-99" on="0"/>
        <pt x="300" y="-147" on="0"/>
        <pt x="300" y="-168" on="1"/>
        <pt x="300" y="-184" on="0"/>
        <pt x="325" y="-203" on="0"/>
        <pt x="353" y="-203" on="1"/>
        <pt x="372" y="-203" on="0"/>
        <pt x="417" y="-192" on="0"/>
        <pt x="442" y="-181" on="1"/>
      </contour>
    </TTGlyph>
    <TTGlyph name="Uogonek.sc" xMin="87" yMin="-286" xMax="714" yMax="589">
      <component glyphName="uogonek.sc" x="0" y="0" flags="0x204"/>
    </TTGlyph>
    <TTGlyph name="Uring" xMin="94" yMin="-16" xMax="803" yMax="1045">
      <component glyphName="U" x="0" y="0" flags="0x204"/>
      <component glyphName="ring" x="124" y="140" flags="0x4"/>
    </TTGlyph>
    <TTGlyph name="Uring.sc" xMin="87" yMin="-16" xMax="714" yMax="934">
      <component glyphName="uring.sc" x="0" y="0" flags="0x204"/>
    </TTGlyph>
    <TTGlyph name="V" xMin="126" yMin="0" xMax="823" yMax="700">
      <contour>
        <pt x="218" y="0" on="1"/>
        <pt x="126" y="700" on="1"/>
        <pt x="258" y="700" on="1"/>
        <pt x="330" y="120" on="1"/>
        <pt x="366" y="120" on="1"/>
        <pt x="681" y="700" on="1"/>
        <pt x="823" y="700" on="1"/>
        <pt x="436" y="0" on="1"/>
      </contour>
    </TTGlyph>
    <TTGlyph name="V.sc" xMin="111" yMin="0" xMax="724" yMax="589">
      <component glyphName="v.sc" x="0" y="0" flags="0x204"/>
    </TTGlyph>
    <TTGlyph name="W" xMin="141" yMin="0" xMax="1192" yMax="700">
      <contour>
        <pt x="183" y="0" on="1"/>
        <pt x="141" y="700" on="1"/>
        <pt x="267" y="700" on="1"/>
        <pt x="297" y="130" on="1"/>
        <pt x="315" y="130" on="1"/>
        <pt x="598" y="700" on="1"/>
        <pt x="726" y="700" on="1"/>
        <pt x="782" y="130" on="1"/>
        <pt x="800" y="130" on="1"/>
        <pt x="1057" y="700" on="1"/>
        <pt x="1192" y="700" on="1"/>
        <pt x="861" y="0" on="1"/>
        <pt x="679" y="0" on="1"/>
        <pt x="633" y="520" on="1"/>
        <pt x="624" y="520" on="1"/>
        <pt x="366" y="0" on="1"/>
      </contour>
    </TTGlyph>
    <TTGlyph name="W.sc" xMin="116" yMin="0" xMax="1048" yMax="589">
      <component glyphName="w.sc" x="0" y="0" flags="0x204"/>
    </TTGlyph>
    <TTGlyph name="Wacute" xMin="141" yMin="0" xMax="1192" yMax="952">
      <component glyphName="W" x="0" y="0" flags="0x204"/>
      <component glyphName="acute" x="412" y="164" flags="0x4"/>
    </TTGlyph>
    <TTGlyph name="Wacute.sc" xMin="116" yMin="0" xMax="1048" yMax="841">
      <component glyphName="wacute.sc" x="0" y="0" flags="0x204"/>
    </TTGlyph>
    <TTGlyph name="Wcircumflex" xMin="141" yMin="0" xMax="1192" yMax="965">
      <component glyphName="W" x="0" y="0" flags="0x204"/>
      <component glyphName="circumflex" x="342" y="164" flags="0x4"/>
    </TTGlyph>
    <TTGlyph name="Wcircumflex.sc" xMin="116" yMin="0" xMax="1048" yMax="854">
      <component glyphName="wcircumflex.sc" x="0" y="0" flags="0x204"/>
    </TTGlyph>
    <TTGlyph name="Wdieresis" xMin="141" yMin="0" xMax="1192" yMax="920">
      <component glyphName="W" x="0" y="0" flags="0x204"/>
      <component glyphName="dieresis" x="342" y="164" flags="0x4"/>
    </TTGlyph>
    <TTGlyph name="Wdieresis.sc" xMin="116" yMin="0" xMax="1048" yMax="809">
      <component glyphName="wdieresis.sc" x="0" y="0" flags="0x204"/>
    </TTGlyph>
    <TTGlyph name="Wgrave" xMin="141" yMin="0" xMax="1192" yMax="952">
      <component glyphName="W" x="0" y="0" flags="0x204"/>
      <component glyphName="grave" x="276" y="164" flags="0x4"/>
    </TTGlyph>
    <TTGlyph name="Wgrave.sc" xMin="116" yMin="0" xMax="1048" yMax="841">
      <component glyphName="wgrave.sc" x="0" y="0" flags="0x204"/>
    </TTGlyph>
    <TTGlyph name="X" xMin="-14" yMin="0" xMax="813" yMax="700">
      <contour>
        <pt x="-14" y="1" on="1"/>
        <pt x="335" y="374" on="1"/>
        <pt x="153" y="699" on="1"/>
        <pt x="153" y="700" on="1"/>
        <pt x="290" y="700" on="1"/>
        <pt x="428" y="449" on="1"/>
        <pt x="659" y="700" on="1"/>
        <pt x="813" y="700" on="1"/>
        <pt x="813" y="699" on="1"/>
        <pt x="489" y="352" on="1"/>
        <pt x="685" y="1" on="1"/>
        <pt x="685" y="0" on="1"/>
        <pt x="548" y="0" on="1"/>
        <pt x="395" y="279" on="1"/>
        <pt x="140" y="0" on="1"/>
        <pt x="-14" y="0" on="1"/>
      </contour>
    </TTGlyph>
    <TTGlyph name="X.sc" xMin="-12" yMin="0" xMax="715" yMax="589">
      <component glyphName="x.sc" x="0" y="0" flags="0x204"/>
    </TTGlyph>
    <TTGlyph name="Y" xMin="108" yMin="0" xMax="821" yMax="700">
      <contour>
        <pt x="669" y="700" on="1"/>
        <pt x="821" y="700" on="1"/>
        <pt x="431" y="227" on="1"/>
        <pt x="382" y="0" on="1"/>
        <pt x="257" y="0" on="1"/>
        <pt x="305" y="228" on="1"/>
        <pt x="108" y="700" on="1"/>
        <pt x="239" y="700" on="1"/>
        <pt x="381" y="355" on="1"/>
        <pt x="390" y="355" on="1"/>
      </contour>
    </TTGlyph>
    <TTGlyph name="Y.sc" xMin="91" yMin="0" xMax="729" yMax="589">
      <component glyphName="y.sc" x="0" y="0" flags="0x204"/>
    </TTGlyph>
    <TTGlyph name="Yacute" xMin="108" yMin="0" xMax="821" yMax="928">
      <component glyphName="Y" x="0" y="0" flags="0x204"/>
      <component glyphName="acute" x="196" y="140" flags="0x4"/>
    </TTGlyph>
    <TTGlyph name="Yacute.sc" xMin="91" yMin="0" xMax="729" yMax="817">
      <component glyphName="yacute.sc" x="0" y="0" flags="0x204"/>
    </TTGlyph>
    <TTGlyph name="Ycircumflex" xMin="108" yMin="0" xMax="821" yMax="965">
      <component glyphName="Y" x="0" y="0" flags="0x204"/>
      <component glyphName="circumflex" x="148" y="164" flags="0x4"/>
    </TTGlyph>
    <TTGlyph name="Ycircumflex.sc" xMin="91" yMin="0" xMax="729" yMax="854">
      <component glyphName="ycircumflex.sc" x="0" y="0" flags="0x204"/>
    </TTGlyph>
    <TTGlyph name="Ydieresis" xMin="108" yMin="0" xMax="821" yMax="920">
      <component glyphName="Y" x="0" y="0" flags="0x204"/>
      <component glyphName="dieresis" x="148" y="164" flags="0x4"/>
    </TTGlyph>
    <TTGlyph name="Ydieresis.sc" xMin="91" yMin="0" xMax="729" yMax="809">
      <component glyphName="ydieresis.sc" x="0" y="0" flags="0x204"/>
    </TTGlyph>
    <TTGlyph name="Ygrave" xMin="108" yMin="0" xMax="821" yMax="928">
      <component glyphName="Y" x="0" y="0" flags="0x204"/>
      <component glyphName="grave" x="88" y="140" flags="0x4"/>
    </TTGlyph>
    <TTGlyph name="Ygrave.sc" xMin="91" yMin="0" xMax="729" yMax="817">
      <component glyphName="ygrave.sc" x="0" y="0" flags="0x204"/>
    </TTGlyph>
    <TTGlyph name="Z" xMin="14" yMin="0" xMax="761" yMax="700">
      <contour>
        <pt x="14" y="0" on="1"/>
        <pt x="40" y="123" on="1"/>
        <pt x="567" y="588" on="1"/>
        <pt x="150" y="588" on="1"/>
        <pt x="182" y="700" on="1"/>
        <pt x="761" y="700" on="1"/>
        <pt x="738" y="589" on="1"/>
        <pt x="197" y="112" on="1"/>
        <pt x="638" y="112" on="1"/>
        <pt x="614" y="0" on="1"/>
      </contour>
    </TTGlyph>
    <TTGlyph name="Z.sc" xMin="25" yMin="0" xMax="678" yMax="589">
      <component glyphName="z.sc" x="0" y="0" flags="0x204"/>
    </TTGlyph>
    <TTGlyph name="Zacute" xMin="14" yMin="0" xMax="761" yMax="952">
      <component glyphName="Z" x="0" y="0" flags="0x204"/>
      <component glyphName="acute" x="200" y="164" flags="0x4"/>
    </TTGlyph>
    <TTGlyph name="Zacute.sc" xMin="25" yMin="0" xMax="678" yMax="841">
      <component glyphName="zacute.sc" x="0" y="0" flags="0x204"/>
    </TTGlyph>
    <TTGlyph name="Zcaron" xMin="14" yMin="0" xMax="761" yMax="965">
      <component glyphName="Z" x="0" y="0" flags="0x204"/>
      <component glyphName="caron" x="147" y="164" flags="0x4"/>
    </TTGlyph>
    <TTGlyph name="Zcaron.sc" xMin="25" yMin="0" xMax="678" yMax="854">
      <component glyphName="zcaron.sc" x="0" y="0" flags="0x204"/>
    </TTGlyph>
    <TTGlyph name="Zdotaccent" xMin="14" yMin="0" xMax="761" yMax="925">
      <component glyphName="Z" x="0" y="0" flags="0x204"/>
      <component glyphName="dotaccent" x="146" y="164" flags="0x4"/>
    </TTGlyph>
    <TTGlyph name="Zdotaccent.sc" xMin="25" yMin="0" xMax="678" yMax="814">
      <component glyphName="zdotaccent.sc" x="0" y="0" flags="0x204"/>
    </TTGlyph>
    <TTGlyph name="a" xMin="32" yMin="-14" xMax="539" yMax="551">
      <contour>
        <pt x="309" y="448" on="1"/>
        <pt x="268" y="448" on="0"/>
        <pt x="165" y="422" on="0"/>
        <pt x="120" y="396" on="1"/>
        <pt x="119" y="396" on="1"/>
        <pt x="141" y="509" on="1"/>
        <pt x="186" y="529" on="0"/>
        <pt x="285" y="551" on="0"/>
        <pt x="337" y="551" on="1"/>
        <pt x="438" y="551" on="0"/>
        <pt x="539" y="465" on="0"/>
        <pt x="539" y="387" on="1"/>
        <pt x="539" y="368" on="0"/>
        <pt x="533" y="328" on="0"/>
        <pt x="528" y="303" on="1"/>
        <pt x="464" y="0" on="1"/>
        <pt x="357" y="0" on="1"/>
        <pt x="367" y="63" on="1"/>
        <pt x="332" y="26" on="0"/>
        <pt x="241" y="-14" on="0"/>
        <pt x="190" y="-14" on="1"/>
        <pt x="117" y="-14" on="0"/>
        <pt x="32" y="62" on="0"/>
        <pt x="32" y="124" on="1"/>
        <pt x="32" y="151" on="0"/>
        <pt x="51" y="215" on="0"/>
        <pt x="79" y="243" on="1"/>
        <pt x="116" y="280" on="0"/>
        <pt x="258" y="322" on="0"/>
        <pt x="379" y="322" on="1"/>
        <pt x="387" y="322" on="0"/>
        <pt x="404" y="322" on="0"/>
        <pt x="413" y="322" on="1"/>
        <pt x="413" y="322" on="1"/>
        <pt x="417" y="338" on="0"/>
        <pt x="420" y="363" on="0"/>
        <pt x="420" y="374" on="1"/>
        <pt x="420" y="406" on="0"/>
        <pt x="366" y="448" on="0"/>
      </contour>
      <contour>
        <pt x="151" y="140" on="1"/>
        <pt x="151" y="114" on="0"/>
        <pt x="188" y="78" on="0"/>
        <pt x="228" y="78" on="1"/>
        <pt x="268" y="78" on="0"/>
        <pt x="346" y="115" on="0"/>
        <pt x="374" y="138" on="1"/>
        <pt x="396" y="244" on="1"/>
        <pt x="302" y="245" on="0"/>
        <pt x="196" y="219" on="0"/>
        <pt x="174" y="197" on="1"/>
        <pt x="160" y="183" on="0"/>
        <pt x="151" y="153" on="0"/>
      </contour>
    </TTGlyph>
    <TTGlyph name="a.sc" xMin="-6" yMin="0" xMax="639" yMax="590">
      <contour>
        <pt x="519" y="0" on="1"/>
        <pt x="502" y="132" on="1"/>
        <pt x="202" y="132" on="1"/>
        <pt x="126" y="0" on="1"/>
        <pt x="-6" y="0" on="1"/>
        <pt x="338" y="590" on="1"/>
        <pt x="547" y="590" on="1"/>
        <pt x="639" y="0" on="1"/>
      </contour>
      <contour>
        <pt x="405" y="483" on="1"/>
        <pt x="260" y="233" on="1"/>
        <pt x="488" y="233" on="1"/>
        <pt x="453" y="483" on="1"/>
      </contour>
    </TTGlyph>
    <TTGlyph name="aacute" xMin="32" yMin="-14" xMax="615" yMax="803">
      <component glyphName="a" x="0" y="0" flags="0x204"/>
      <component glyphName="acute" x="89" y="15" flags="0x4"/>
    </TTGlyph>
    <TTGlyph name="aacute.sc" xMin="-6" yMin="0" xMax="710" yMax="842">
      <component glyphName="a.sc" x="0" y="0" flags="0x204"/>
      <component glyphName="acute" x="184" y="54" flags="0x4"/>
    </TTGlyph>
    <TTGlyph name="abreve" xMin="32" yMin="-14" xMax="569" yMax="819">
      <component glyphName="a" x="0" y="0" flags="0x204"/>
      <component glyphName="breve" x="36" y="15" flags="0x4"/>
    </TTGlyph>
    <TTGlyph name="abreve.sc" xMin="-6" yMin="0" xMax="664" yMax="858">
      <component glyphName="a.sc" x="0" y="0" flags="0x204"/>
      <component glyphName="breve" x="131" y="54" flags="0x4"/>
    </TTGlyph>
    <TTGlyph name="acircumflex" xMin="32" yMin="-14" xMax="578" yMax="816">
      <component glyphName="a" x="0" y="0" flags="0x204"/>
      <component glyphName="circumflex" x="36" y="15" flags="0x4"/>
    </TTGlyph>
    <TTGlyph name="acircumflex.sc" xMin="-6" yMin="0" xMax="673" yMax="855">
      <component glyphName="a.sc" x="0" y="0" flags="0x204"/>
      <component glyphName="circumflex" x="131" y="54" flags="0x4"/>
    </TTGlyph>
    <TTGlyph name="acute" xMin="204" yMin="624" xMax="526" yMax="788">
      <contour>
        <pt x="320" y="624" on="1"/>
        <pt x="204" y="624" on="1"/>
        <pt x="364" y="788" on="1"/>
        <pt x="526" y="788" on="1"/>
        <pt x="524" y="782" on="1"/>
      </contour>
    </TTGlyph>
    <TTGlyph name="adieresis" xMin="32" yMin="-14" xMax="578" yMax="771">
      <component glyphName="a" x="0" y="0" flags="0x204"/>
      <component glyphName="dieresis" x="35" y="15" flags="0x4"/>
    </TTGlyph>
    <TTGlyph name="adieresis.sc" xMin="-6" yMin="0" xMax="674" yMax="810">
      <component glyphName="a.sc" x="0" y="0" flags="0x204"/>
      <component glyphName="dieresis" x="131" y="54" flags="0x4"/>
    </TTGlyph>
    <TTGlyph name="ae" xMin="30" yMin="-15" xMax="903" yMax="551">
      <contour>
        <pt x="697" y="551" on="1"/>
        <pt x="790" y="551" on="0"/>
        <pt x="903" y="441" on="0"/>
        <pt x="903" y="345" on="1"/>
        <pt x="903" y="320" on="0"/>
        <pt x="894" y="267" on="0"/>
        <pt x="886" y="239" on="1"/>
        <pt x="515" y="239" on="1"/>
        <pt x="513" y="226" on="1"/>
        <pt x="514" y="148" on="0"/>
        <pt x="601" y="85" on="0"/>
        <pt x="667" y="85" on="1"/>
        <pt x="723" y="85" on="0"/>
        <pt x="818" y="119" on="0"/>
        <pt x="856" y="144" on="1"/>
        <pt x="857" y="144" on="1"/>
        <pt x="834" y="34" on="1"/>
        <pt x="803" y="15" on="0"/>
        <pt x="712" y="-15" on="0"/>
        <pt x="651" y="-15" on="1"/>
        <pt x="575" y="-15" on="0"/>
        <pt x="463" y="40" on="0"/>
        <pt x="432" y="91" on="1"/>
        <pt x="381" y="45" on="0"/>
        <pt x="264" y="-14" on="0"/>
        <pt x="195" y="-14" on="1"/>
        <pt x="116" y="-14" on="0"/>
        <pt x="30" y="63" on="0"/>
        <pt x="30" y="124" on="1"/>
        <pt x="30" y="151" on="0"/>
        <pt x="49" y="214" on="0"/>
        <pt x="77" y="242" on="1"/>
        <pt x="114" y="279" on="0"/>
        <pt x="259" y="322" on="0"/>
        <pt x="383" y="322" on="1"/>
        <pt x="390" y="322" on="0"/>
        <pt x="404" y="322" on="0"/>
        <pt x="411" y="321" on="1"/>
        <pt x="415" y="338" on="0"/>
        <pt x="418" y="361" on="0"/>
        <pt x="418" y="374" on="1"/>
        <pt x="418" y="406" on="0"/>
        <pt x="365" y="448" on="0"/>
        <pt x="308" y="448" on="1"/>
        <pt x="266" y="448" on="0"/>
        <pt x="164" y="422" on="0"/>
        <pt x="118" y="396" on="1"/>
        <pt x="117" y="396" on="1"/>
        <pt x="140" y="509" on="1"/>
        <pt x="184" y="529" on="0"/>
        <pt x="283" y="551" on="0"/>
        <pt x="335" y="551" on="1"/>
        <pt x="404" y="551" on="0"/>
        <pt x="486" y="507" on="0"/>
        <pt x="506" y="472" on="1"/>
        <pt x="544" y="509" on="0"/>
        <pt x="643" y="551" on="0"/>
      </contour>
      <contour>
        <pt x="687" y="453" on="1"/>
        <pt x="630" y="452" on="0"/>
        <pt x="543" y="377" on="0"/>
        <pt x="526" y="317" on="1"/>
        <pt x="791" y="317" on="1"/>
        <pt x="792" y="325" on="0"/>
        <pt x="793" y="342" on="0"/>
        <pt x="793" y="349" on="1"/>
        <pt x="793" y="397" on="0"/>
        <pt x="741" y="454" on="0"/>
      </contour>
      <contour>
        <pt x="149" y="140" on="1"/>
        <pt x="149" y="112" on="0"/>
        <pt x="188" y="78" on="0"/>
        <pt x="228" y="78" on="1"/>
        <pt x="279" y="78" on="0"/>
        <pt x="367" y="127" on="0"/>
        <pt x="405" y="158" on="1"/>
        <pt x="401" y="174" on="0"/>
        <pt x="398" y="207" on="0"/>
        <pt x="398" y="225" on="1"/>
        <pt x="398" y="229" on="0"/>
        <pt x="398" y="239" on="0"/>
        <pt x="398" y="243" on="1"/>
        <pt x="300" y="243" on="0"/>
        <pt x="195" y="218" on="0"/>
        <pt x="172" y="195" on="1"/>
        <pt x="159" y="182" on="0"/>
        <pt x="149" y="153" on="0"/>
      </contour>
    </TTGlyph>
    <TTGlyph name="ae.sc" xMin="-31" yMin="0" xMax="1055" yMax="589">
      <contour>
        <pt x="981" y="103" on="1"/>
        <pt x="950" y="0" on="1"/>
        <pt x="467" y="0" on="1"/>
        <pt x="497" y="140" on="1"/>
        <pt x="226" y="140" on="1"/>
        <pt x="114" y="0" on="1"/>
        <pt x="-31" y="0" on="1"/>
        <pt x="451" y="589" on="1"/>
        <pt x="1055" y="589" on="1"/>
        <pt x="1046" y="487" on="1"/>
        <pt x="689" y="487" on="1"/>
        <pt x="659" y="348" on="1"/>
        <pt x="946" y="348" on="1"/>
        <pt x="925" y="249" on="1"/>
        <pt x="638" y="249" on="1"/>
        <pt x="607" y="103" on="1"/>
      </contour>
      <contour>
        <pt x="503" y="485" on="1"/>
        <pt x="307" y="241" on="1"/>
        <pt x="519" y="241" on="1"/>
        <pt x="571" y="485" on="1"/>
      </contour>
    </TTGlyph>
    <TTGlyph name="aeacute" xMin="30" yMin="-15" xMax="903" yMax="788">
      <component glyphName="ae" x="0" y="0" flags="0x204"/>
      <component glyphName="acute" x="266" y="0" flags="0x4"/>
    </TTGlyph>
    <TTGlyph name="aeacute.sc" xMin="-31" yMin="0" xMax="1055" yMax="841">
      <component glyphName="ae.sc" x="0" y="0" flags="0x204"/>
      <component glyphName="acute" x="412" y="53" flags="0x4"/>
    </TTGlyph>
    <TTGlyph name="agrave" xMin="32" yMin="-14" xMax="539" yMax="803">
      <component glyphName="a" x="0" y="0" flags="0x204"/>
      <component glyphName="grave" x="-19" y="15" flags="0x4"/>
    </TTGlyph>
    <TTGlyph name="agrave.sc" xMin="-6" yMin="0" xMax="639" yMax="842">
      <component glyphName="a.sc" x="0" y="0" flags="0x204"/>
      <component glyphName="grave" x="76" y="54" flags="0x4"/>
    </TTGlyph>
    <TTGlyph name="amacron" xMin="32" yMin="-14" xMax="570" yMax="748">
      <component glyphName="a" x="0" y="0" flags="0x204"/>
      <component glyphName="macron" x="35" y="15" flags="0x4"/>
    </TTGlyph>
    <TTGlyph name="amacron.sc" xMin="-6" yMin="0" xMax="666" yMax="787">
      <component glyphName="a.sc" x="0" y="0" flags="0x204"/>
      <component glyphName="macron" x="131" y="54" flags="0x4"/>
    </TTGlyph>
    <TTGlyph name="ampersand" xMin="37" yMin="-16" xMax="791" yMax="700">
      <contour>
        <pt x="240" y="-16" on="1"/>
        <pt x="146" y="-16" on="0"/>
        <pt x="37" y="76" on="0"/>
        <pt x="37" y="155" on="1"/>
        <pt x="37" y="201" on="0"/>
        <pt x="76" y="278" on="0"/>
        <pt x="147" y="346" on="0"/>
        <pt x="246" y="409" on="0"/>
        <pt x="305" y="442" on="1"/>
        <pt x="200" y="587" on="1"/>
        <pt x="223" y="700" on="1"/>
        <pt x="711" y="700" on="1"/>
        <pt x="703" y="596" on="1"/>
        <pt x="334" y="596" on="1"/>
        <pt x="571" y="264" on="1"/>
        <pt x="619" y="301" on="0"/>
        <pt x="741" y="399" on="0"/>
        <pt x="790" y="439" on="1"/>
        <pt x="791" y="439" on="1"/>
        <pt x="758" y="285" on="1"/>
        <pt x="734" y="266" on="0"/>
        <pt x="661" y="206" on="0"/>
        <pt x="628" y="181" on="1"/>
        <pt x="755" y="0" on="1"/>
        <pt x="622" y="0" on="1"/>
        <pt x="542" y="112" on="1"/>
        <pt x="466" y="55" on="0"/>
        <pt x="321" y="-16" on="0"/>
      </contour>
      <contour>
        <pt x="160" y="169" on="1"/>
        <pt x="160" y="133" on="0"/>
        <pt x="209" y="91" on="0"/>
        <pt x="253" y="91" on="1"/>
        <pt x="302" y="91" on="0"/>
        <pt x="414" y="146" on="0"/>
        <pt x="483" y="196" on="1"/>
        <pt x="364" y="360" on="1"/>
        <pt x="358" y="356" on="1"/>
        <pt x="266" y="305" on="0"/>
        <pt x="160" y="218" on="0"/>
      </contour>
    </TTGlyph>
    <TTGlyph name="ampersand.sc" xMin="37" yMin="-16" xMax="721" yMax="589">
      <contour>
        <pt x="644" y="589" on="1"/>
        <pt x="638" y="494" on="1"/>
        <pt x="311" y="494" on="1"/>
        <pt x="517" y="224" on="1"/>
        <pt x="562" y="255" on="0"/>
        <pt x="677" y="334" on="0"/>
        <pt x="720" y="368" on="1"/>
        <pt x="721" y="368" on="1"/>
        <pt x="691" y="228" on="1"/>
        <pt x="675" y="216" on="0"/>
        <pt x="605" y="167" on="0"/>
        <pt x="574" y="146" on="1"/>
        <pt x="688" y="0" on="1"/>
        <pt x="559" y="0" on="1"/>
        <pt x="489" y="87" on="1"/>
        <pt x="419" y="43" on="0"/>
        <pt x="285" y="-16" on="0"/>
        <pt x="218" y="-16" on="1"/>
        <pt x="133" y="-16" on="0"/>
        <pt x="37" y="62" on="0"/>
        <pt x="37" y="128" on="1"/>
        <pt x="37" y="204" on="0"/>
        <pt x="158" y="308" on="0"/>
        <pt x="262" y="362" on="1"/>
        <pt x="274" y="368" on="1"/>
        <pt x="182" y="486" on="1"/>
        <pt x="204" y="589" on="1"/>
      </contour>
      <contour>
        <pt x="155" y="142" on="1"/>
        <pt x="155" y="113" on="0"/>
        <pt x="193" y="84" on="0"/>
        <pt x="228" y="84" on="1"/>
        <pt x="270" y="84" on="0"/>
        <pt x="371" y="127" on="0"/>
        <pt x="431" y="166" on="1"/>
        <pt x="331" y="294" on="1"/>
        <pt x="326" y="292" on="1"/>
        <pt x="244" y="248" on="0"/>
        <pt x="155" y="181" on="0"/>
      </contour>
    </TTGlyph>
    <TTGlyph name="aogonek" xMin="32" yMin="-289" xMax="539" yMax="551">
      <contour>
        <pt x="309" y="448" on="1"/>
        <pt x="268" y="448" on="0"/>
        <pt x="165" y="422" on="0"/>
        <pt x="120" y="396" on="1"/>
        <pt x="119" y="396" on="1"/>
        <pt x="141" y="509" on="1"/>
        <pt x="186" y="529" on="0"/>
        <pt x="285" y="551" on="0"/>
        <pt x="337" y="551" on="1"/>
        <pt x="438" y="551" on="0"/>
        <pt x="539" y="465" on="0"/>
        <pt x="539" y="387" on="1"/>
        <pt x="539" y="368" on="0"/>
        <pt x="533" y="328" on="0"/>
        <pt x="528" y="303" on="1"/>
        <pt x="464" y="0" on="1"/>
        <pt x="397" y="-54" on="1"/>
        <pt x="347" y="-94" on="0"/>
        <pt x="306" y="-142" on="0"/>
        <pt x="306" y="-163" on="1"/>
        <pt x="306" y="-179" on="0"/>
        <pt x="331" y="-198" on="0"/>
        <pt x="359" y="-198" on="1"/>
        <pt x="378" y="-198" on="0"/>
        <pt x="423" y="-187" on="0"/>
        <pt x="448" y="-176" on="1"/>
        <pt x="429" y="-265" on="1"/>
        <pt x="405" y="-278" on="0"/>
        <pt x="354" y="-289" on="0"/>
        <pt x="326" y="-289" on="1"/>
        <pt x="263" y="-289" on="0"/>
        <pt x="193" y="-230" on="0"/>
        <pt x="193" y="-187" on="1"/>
        <pt x="193" y="-139" on="0"/>
        <pt x="268" y="-53" on="0"/>
        <pt x="330" y="-6" on="1"/>
        <pt x="360" y="16" on="1"/>
        <pt x="367" y="63" on="1"/>
        <pt x="332" y="26" on="0"/>
        <pt x="241" y="-14" on="0"/>
        <pt x="190" y="-14" on="1"/>
        <pt x="117" y="-14" on="0"/>
        <pt x="32" y="62" on="0"/>
        <pt x="32" y="124" on="1"/>
        <pt x="32" y="151" on="0"/>
        <pt x="51" y="215" on="0"/>
        <pt x="79" y="243" on="1"/>
        <pt x="116" y="280" on="0"/>
        <pt x="258" y="322" on="0"/>
        <pt x="379" y="322" on="1"/>
        <pt x="387" y="322" on="0"/>
        <pt x="404" y="322" on="0"/>
        <pt x="413" y="322" on="1"/>
        <pt x="413" y="322" on="1"/>
        <pt x="417" y="338" on="0"/>
        <pt x="420" y="363" on="0"/>
        <pt x="420" y="374" on="1"/>
        <pt x="420" y="406" on="0"/>
        <pt x="366" y="448" on="0"/>
      </contour>
      <contour>
        <pt x="151" y="140" on="1"/>
        <pt x="151" y="114" on="0"/>
        <pt x="188" y="78" on="0"/>
        <pt x="228" y="78" on="1"/>
        <pt x="268" y="78" on="0"/>
        <pt x="346" y="115" on="0"/>
        <pt x="374" y="138" on="1"/>
        <pt x="396" y="244" on="1"/>
        <pt x="302" y="245" on="0"/>
        <pt x="196" y="219" on="0"/>
        <pt x="174" y="197" on="1"/>
        <pt x="160" y="183" on="0"/>
        <pt x="151" y="153" on="0"/>
      </contour>
    </TTGlyph>
    <TTGlyph name="aogonek.sc" xMin="-6" yMin="-289" xMax="639" yMax="590">
      <contour>
        <pt x="605" y="-265" on="1"/>
        <pt x="581" y="-277" on="0"/>
        <pt x="531" y="-289" on="0"/>
        <pt x="503" y="-289" on="1"/>
        <pt x="439" y="-289" on="0"/>
        <pt x="368" y="-230" on="0"/>
        <pt x="368" y="-187" on="1"/>
        <pt x="368" y="-141" on="0"/>
        <pt x="442" y="-55" on="0"/>
        <pt x="506" y="-6" on="1"/>
        <pt x="518" y="3" on="1"/>
        <pt x="502" y="132" on="1"/>
        <pt x="202" y="132" on="1"/>
        <pt x="126" y="0" on="1"/>
        <pt x="-6" y="0" on="1"/>
        <pt x="338" y="590" on="1"/>
        <pt x="547" y="590" on="1"/>
        <pt x="639" y="0" on="1"/>
        <pt x="572" y="-54" on="1"/>
        <pt x="520" y="-96" on="0"/>
        <pt x="482" y="-143" on="0"/>
        <pt x="482" y="-162" on="1"/>
        <pt x="482" y="-178" on="0"/>
        <pt x="507" y="-198" on="0"/>
        <pt x="536" y="-198" on="1"/>
        <pt x="555" y="-198" on="0"/>
        <pt x="599" y="-187" on="0"/>
        <pt x="624" y="-176" on="1"/>
      </contour>
      <contour>
        <pt x="405" y="483" on="1"/>
        <pt x="260" y="233" on="1"/>
        <pt x="488" y="233" on="1"/>
        <pt x="453" y="483" on="1"/>
      </contour>
    </TTGlyph>
    <TTGlyph name="aring" xMin="32" yMin="-14" xMax="554" yMax="920">
      <component glyphName="a" x="0" y="0" flags="0x204"/>
      <component glyphName="ring" x="-20" y="15" flags="0x4"/>
    </TTGlyph>
    <TTGlyph name="aring.sc" xMin="-6" yMin="0" xMax="649" yMax="959">
      <component glyphName="a.sc" x="0" y="0" flags="0x204"/>
      <component glyphName="ring" x="75" y="54" flags="0x4"/>
    </TTGlyph>
    <TTGlyph name="aringacute" xMin="32" yMin="-14" xMax="687" yMax="1145">
      <component glyphName="a" x="0" y="0" flags="0x204"/>
      <component glyphName="ring" x="-20" y="15" flags="0x4"/>
      <component glyphName="acute" x="161" y="357" flags="0x4"/>
    </TTGlyph>
    <TTGlyph name="aringacute.sc" xMin="-6" yMin="0" xMax="783" yMax="1183">
      <component glyphName="a.sc" x="0" y="0" flags="0x204"/>
      <component glyphName="ring" x="75" y="54" flags="0x4"/>
      <component glyphName="acute" x="257" y="395" flags="0x4"/>
    </TTGlyph>
    <TTGlyph name="asciicircum" xMin="95" yMin="362" xMax="642" yMax="700">
      <contour>
        <pt x="524" y="700" on="1"/>
        <pt x="642" y="362" on="1"/>
        <pt x="522" y="362" on="1"/>
        <pt x="450" y="586" on="1"/>
        <pt x="401" y="586" on="1"/>
        <pt x="235" y="362" on="1"/>
        <pt x="95" y="362" on="1"/>
        <pt x="352" y="700" on="1"/>
      </contour>
    </TTGlyph>
    <TTGlyph name="asciicircum.tab" xMin="110" yMin="362" xMax="657" yMax="700">
      <component glyphName="asciicircum" x="15" y="0" flags="0x4"/>
    </TTGlyph>
    <TTGlyph name="asciitilde" xMin="89" yMin="235" xMax="682" yMax="466">
      <contour>
        <pt x="502" y="242" on="1"/>
        <pt x="468" y="242" on="0"/>
        <pt x="405" y="270" on="0"/>
        <pt x="365" y="295" on="1"/>
        <pt x="327" y="319" on="0"/>
        <pt x="283" y="340" on="0"/>
        <pt x="257" y="340" on="1"/>
        <pt x="216" y="340" on="0"/>
        <pt x="135" y="285" on="0"/>
        <pt x="90" y="235" on="1"/>
        <pt x="89" y="235" on="1"/>
        <pt x="120" y="384" on="1"/>
        <pt x="153" y="418" on="0"/>
        <pt x="225" y="459" on="0"/>
        <pt x="269" y="459" on="1"/>
        <pt x="303" y="459" on="0"/>
        <pt x="365" y="431" on="0"/>
        <pt x="405" y="406" on="1"/>
        <pt x="444" y="382" on="0"/>
        <pt x="488" y="360" on="0"/>
        <pt x="514" y="360" on="1"/>
        <pt x="555" y="360" on="0"/>
        <pt x="635" y="416" on="0"/>
        <pt x="681" y="466" on="1"/>
        <pt x="682" y="466" on="1"/>
        <pt x="650" y="316" on="1"/>
        <pt x="618" y="282" on="0"/>
        <pt x="545" y="242" on="0"/>
      </contour>
    </TTGlyph>
    <TTGlyph name="asciitilde.tab" xMin="86" yMin="235" xMax="679" yMax="466">
      <component glyphName="asciitilde" x="-3" y="0" flags="0x4"/>
    </TTGlyph>
    <TTGlyph name="asterisk" xMin="125" yMin="328" xMax="500" yMax="708">
      <contour>
        <pt x="359" y="332" on="1"/>
        <pt x="334" y="328" on="1"/>
        <pt x="287" y="425" on="1"/>
        <pt x="199" y="370" on="1"/>
        <pt x="177" y="387" on="1"/>
        <pt x="223" y="483" on="1"/>
        <pt x="125" y="518" on="1"/>
        <pt x="127" y="546" on="1"/>
        <pt x="232" y="571" on="1"/>
        <pt x="198" y="670" on="1"/>
        <pt x="219" y="684" on="1"/>
        <pt x="302" y="620" on="1"/>
        <pt x="359" y="708" on="1"/>
        <pt x="386" y="699" on="1"/>
        <pt x="387" y="592" on="1"/>
        <pt x="491" y="602" on="1"/>
        <pt x="500" y="578" on="1"/>
        <pt x="417" y="511" on="1"/>
        <pt x="490" y="436" on="1"/>
        <pt x="476" y="413" on="1"/>
        <pt x="371" y="436" on="1"/>
      </contour>
    </TTGlyph>
    <TTGlyph name="at" xMin="101" yMin="-111" xMax="988" yMax="769">
      <contour>
        <pt x="766" y="118" on="1"/>
        <pt x="710" y="118" on="0"/>
        <pt x="645" y="159" on="0"/>
        <pt x="632" y="192" on="1"/>
        <pt x="603" y="161" on="0"/>
        <pt x="525" y="122" on="0"/>
        <pt x="478" y="122" on="1"/>
        <pt x="420" y="122" on="0"/>
        <pt x="355" y="181" on="0"/>
        <pt x="355" y="228" on="1"/>
        <pt x="355" y="249" on="0"/>
        <pt x="369" y="297" on="0"/>
        <pt x="391" y="319" on="1"/>
        <pt x="420" y="348" on="0"/>
        <pt x="535" y="383" on="0"/>
        <pt x="646" y="384" on="1"/>
        <pt x="646" y="384" on="1"/>
        <pt x="647" y="392" on="0"/>
        <pt x="650" y="408" on="0"/>
        <pt x="650" y="415" on="1"/>
        <pt x="650" y="443" on="0"/>
        <pt x="608" y="471" on="0"/>
        <pt x="570" y="471" on="1"/>
        <pt x="537" y="471" on="0"/>
        <pt x="458" y="451" on="0"/>
        <pt x="421" y="431" on="1"/>
        <pt x="420" y="431" on="1"/>
        <pt x="440" y="524" on="1"/>
        <pt x="474" y="540" on="0"/>
        <pt x="546" y="556" on="0"/>
        <pt x="586" y="556" on="1"/>
        <pt x="664" y="556" on="0"/>
        <pt x="746" y="487" on="0"/>
        <pt x="746" y="424" on="1"/>
        <pt x="746" y="411" on="0"/>
        <pt x="742" y="382" on="0"/>
        <pt x="739" y="367" on="1"/>
        <pt x="720" y="279" on="1"/>
        <pt x="719" y="271" on="0"/>
        <pt x="716" y="253" on="0"/>
        <pt x="716" y="246" on="1"/>
        <pt x="717" y="220" on="0"/>
        <pt x="747" y="197" on="0"/>
        <pt x="772" y="197" on="1"/>
        <pt x="801" y="197" on="0"/>
        <pt x="847" y="233" on="0"/>
        <pt x="879" y="295" on="0"/>
        <pt x="896" y="381" on="0"/>
        <pt x="896" y="430" on="1"/>
        <pt x="897" y="547" on="0"/>
        <pt x="736" y="682" on="0"/>
        <pt x="599" y="682" on="1"/>
        <pt x="495" y="682" on="0"/>
        <pt x="343" y="607" on="0"/>
        <pt x="245" y="487" on="0"/>
        <pt x="198" y="333" on="0"/>
        <pt x="198" y="255" on="1"/>
        <pt x="198" y="183" on="0"/>
        <pt x="244" y="77" on="0"/>
        <pt x="328" y="9" on="0"/>
        <pt x="448" y="-24" on="0"/>
        <pt x="520" y="-24" on="1"/>
        <pt x="596" y="-24" on="0"/>
        <pt x="721" y="7" on="0"/>
        <pt x="782" y="32" on="1"/>
        <pt x="762" y="-63" on="1"/>
        <pt x="705" y="-85" on="0"/>
        <pt x="574" y="-111" on="0"/>
        <pt x="516" y="-111" on="1"/>
        <pt x="422" y="-111" on="0"/>
        <pt x="267" y="-64" on="0"/>
        <pt x="160" y="26" on="0"/>
        <pt x="101" y="161" on="0"/>
        <pt x="101" y="249" on="1"/>
        <pt x="101" y="344" on="0"/>
        <pt x="161" y="531" on="0"/>
        <pt x="285" y="678" on="0"/>
        <pt x="475" y="769" on="0"/>
        <pt x="604" y="769" on="1"/>
        <pt x="693" y="769" on="0"/>
        <pt x="836" y="721" on="0"/>
        <pt x="935" y="632" on="0"/>
        <pt x="988" y="504" on="0"/>
        <pt x="988" y="425" on="1"/>
        <pt x="988" y="369" on="0"/>
        <pt x="963" y="259" on="0"/>
        <pt x="909" y="172" on="0"/>
        <pt x="825" y="118" on="0"/>
      </contour>
      <contour>
        <pt x="511" y="198" on="1"/>
        <pt x="541" y="198" on="0"/>
        <pt x="594" y="224" on="0"/>
        <pt x="616" y="242" on="1"/>
        <pt x="632" y="319" on="1"/>
        <pt x="562" y="317" on="0"/>
        <pt x="486" y="297" on="0"/>
        <pt x="470" y="281" on="1"/>
        <pt x="460" y="271" on="0"/>
        <pt x="453" y="249" on="0"/>
        <pt x="453" y="239" on="1"/>
        <pt x="453" y="220" on="0"/>
        <pt x="481" y="198" on="0"/>
      </contour>
    </TTGlyph>
    <TTGlyph name="at.cap" xMin="105" yMin="-91" xMax="992" yMax="789">
      <component glyphName="at" x="4" y="20" flags="0x4"/>
    </TTGlyph>
    <TTGlyph name="atilde" xMin="32" yMin="-14" xMax="575" yMax="788">
      <component glyphName="a" x="0" y="0" flags="0x204"/>
      <component glyphName="tilde" x="36" y="15" flags="0x4"/>
    </TTGlyph>
    <TTGlyph name="atilde.sc" xMin="-6" yMin="0" xMax="670" yMax="827">
      <component glyphName="a.sc" x="0" y="0" flags="0x204"/>
      <component glyphName="tilde" x="131" y="54" flags="0x4"/>
    </TTGlyph>
    <TTGlyph name="b" xMin="38" yMin="-15" xMax="603" yMax="754">
      <contour>
        <pt x="313" y="754" on="1"/>
        <pt x="256" y="482" on="1"/>
        <pt x="285" y="510" on="0"/>
        <pt x="363" y="548" on="0"/>
        <pt x="412" y="548" on="1"/>
        <pt x="450" y="548" on="0"/>
        <pt x="520" y="522" on="0"/>
        <pt x="572" y="469" on="0"/>
        <pt x="603" y="389" on="0"/>
        <pt x="603" y="335" on="1"/>
        <pt x="603" y="264" on="0"/>
        <pt x="557" y="136" on="0"/>
        <pt x="474" y="41" on="0"/>
        <pt x="357" y="-15" on="0"/>
        <pt x="287" y="-15" on="1"/>
        <pt x="248" y="-15" on="0"/>
        <pt x="171" y="5" on="0"/>
        <pt x="135" y="23" on="1"/>
        <pt x="38" y="23" on="1"/>
        <pt x="193" y="754" on="1"/>
      </contour>
      <contour>
        <pt x="290" y="87" on="1"/>
        <pt x="335" y="87" on="0"/>
        <pt x="407" y="127" on="0"/>
        <pt x="457" y="192" on="0"/>
        <pt x="484" y="278" on="0"/>
        <pt x="484" y="323" on="1"/>
        <pt x="484" y="389" on="0"/>
        <pt x="419" y="448" on="0"/>
        <pt x="370" y="448" on="1"/>
        <pt x="333" y="448" on="0"/>
        <pt x="262" y="417" on="0"/>
        <pt x="236" y="393" on="1"/>
        <pt x="178" y="121" on="1"/>
        <pt x="203" y="104" on="0"/>
        <pt x="262" y="87" on="0"/>
      </contour>
    </TTGlyph>
    <TTGlyph name="b.sc" xMin="51" yMin="0" xMax="662" yMax="589">
      <contour>
        <pt x="51" y="0" on="1"/>
        <pt x="177" y="589" on="1"/>
        <pt x="465" y="589" on="1"/>
        <pt x="565" y="589" on="0"/>
        <pt x="662" y="515" on="0"/>
        <pt x="662" y="449" on="1"/>
        <pt x="662" y="393" on="0"/>
        <pt x="595" y="317" on="0"/>
        <pt x="529" y="298" on="1"/>
        <pt x="572" y="285" on="0"/>
        <pt x="625" y="224" on="0"/>
        <pt x="625" y="178" on="1"/>
        <pt x="625" y="94" on="0"/>
        <pt x="494" y="0" on="0"/>
        <pt x="381" y="0" on="1"/>
      </contour>
      <contour>
        <pt x="244" y="347" on="1"/>
        <pt x="436" y="347" on="1"/>
        <pt x="489" y="347" on="0"/>
        <pt x="546" y="390" on="0"/>
        <pt x="546" y="426" on="1"/>
        <pt x="546" y="458" on="0"/>
        <pt x="501" y="487" on="0"/>
        <pt x="455" y="487" on="1"/>
        <pt x="273" y="487" on="1"/>
      </contour>
      <contour>
        <pt x="225" y="255" on="1"/>
        <pt x="192" y="102" on="1"/>
        <pt x="385" y="102" on="1"/>
        <pt x="448" y="102" on="0"/>
        <pt x="506" y="151" on="0"/>
        <pt x="506" y="188" on="1"/>
        <pt x="506" y="219" on="0"/>
        <pt x="460" y="255" on="0"/>
        <pt x="409" y="255" on="1"/>
      </contour>
    </TTGlyph>
    <TTGlyph name="backslash" xMin="150" yMin="-194" xMax="375" yMax="754">
      <contour>
        <pt x="375" y="-194" on="1"/>
        <pt x="268" y="-194" on="1"/>
        <pt x="150" y="754" on="1"/>
        <pt x="257" y="754" on="1"/>
      </contour>
    </TTGlyph>
    <TTGlyph name="backslash.cap" xMin="169" yMin="-124" xMax="394" yMax="824">
      <component glyphName="backslash" x="19" y="70" flags="0x4"/>
    </TTGlyph>
    <TTGlyph name="bar" xMin="94" yMin="-194" xMax="406" yMax="754">
      <contour>
        <pt x="205" y="-194" on="1"/>
        <pt x="94" y="-194" on="1"/>
        <pt x="295" y="754" on="1"/>
        <pt x="406" y="754" on="1"/>
      </contour>
    </TTGlyph>
    <TTGlyph name="bar.cap" xMin="109" yMin="-124" xMax="421" yMax="824">
      <component glyphName="bar" x="15" y="70" flags="0x4"/>
    </TTGlyph>
    <TTGlyph name="bar.tab" xMin="45" yMin="-124" xMax="357" yMax="824">
      <component glyphName="bar.cap" x="-64" y="0" flags="0x4"/>
    </TTGlyph>
    <TTGlyph name="braceleft" xMin="28" yMin="-207" xMax="564" yMax="767">
      <contour>
        <pt x="28" y="290" on="1"/>
        <pt x="34" y="313" on="1"/>
        <pt x="201" y="432" on="1"/>
        <pt x="209" y="528" on="1"/>
        <pt x="214" y="596" on="0"/>
        <pt x="255" y="689" on="0"/>
        <pt x="316" y="744" on="0"/>
        <pt x="392" y="767" on="0"/>
        <pt x="433" y="767" on="1"/>
        <pt x="473" y="767" on="0"/>
        <pt x="530" y="756" on="0"/>
        <pt x="564" y="743" on="1"/>
        <pt x="543" y="640" on="1"/>
        <pt x="542" y="640" on="1"/>
        <pt x="520" y="650" on="0"/>
        <pt x="467" y="664" on="0"/>
        <pt x="442" y="664" on="1"/>
        <pt x="397" y="664" on="0"/>
        <pt x="329" y="602" on="0"/>
        <pt x="322" y="509" on="1"/>
        <pt x="311" y="380" on="1"/>
        <pt x="169" y="284" on="1"/>
        <pt x="266" y="176" on="1"/>
        <pt x="223" y="59" on="1"/>
        <pt x="214" y="36" on="0"/>
        <pt x="204" y="-8" on="0"/>
        <pt x="204" y="-26" on="1"/>
        <pt x="203" y="-72" on="0"/>
        <pt x="265" y="-104" on="0"/>
        <pt x="305" y="-104" on="1"/>
        <pt x="322" y="-104" on="0"/>
        <pt x="360" y="-99" on="0"/>
        <pt x="388" y="-94" on="1"/>
        <pt x="389" y="-94" on="1"/>
        <pt x="367" y="-196" on="1"/>
        <pt x="344" y="-202" on="0"/>
        <pt x="290" y="-207" on="0"/>
        <pt x="269" y="-207" on="1"/>
        <pt x="234" y="-207" on="0"/>
        <pt x="167" y="-189" on="0"/>
        <pt x="117" y="-151" on="0"/>
        <pt x="87" y="-92" on="0"/>
        <pt x="87" y="-51" on="1"/>
        <pt x="87" y="-13" on="0"/>
        <pt x="109" y="60" on="0"/>
        <pt x="123" y="98" on="1"/>
        <pt x="145" y="156" on="1"/>
      </contour>
    </TTGlyph>
    <TTGlyph name="braceleft.cap" xMin="43" yMin="-137" xMax="579" yMax="837">
      <component glyphName="braceleft" x="15" y="70" flags="0x4"/>
    </TTGlyph>
    <TTGlyph name="braceright" xMin="-45" yMin="-207" xMax="491" yMax="767">
      <contour>
        <pt x="491" y="270" on="1"/>
        <pt x="485" y="247" on="1"/>
        <pt x="318" y="128" on="1"/>
        <pt x="310" y="32" on="1"/>
        <pt x="305" y="-36" on="0"/>
        <pt x="264" y="-129" on="0"/>
        <pt x="203" y="-184" on="0"/>
        <pt x="127" y="-207" on="0"/>
        <pt x="86" y="-207" on="1"/>
        <pt x="46" y="-207" on="0"/>
        <pt x="-11" y="-196" on="0"/>
        <pt x="-45" y="-183" on="1"/>
        <pt x="-24" y="-80" on="1"/>
        <pt x="-23" y="-80" on="1"/>
        <pt x="-1" y="-90" on="0"/>
        <pt x="52" y="-104" on="0"/>
        <pt x="77" y="-104" on="1"/>
        <pt x="122" y="-104" on="0"/>
        <pt x="190" y="-42" on="0"/>
        <pt x="197" y="51" on="1"/>
        <pt x="208" y="180" on="1"/>
        <pt x="350" y="276" on="1"/>
        <pt x="253" y="384" on="1"/>
        <pt x="296" y="501" on="1"/>
        <pt x="305" y="524" on="0"/>
        <pt x="315" y="568" on="0"/>
        <pt x="315" y="586" on="1"/>
        <pt x="316" y="632" on="0"/>
        <pt x="254" y="664" on="0"/>
        <pt x="214" y="664" on="1"/>
        <pt x="197" y="664" on="0"/>
        <pt x="159" y="659" on="0"/>
        <pt x="131" y="654" on="1"/>
        <pt x="130" y="654" on="1"/>
        <pt x="152" y="756" on="1"/>
        <pt x="175" y="762" on="0"/>
        <pt x="229" y="767" on="0"/>
        <pt x="250" y="767" on="1"/>
        <pt x="285" y="767" on="0"/>
        <pt x="352" y="749" on="0"/>
        <pt x="402" y="711" on="0"/>
        <pt x="432" y="652" on="0"/>
        <pt x="432" y="611" on="1"/>
        <pt x="432" y="573" on="0"/>
        <pt x="410" y="500" on="0"/>
        <pt x="396" y="462" on="1"/>
        <pt x="374" y="404" on="1"/>
      </contour>
    </TTGlyph>
    <TTGlyph name="braceright.cap" xMin="-30" yMin="-137" xMax="506" yMax="837">
      <component glyphName="braceright" x="15" y="70" flags="0x4"/>
    </TTGlyph>
    <TTGlyph name="bracketleft" xMin="-10" yMin="-194" xMax="485" yMax="754">
      <contour>
        <pt x="-10" y="-194" on="1"/>
        <pt x="192" y="754" on="1"/>
        <pt x="485" y="754" on="1"/>
        <pt x="465" y="659" on="1"/>
        <pt x="287" y="659" on="1"/>
        <pt x="125" y="-99" on="1"/>
        <pt x="304" y="-99" on="1"/>
        <pt x="283" y="-194" on="1"/>
      </contour>
    </TTGlyph>
    <TTGlyph name="bracketleft.cap" xMin="5" yMin="-124" xMax="500" yMax="824">
      <component glyphName="bracketleft" x="15" y="70" flags="0x4"/>
    </TTGlyph>
    <TTGlyph name="bracketright" xMin="-50" yMin="-194" xMax="445" yMax="754">
      <contour>
        <pt x="445" y="754" on="1"/>
        <pt x="243" y="-194" on="1"/>
        <pt x="-50" y="-194" on="1"/>
        <pt x="-30" y="-99" on="1"/>
        <pt x="148" y="-99" on="1"/>
        <pt x="310" y="659" on="1"/>
        <pt x="131" y="659" on="1"/>
        <pt x="152" y="754" on="1"/>
      </contour>
    </TTGlyph>
    <TTGlyph name="bracketright.cap" xMin="-35" yMin="-124" xMax="460" yMax="824">
      <component glyphName="bracketright" x="15" y="70" flags="0x4"/>
    </TTGlyph>
    <TTGlyph name="breve" xMin="162" yMin="610" xMax="533" yMax="804">
      <contour>
        <pt x="178" y="804" on="1"/>
        <pt x="269" y="804" on="1"/>
        <pt x="262" y="787" on="0"/>
        <pt x="257" y="761" on="0"/>
        <pt x="257" y="751" on="1"/>
        <pt x="257" y="720" on="0"/>
        <pt x="301" y="697" on="0"/>
        <pt x="331" y="697" on="1"/>
        <pt x="371" y="697" on="0"/>
        <pt x="433" y="740" on="0"/>
        <pt x="434" y="803" on="1"/>
        <pt x="434" y="804" on="1"/>
        <pt x="533" y="804" on="1"/>
        <pt x="533" y="795" on="1"/>
        <pt x="533" y="706" on="0"/>
        <pt x="419" y="610" on="0"/>
        <pt x="326" y="610" on="1"/>
        <pt x="251" y="610" on="0"/>
        <pt x="162" y="672" on="0"/>
        <pt x="162" y="729" on="1"/>
        <pt x="162" y="745" on="0"/>
        <pt x="170" y="783" on="0"/>
      </contour>
    </TTGlyph>
    <TTGlyph name="bullet" xMin="84" yMin="189" xMax="360" yMax="452">
      <contour>
        <pt x="84" y="308" on="1"/>
        <pt x="84" y="365" on="0"/>
        <pt x="163" y="452" on="0"/>
        <pt x="235" y="452" on="1"/>
        <pt x="296" y="452" on="0"/>
        <pt x="360" y="382" on="0"/>
        <pt x="360" y="332" on="1"/>
        <pt x="360" y="274" on="0"/>
        <pt x="281" y="189" on="0"/>
        <pt x="209" y="189" on="1"/>
        <pt x="147" y="189" on="0"/>
        <pt x="84" y="258" on="0"/>
      </contour>
    </TTGlyph>
    <TTGlyph name="bullet.cap" xMin="90" yMin="219" xMax="366" yMax="482">
      <component glyphName="bullet" x="6" y="30" flags="0x4"/>
    </TTGlyph>
    <TTGlyph name="c" xMin="50" yMin="-15" xMax="532" yMax="551">
      <contour>
        <pt x="170" y="230" on="1"/>
        <pt x="170" y="160" on="0"/>
        <pt x="252" y="86" on="0"/>
        <pt x="318" y="86" on="1"/>
        <pt x="355" y="86" on="0"/>
        <pt x="429" y="109" on="0"/>
        <pt x="467" y="132" on="1"/>
        <pt x="468" y="132" on="1"/>
        <pt x="445" y="22" on="1"/>
        <pt x="407" y="2" on="0"/>
        <pt x="334" y="-15" on="0"/>
        <pt x="295" y="-15" on="1"/>
        <pt x="187" y="-15" on="0"/>
        <pt x="50" y="109" on="0"/>
        <pt x="50" y="220" on="1"/>
        <pt x="50" y="286" on="0"/>
        <pt x="94" y="407" on="0"/>
        <pt x="173" y="497" on="0"/>
        <pt x="287" y="551" on="0"/>
        <pt x="356" y="551" on="1"/>
        <pt x="415" y="551" on="0"/>
        <pt x="507" y="515" on="0"/>
        <pt x="532" y="493" on="1"/>
        <pt x="509" y="387" on="1"/>
        <pt x="508" y="387" on="1"/>
        <pt x="482" y="410" on="0"/>
        <pt x="409" y="448" on="0"/>
        <pt x="361" y="448" on="1"/>
        <pt x="318" y="448" on="0"/>
        <pt x="247" y="414" on="0"/>
        <pt x="197" y="356" on="0"/>
        <pt x="170" y="276" on="0"/>
      </contour>
    </TTGlyph>
    <TTGlyph name="c.sc" xMin="70" yMin="-15" xMax="646" yMax="603">
      <contour>
        <pt x="418" y="603" on="1"/>
        <pt x="494" y="603" on="0"/>
        <pt x="611" y="558" on="0"/>
        <pt x="646" y="530" on="1"/>
        <pt x="623" y="419" on="1"/>
        <pt x="622" y="419" on="1"/>
        <pt x="589" y="447" on="0"/>
        <pt x="488" y="497" on="0"/>
        <pt x="422" y="497" on="1"/>
        <pt x="370" y="497" on="0"/>
        <pt x="285" y="461" on="0"/>
        <pt x="225" y="399" on="0"/>
        <pt x="192" y="314" on="0"/>
        <pt x="192" y="267" on="1"/>
        <pt x="192" y="187" on="0"/>
        <pt x="291" y="91" on="0"/>
        <pt x="379" y="91" on="1"/>
        <pt x="439" y="91" on="0"/>
        <pt x="537" y="126" on="0"/>
        <pt x="574" y="145" on="1"/>
        <pt x="575" y="145" on="1"/>
        <pt x="550" y="29" on="1"/>
        <pt x="519" y="13" on="0"/>
        <pt x="422" y="-15" on="0"/>
        <pt x="358" y="-15" on="1"/>
        <pt x="291" y="-15" on="0"/>
        <pt x="183" y="26" on="0"/>
        <pt x="110" y="98" on="0"/>
        <pt x="70" y="199" on="0"/>
        <pt x="70" y="258" on="1"/>
        <pt x="70" y="327" on="0"/>
        <pt x="119" y="453" on="0"/>
        <pt x="208" y="547" on="0"/>
        <pt x="338" y="603" on="0"/>
      </contour>
    </TTGlyph>
    <TTGlyph name="cacute" xMin="50" yMin="-15" xMax="632" yMax="803">
      <component glyphName="c" x="0" y="0" flags="0x204"/>
      <component glyphName="acute" x="106" y="15" flags="0x4"/>
    </TTGlyph>
    <TTGlyph name="cacute.sc" xMin="70" yMin="-15" xMax="698" yMax="855">
      <component glyphName="c.sc" x="0" y="0" flags="0x204"/>
      <component glyphName="acute" x="172" y="67" flags="0x4"/>
    </TTGlyph>
    <TTGlyph name="caron" xMin="152" yMin="624" xMax="579" yMax="801">
      <contour>
        <pt x="579" y="801" on="1"/>
        <pt x="405" y="624" on="1"/>
        <pt x="251" y="624" on="1"/>
        <pt x="152" y="801" on="1"/>
        <pt x="267" y="801" on="1"/>
        <pt x="320" y="704" on="1"/>
        <pt x="354" y="704" on="1"/>
        <pt x="448" y="801" on="1"/>
      </contour>
    </TTGlyph>
    <TTGlyph name="caron.alt" xMin="262" yMin="591" xMax="423" yMax="766">
      <contour>
        <pt x="262" y="591" on="1"/>
        <pt x="299" y="766" on="1"/>
        <pt x="423" y="766" on="1"/>
        <pt x="421" y="754" on="1"/>
        <pt x="327" y="591" on="1"/>
      </contour>
    </TTGlyph>
    <TTGlyph name="ccaron" xMin="50" yMin="-15" xMax="633" yMax="816">
      <component glyphName="c" x="0" y="0" flags="0x204"/>
      <component glyphName="caron" x="54" y="15" flags="0x4"/>
    </TTGlyph>
    <TTGlyph name="ccaron.sc" xMin="70" yMin="-15" xMax="698" yMax="868">
      <component glyphName="c.sc" x="0" y="0" flags="0x204"/>
      <component glyphName="caron" x="119" y="67" flags="0x4"/>
    </TTGlyph>
    <TTGlyph name="ccedilla" xMin="48" yMin="-185" xMax="532" yMax="551">
      <contour>
        <pt x="170" y="230" on="1"/>
        <pt x="170" y="160" on="0"/>
        <pt x="252" y="86" on="0"/>
        <pt x="318" y="86" on="1"/>
        <pt x="355" y="86" on="0"/>
        <pt x="429" y="109" on="0"/>
        <pt x="467" y="132" on="1"/>
        <pt x="468" y="132" on="1"/>
        <pt x="445" y="22" on="1"/>
        <pt x="414" y="6" on="0"/>
        <pt x="355" y="-12" on="0"/>
        <pt x="324" y="-14" on="1"/>
        <pt x="199" y="-185" on="1"/>
        <pt x="48" y="-185" on="1"/>
        <pt x="50" y="-179" on="1"/>
        <pt x="225" y="-8" on="1"/>
        <pt x="146" y="10" on="0"/>
        <pt x="50" y="127" on="0"/>
        <pt x="50" y="220" on="1"/>
        <pt x="50" y="286" on="0"/>
        <pt x="94" y="407" on="0"/>
        <pt x="173" y="497" on="0"/>
        <pt x="287" y="551" on="0"/>
        <pt x="356" y="551" on="1"/>
        <pt x="415" y="551" on="0"/>
        <pt x="507" y="515" on="0"/>
        <pt x="532" y="493" on="1"/>
        <pt x="509" y="387" on="1"/>
        <pt x="508" y="387" on="1"/>
        <pt x="482" y="410" on="0"/>
        <pt x="409" y="448" on="0"/>
        <pt x="361" y="448" on="1"/>
        <pt x="318" y="448" on="0"/>
        <pt x="247" y="414" on="0"/>
        <pt x="197" y="356" on="0"/>
        <pt x="170" y="276" on="0"/>
      </contour>
    </TTGlyph>
    <TTGlyph name="ccedilla.sc" xMin="70" yMin="-185" xMax="646" yMax="603">
      <contour>
        <pt x="418" y="603" on="1"/>
        <pt x="494" y="603" on="0"/>
        <pt x="611" y="558" on="0"/>
        <pt x="646" y="530" on="1"/>
        <pt x="623" y="419" on="1"/>
        <pt x="622" y="419" on="1"/>
        <pt x="589" y="447" on="0"/>
        <pt x="488" y="497" on="0"/>
        <pt x="422" y="497" on="1"/>
        <pt x="370" y="497" on="0"/>
        <pt x="285" y="461" on="0"/>
        <pt x="225" y="399" on="0"/>
        <pt x="192" y="314" on="0"/>
        <pt x="192" y="267" on="1"/>
        <pt x="192" y="187" on="0"/>
        <pt x="291" y="91" on="0"/>
        <pt x="379" y="91" on="1"/>
        <pt x="439" y="91" on="0"/>
        <pt x="537" y="126" on="0"/>
        <pt x="574" y="145" on="1"/>
        <pt x="575" y="145" on="1"/>
        <pt x="550" y="29" on="1"/>
        <pt x="522" y="15" on="0"/>
        <pt x="439" y="-11" on="0"/>
        <pt x="385" y="-14" on="1"/>
        <pt x="260" y="-185" on="1"/>
        <pt x="109" y="-185" on="1"/>
        <pt x="111" y="-179" on="1"/>
        <pt x="286" y="-8" on="1"/>
        <pt x="184" y="11" on="0"/>
        <pt x="70" y="157" on="0"/>
        <pt x="70" y="258" on="1"/>
        <pt x="70" y="327" on="0"/>
        <pt x="119" y="453" on="0"/>
        <pt x="208" y="547" on="0"/>
        <pt x="338" y="603" on="0"/>
      </contour>
    </TTGlyph>
    <TTGlyph name="cdotaccent" xMin="50" yMin="-15" xMax="532" yMax="776">
      <component glyphName="c" x="0" y="0" flags="0x204"/>
      <component glyphName="dotaccent" x="53" y="15" flags="0x4"/>
    </TTGlyph>
    <TTGlyph name="cdotaccent.sc" xMin="70" yMin="-15" xMax="646" yMax="828">
      <component glyphName="c.sc" x="0" y="0" flags="0x204"/>
      <component glyphName="dotaccent" x="118" y="67" flags="0x4"/>
    </TTGlyph>
    <TTGlyph name="cedilla" xMin="-4" yMin="-185" xMax="281" yMax="-2">
      <contour>
        <pt x="281" y="-2" on="1"/>
        <pt x="147" y="-185" on="1"/>
        <pt x="-4" y="-185" on="1"/>
        <pt x="-2" y="-179" on="1"/>
        <pt x="179" y="-2" on="1"/>
      </contour>
    </TTGlyph>
    <TTGlyph name="cent" xMin="66" yMin="-38" xMax="526" yMax="716">
      <contour>
        <pt x="191" y="-38" on="1"/>
        <pt x="222" y="109" on="1"/>
        <pt x="153" y="129" on="0"/>
        <pt x="68" y="236" on="0"/>
        <pt x="67" y="316" on="1"/>
        <pt x="67" y="369" on="0"/>
        <pt x="102" y="468" on="0"/>
        <pt x="168" y="544" on="0"/>
        <pt x="262" y="595" on="0"/>
        <pt x="319" y="601" on="1"/>
        <pt x="343" y="716" on="1"/>
        <pt x="451" y="716" on="1"/>
        <pt x="425" y="595" on="1"/>
        <pt x="457" y="588" on="0"/>
        <pt x="509" y="564" on="0"/>
        <pt x="526" y="551" on="1"/>
        <pt x="504" y="449" on="1"/>
        <pt x="503" y="449" on="1"/>
        <pt x="477" y="470" on="0"/>
        <pt x="401" y="502" on="0"/>
        <pt x="358" y="502" on="1"/>
        <pt x="318" y="502" on="0"/>
        <pt x="253" y="474" on="0"/>
        <pt x="207" y="427" on="0"/>
        <pt x="183" y="362" on="0"/>
        <pt x="183" y="326" on="1"/>
        <pt x="184" y="263" on="0"/>
        <pt x="264" y="199" on="0"/>
        <pt x="324" y="199" on="1"/>
        <pt x="361" y="199" on="0"/>
        <pt x="432" y="219" on="0"/>
        <pt x="469" y="238" on="1"/>
        <pt x="470" y="238" on="1"/>
        <pt x="447" y="130" on="1"/>
        <pt x="420" y="117" on="0"/>
        <pt x="360" y="100" on="0"/>
        <pt x="327" y="99" on="1"/>
        <pt x="301" y="-25" on="1"/>
      </contour>
    </TTGlyph>
    <TTGlyph name="cent.tab" xMin="152" yMin="-38" xMax="629" yMax="716">
      <contour>
        <pt x="285" y="-38" on="1"/>
        <pt x="316" y="109" on="1"/>
        <pt x="244" y="128" on="0"/>
        <pt x="154" y="237" on="0"/>
        <pt x="153" y="318" on="1"/>
        <pt x="153" y="371" on="0"/>
        <pt x="189" y="469" on="0"/>
        <pt x="257" y="545" on="0"/>
        <pt x="354" y="595" on="0"/>
        <pt x="413" y="601" on="1"/>
        <pt x="438" y="716" on="1"/>
        <pt x="546" y="716" on="1"/>
        <pt x="520" y="596" on="1"/>
        <pt x="554" y="589" on="0"/>
        <pt x="611" y="563" on="0"/>
        <pt x="629" y="550" on="1"/>
        <pt x="607" y="447" on="1"/>
        <pt x="606" y="447" on="1"/>
        <pt x="579" y="469" on="0"/>
        <pt x="498" y="502" on="0"/>
        <pt x="453" y="502" on="1"/>
        <pt x="411" y="502" on="0"/>
        <pt x="342" y="475" on="0"/>
        <pt x="294" y="427" on="0"/>
        <pt x="269" y="364" on="0"/>
        <pt x="269" y="328" on="1"/>
        <pt x="270" y="264" on="0"/>
        <pt x="355" y="199" on="0"/>
        <pt x="419" y="199" on="1"/>
        <pt x="457" y="199" on="0"/>
        <pt x="534" y="218" on="0"/>
        <pt x="573" y="237" on="1"/>
        <pt x="574" y="237" on="1"/>
        <pt x="551" y="129" on="1"/>
        <pt x="522" y="116" on="0"/>
        <pt x="458" y="100" on="0"/>
        <pt x="422" y="99" on="1"/>
        <pt x="395" y="-25" on="1"/>
      </contour>
    </TTGlyph>
    <TTGlyph name="circle.checked" xMin="126" yMin="-46" xMax="952" yMax="746">
      <contour>
        <pt x="539" y="-46" on="1"/>
        <pt x="445" y="-46" on="0"/>
        <pt x="291" y="11" on="0"/>
        <pt x="184" y="113" on="0"/>
        <pt x="126" y="260" on="0"/>
        <pt x="126" y="350" on="1"/>
        <pt x="126" y="439" on="0"/>
        <pt x="184" y="586" on="0"/>
        <pt x="291" y="689" on="0"/>
        <pt x="445" y="746" on="0"/>
        <pt x="539" y="746" on="1"/>
        <pt x="634" y="746" on="0"/>
        <pt x="787" y="689" on="0"/>
        <pt x="894" y="587" on="0"/>
        <pt x="952" y="440" on="0"/>
        <pt x="952" y="350" on="1"/>
        <pt x="952" y="261" on="0"/>
        <pt x="894" y="114" on="0"/>
        <pt x="787" y="11" on="0"/>
        <pt x="633" y="-46" on="0"/>
      </contour>
      <contour>
        <pt x="539" y="62" on="1"/>
        <pt x="676" y="62" on="0"/>
        <pt x="829" y="219" on="0"/>
        <pt x="829" y="350" on="1"/>
        <pt x="829" y="482" on="0"/>
        <pt x="676" y="638" on="0"/>
        <pt x="539" y="638" on="1"/>
        <pt x="402" y="638" on="0"/>
        <pt x="249" y="481" on="0"/>
        <pt x="249" y="350" on="1"/>
        <pt x="249" y="218" on="0"/>
        <pt x="402" y="62" on="0"/>
      </contour>
      <contour>
        <pt x="539" y="208" on="1"/>
        <pt x="473" y="208" on="0"/>
        <pt x="397" y="285" on="0"/>
        <pt x="397" y="350" on="1"/>
        <pt x="397" y="415" on="0"/>
        <pt x="473" y="492" on="0"/>
        <pt x="539" y="492" on="1"/>
        <pt x="606" y="492" on="0"/>
        <pt x="681" y="415" on="0"/>
        <pt x="681" y="350" on="1"/>
        <pt x="681" y="285" on="0"/>
        <pt x="606" y="208" on="0"/>
      </contour>
    </TTGlyph>
    <TTGlyph name="circle.half" xMin="126" yMin="-46" xMax="952" yMax="746">
      <contour>
        <pt x="539" y="-46" on="1"/>
        <pt x="445" y="-46" on="0"/>
        <pt x="291" y="11" on="0"/>
        <pt x="184" y="113" on="0"/>
        <pt x="126" y="260" on="0"/>
        <pt x="126" y="350" on="1"/>
        <pt x="126" y="439" on="0"/>
        <pt x="184" y="586" on="0"/>
        <pt x="291" y="689" on="0"/>
        <pt x="445" y="746" on="0"/>
        <pt x="539" y="746" on="1"/>
        <pt x="634" y="746" on="0"/>
        <pt x="787" y="689" on="0"/>
        <pt x="894" y="587" on="0"/>
        <pt x="952" y="440" on="0"/>
        <pt x="952" y="350" on="1"/>
        <pt x="952" y="261" on="0"/>
        <pt x="894" y="114" on="0"/>
        <pt x="787" y="11" on="0"/>
        <pt x="633" y="-46" on="0"/>
      </contour>
      <contour>
        <pt x="536" y="59" on="1"/>
        <pt x="605" y="59" on="0"/>
        <pt x="715" y="101" on="0"/>
        <pt x="790" y="176" on="0"/>
        <pt x="831" y="284" on="0"/>
        <pt x="831" y="350" on="1"/>
        <pt x="831" y="482" on="0"/>
        <pt x="673" y="641" on="0"/>
        <pt x="536" y="641" on="1"/>
      </contour>
    </TTGlyph>
    <TTGlyph name="circle.open" xMin="126" yMin="-46" xMax="952" yMax="746">
      <contour>
        <pt x="539" y="-46" on="1"/>
        <pt x="445" y="-46" on="0"/>
        <pt x="291" y="11" on="0"/>
        <pt x="184" y="113" on="0"/>
        <pt x="126" y="260" on="0"/>
        <pt x="126" y="350" on="1"/>
        <pt x="126" y="439" on="0"/>
        <pt x="184" y="586" on="0"/>
        <pt x="291" y="689" on="0"/>
        <pt x="445" y="746" on="0"/>
        <pt x="539" y="746" on="1"/>
        <pt x="634" y="746" on="0"/>
        <pt x="787" y="689" on="0"/>
        <pt x="894" y="587" on="0"/>
        <pt x="952" y="440" on="0"/>
        <pt x="952" y="350" on="1"/>
        <pt x="952" y="261" on="0"/>
        <pt x="894" y="114" on="0"/>
        <pt x="787" y="11" on="0"/>
        <pt x="633" y="-46" on="0"/>
      </contour>
      <contour>
        <pt x="539" y="62" on="1"/>
        <pt x="676" y="62" on="0"/>
        <pt x="829" y="219" on="0"/>
        <pt x="829" y="350" on="1"/>
        <pt x="829" y="482" on="0"/>
        <pt x="676" y="638" on="0"/>
        <pt x="539" y="638" on="1"/>
        <pt x="402" y="638" on="0"/>
        <pt x="249" y="481" on="0"/>
        <pt x="249" y="350" on="1"/>
        <pt x="249" y="218" on="0"/>
        <pt x="402" y="62" on="0"/>
      </contour>
    </TTGlyph>
    <TTGlyph name="circle.solid" xMin="126" yMin="-46" xMax="952" yMax="746">
      <contour>
        <pt x="539" y="-46" on="1"/>
        <pt x="445" y="-46" on="0"/>
        <pt x="291" y="11" on="0"/>
        <pt x="184" y="113" on="0"/>
        <pt x="126" y="260" on="0"/>
        <pt x="126" y="350" on="1"/>
        <pt x="126" y="439" on="0"/>
        <pt x="184" y="586" on="0"/>
        <pt x="291" y="689" on="0"/>
        <pt x="445" y="746" on="0"/>
        <pt x="539" y="746" on="1"/>
        <pt x="634" y="746" on="0"/>
        <pt x="787" y="689" on="0"/>
        <pt x="894" y="587" on="0"/>
        <pt x="952" y="440" on="0"/>
        <pt x="952" y="350" on="1"/>
        <pt x="952" y="261" on="0"/>
        <pt x="894" y="114" on="0"/>
        <pt x="787" y="11" on="0"/>
        <pt x="633" y="-46" on="0"/>
      </contour>
    </TTGlyph>
    <TTGlyph name="circumflex" xMin="115" yMin="624" xMax="542" yMax="801">
      <contour>
        <pt x="115" y="624" on="1"/>
        <pt x="288" y="801" on="1"/>
        <pt x="443" y="801" on="1"/>
        <pt x="542" y="624" on="1"/>
        <pt x="427" y="624" on="1"/>
        <pt x="373" y="722" on="1"/>
        <pt x="339" y="722" on="1"/>
        <pt x="245" y="624" on="1"/>
      </contour>
    </TTGlyph>
    <TTGlyph name="colon" xMin="58" yMin="-11" xMax="319" yMax="512">
      <component glyphName="period" x="1" y="0" flags="0x4"/>
      <component glyphName="period" x="76" y="357" flags="0x4"/>
    </TTGlyph>
    <TTGlyph name="colon.fig" xMin="79" yMin="88" xMax="340" yMax="611">
      <component glyphName="colon" x="21" y="99" flags="0x4"/>
    </TTGlyph>
    <TTGlyph name="colon.tab" xMin="49" yMin="-11" xMax="310" yMax="512">
      <component glyphName="colon" x="-9" y="0" flags="0x4"/>
    </TTGlyph>
    <TTGlyph name="colonmonetary" xMin="74" yMin="-111" xMax="794" yMax="805">
      <contour>
        <pt x="172" y="-110" on="1"/>
        <pt x="77" y="-111" on="1"/>
        <pt x="163" y="75" on="1"/>
        <pt x="120" y="115" on="0"/>
        <pt x="74" y="232" on="0"/>
        <pt x="74" y="304" on="1"/>
        <pt x="74" y="385" on="0"/>
        <pt x="128" y="532" on="0"/>
        <pt x="226" y="643" on="0"/>
        <pt x="369" y="708" on="0"/>
        <pt x="457" y="708" on="1"/>
        <pt x="501" y="805" on="1"/>
        <pt x="598" y="805" on="1"/>
        <pt x="549" y="698" on="1"/>
        <pt x="573" y="692" on="0"/>
        <pt x="616" y="676" on="0"/>
        <pt x="634" y="667" on="1"/>
        <pt x="697" y="805" on="1"/>
        <pt x="794" y="805" on="1"/>
        <pt x="468" y="98" on="1"/>
        <pt x="506" y="104" on="0"/>
        <pt x="574" y="127" on="0"/>
        <pt x="601" y="140" on="1"/>
        <pt x="602" y="140" on="1"/>
        <pt x="579" y="32" on="1"/>
        <pt x="549" y="17" on="0"/>
        <pt x="466" y="-4" on="0"/>
        <pt x="420" y="-6" on="1"/>
        <pt x="373" y="-109" on="1"/>
        <pt x="278" y="-109" on="1"/>
        <pt x="327" y="-2" on="1"/>
        <pt x="302" y="2" on="0"/>
        <pt x="256" y="15" on="0"/>
        <pt x="236" y="25" on="1"/>
      </contour>
      <contour>
        <pt x="189" y="308" on="1"/>
        <pt x="189" y="271" on="0"/>
        <pt x="204" y="211" on="0"/>
        <pt x="218" y="186" on="1"/>
        <pt x="411" y="602" on="1"/>
        <pt x="358" y="593" on="0"/>
        <pt x="275" y="539" on="0"/>
        <pt x="219" y="460" on="0"/>
        <pt x="189" y="361" on="0"/>
      </contour>
      <contour>
        <pt x="278" y="125" on="1"/>
        <pt x="299" y="112" on="0"/>
        <pt x="349" y="97" on="0"/>
        <pt x="378" y="94" on="1"/>
        <pt x="595" y="566" on="1"/>
        <pt x="574" y="576" on="0"/>
        <pt x="525" y="593" on="0"/>
        <pt x="497" y="597" on="1"/>
      </contour>
    </TTGlyph>
    <TTGlyph name="comma" xMin="-16" yMin="-147" xMax="262" yMax="164">
      <contour>
        <pt x="91" y="164" on="1"/>
        <pt x="262" y="164" on="1"/>
        <pt x="262" y="152" on="1"/>
        <pt x="56" y="-147" on="1"/>
        <pt x="-16" y="-147" on="1"/>
      </contour>
    </TTGlyph>
    <TTGlyph name="comma.tab" xMin="-11" yMin="-147" xMax="267" yMax="164">
      <component glyphName="comma" x="5" y="0" flags="0x4"/>
    </TTGlyph>
    <TTGlyph name="copyright" xMin="78" yMin="-46" xMax="933" yMax="746">
      <contour>
        <pt x="505" y="-46" on="1"/>
        <pt x="408" y="-46" on="0"/>
        <pt x="250" y="11" on="0"/>
        <pt x="139" y="114" on="0"/>
        <pt x="78" y="261" on="0"/>
        <pt x="78" y="350" on="1"/>
        <pt x="78" y="439" on="0"/>
        <pt x="139" y="586" on="0"/>
        <pt x="250" y="689" on="0"/>
        <pt x="408" y="746" on="0"/>
        <pt x="505" y="746" on="1"/>
        <pt x="602" y="746" on="0"/>
        <pt x="761" y="689" on="0"/>
        <pt x="872" y="586" on="0"/>
        <pt x="933" y="439" on="0"/>
        <pt x="933" y="350" on="1"/>
        <pt x="933" y="261" on="0"/>
        <pt x="872" y="114" on="0"/>
        <pt x="761" y="11" on="0"/>
        <pt x="602" y="-46" on="0"/>
      </contour>
      <contour>
        <pt x="505" y="37" on="1"/>
        <pt x="580" y="37" on="0"/>
        <pt x="704" y="80" on="0"/>
        <pt x="790" y="160" on="0"/>
        <pt x="837" y="277" on="0"/>
        <pt x="837" y="350" on="1"/>
        <pt x="837" y="423" on="0"/>
        <pt x="790" y="540" on="0"/>
        <pt x="704" y="620" on="0"/>
        <pt x="580" y="663" on="0"/>
        <pt x="505" y="663" on="1"/>
        <pt x="430" y="663" on="0"/>
        <pt x="307" y="620" on="0"/>
        <pt x="221" y="540" on="0"/>
        <pt x="174" y="423" on="0"/>
        <pt x="174" y="350" on="1"/>
        <pt x="174" y="277" on="0"/>
        <pt x="221" y="160" on="0"/>
        <pt x="307" y="80" on="0"/>
        <pt x="430" y="37" on="0"/>
      </contour>
      <contour>
        <pt x="521" y="165" on="1"/>
        <pt x="471" y="165" on="0"/>
        <pt x="395" y="195" on="0"/>
        <pt x="345" y="245" on="0"/>
        <pt x="320" y="314" on="0"/>
        <pt x="320" y="353" on="1"/>
        <pt x="320" y="391" on="0"/>
        <pt x="348" y="460" on="0"/>
        <pt x="400" y="511" on="0"/>
        <pt x="476" y="541" on="0"/>
        <pt x="525" y="541" on="1"/>
        <pt x="569" y="541" on="0"/>
        <pt x="640" y="517" on="0"/>
        <pt x="664" y="498" on="1"/>
        <pt x="664" y="414" on="1"/>
        <pt x="663" y="414" on="1"/>
        <pt x="632" y="436" on="0"/>
        <pt x="571" y="462" on="0"/>
        <pt x="534" y="462" on="1"/>
        <pt x="479" y="462" on="0"/>
        <pt x="414" y="399" on="0"/>
        <pt x="414" y="353" on="1"/>
        <pt x="414" y="305" on="0"/>
        <pt x="471" y="244" on="0"/>
        <pt x="533" y="244" on="1"/>
        <pt x="574" y="244" on="0"/>
        <pt x="634" y="271" on="0"/>
        <pt x="663" y="292" on="1"/>
        <pt x="664" y="292" on="1"/>
        <pt x="664" y="207" on="1"/>
        <pt x="643" y="193" on="0"/>
        <pt x="570" y="165" on="0"/>
      </contour>
    </TTGlyph>
    <TTGlyph name="d" xMin="47" yMin="-11" xMax="663" yMax="754">
      <contour>
        <pt x="236" y="-11" on="1"/>
        <pt x="197" y="-11" on="0"/>
        <pt x="128" y="15" on="0"/>
        <pt x="77" y="68" on="0"/>
        <pt x="47" y="148" on="0"/>
        <pt x="47" y="202" on="1"/>
        <pt x="47" y="273" on="0"/>
        <pt x="94" y="401" on="0"/>
        <pt x="174" y="495" on="0"/>
        <pt x="286" y="551" on="0"/>
        <pt x="350" y="551" on="1"/>
        <pt x="396" y="551" on="0"/>
        <pt x="465" y="525" on="0"/>
        <pt x="490" y="504" on="1"/>
        <pt x="544" y="754" on="1"/>
        <pt x="663" y="754" on="1"/>
        <pt x="503" y="0" on="1"/>
        <pt x="385" y="0" on="1"/>
        <pt x="400" y="65" on="1"/>
        <pt x="368" y="33" on="0"/>
        <pt x="287" y="-11" on="0"/>
      </contour>
      <contour>
        <pt x="280" y="89" on="1"/>
        <pt x="317" y="89" on="0"/>
        <pt x="387" y="121" on="0"/>
        <pt x="415" y="148" on="1"/>
        <pt x="469" y="403" on="1"/>
        <pt x="450" y="423" on="0"/>
        <pt x="391" y="450" on="0"/>
        <pt x="354" y="450" on="1"/>
        <pt x="310" y="450" on="0"/>
        <pt x="240" y="410" on="0"/>
        <pt x="192" y="345" on="0"/>
        <pt x="166" y="259" on="0"/>
        <pt x="166" y="214" on="1"/>
        <pt x="166" y="147" on="0"/>
        <pt x="230" y="89" on="0"/>
      </contour>
    </TTGlyph>
    <TTGlyph name="d.sc" xMin="51" yMin="0" xMax="688" yMax="589">
      <contour>
        <pt x="51" y="0" on="1"/>
        <pt x="177" y="589" on="1"/>
        <pt x="393" y="589" on="1"/>
        <pt x="469" y="589" on="0"/>
        <pt x="581" y="552" on="0"/>
        <pt x="653" y="487" on="0"/>
        <pt x="688" y="396" on="0"/>
        <pt x="688" y="343" on="1"/>
        <pt x="688" y="281" on="0"/>
        <pt x="647" y="158" on="0"/>
        <pt x="556" y="61" on="0"/>
        <pt x="407" y="0" on="0"/>
        <pt x="300" y="0" on="1"/>
      </contour>
      <contour>
        <pt x="567" y="334" on="1"/>
        <pt x="567" y="406" on="0"/>
        <pt x="478" y="485" on="0"/>
        <pt x="385" y="485" on="1"/>
        <pt x="274" y="485" on="1"/>
        <pt x="193" y="104" on="1"/>
        <pt x="316" y="104" on="1"/>
        <pt x="384" y="104" on="0"/>
        <pt x="480" y="142" on="0"/>
        <pt x="540" y="206" on="0"/>
        <pt x="567" y="289" on="0"/>
      </contour>
    </TTGlyph>
    <TTGlyph name="dagger" xMin="114" yMin="184" xMax="515" yMax="706">
      <contour>
        <pt x="194" y="184" on="1"/>
        <pt x="258" y="484" on="1"/>
        <pt x="114" y="484" on="1"/>
        <pt x="140" y="572" on="1"/>
        <pt x="277" y="572" on="1"/>
        <pt x="305" y="706" on="1"/>
        <pt x="407" y="706" on="1"/>
        <pt x="379" y="572" on="1"/>
        <pt x="515" y="572" on="1"/>
        <pt x="496" y="484" on="1"/>
        <pt x="360" y="484" on="1"/>
        <pt x="296" y="184" on="1"/>
      </contour>
    </TTGlyph>
    <TTGlyph name="daggerdbl" xMin="79" yMin="140" xMax="515" yMax="706">
      <contour>
        <pt x="185" y="140" on="1"/>
        <pt x="214" y="274" on="1"/>
        <pt x="79" y="274" on="1"/>
        <pt x="97" y="362" on="1"/>
        <pt x="232" y="362" on="1"/>
        <pt x="259" y="484" on="1"/>
        <pt x="114" y="484" on="1"/>
        <pt x="140" y="572" on="1"/>
        <pt x="277" y="572" on="1"/>
        <pt x="306" y="706" on="1"/>
        <pt x="408" y="706" on="1"/>
        <pt x="380" y="572" on="1"/>
        <pt x="515" y="572" on="1"/>
        <pt x="496" y="484" on="1"/>
        <pt x="361" y="484" on="1"/>
        <pt x="335" y="362" on="1"/>
        <pt x="480" y="362" on="1"/>
        <pt x="453" y="274" on="1"/>
        <pt x="316" y="274" on="1"/>
        <pt x="288" y="140" on="1"/>
      </contour>
    </TTGlyph>
    <TTGlyph name="dcaron" xMin="47" yMin="-11" xMax="870" yMax="754">
      <component glyphName="d" x="0" y="0" flags="0x204"/>
      <component glyphName="caron.alt" x="447" y="-12" flags="0x4"/>
    </TTGlyph>
    <TTGlyph name="dcaron.sc" xMin="51" yMin="0" xMax="688" yMax="854">
      <component glyphName="d.sc" x="0" y="0" flags="0x204"/>
      <component glyphName="caron" x="100" y="53" flags="0x4"/>
    </TTGlyph>
    <TTGlyph name="dcroat" xMin="45" yMin="-11" xMax="721" yMax="754">
      <contour>
        <pt x="233" y="-11" on="1"/>
        <pt x="195" y="-12" on="0"/>
        <pt x="126" y="14" on="0"/>
        <pt x="75" y="66" on="0"/>
        <pt x="45" y="145" on="0"/>
        <pt x="45" y="198" on="1"/>
        <pt x="45" y="266" on="0"/>
        <pt x="91" y="384" on="0"/>
        <pt x="172" y="470" on="0"/>
        <pt x="283" y="520" on="0"/>
        <pt x="347" y="520" on="1"/>
        <pt x="390" y="520" on="0"/>
        <pt x="458" y="498" on="0"/>
        <pt x="483" y="480" on="1"/>
        <pt x="506" y="590" on="1"/>
        <pt x="324" y="590" on="1"/>
        <pt x="341" y="669" on="1"/>
        <pt x="523" y="669" on="1"/>
        <pt x="541" y="754" on="1"/>
        <pt x="661" y="754" on="1"/>
        <pt x="643" y="669" on="1"/>
        <pt x="721" y="669" on="1"/>
        <pt x="717" y="590" on="1"/>
        <pt x="626" y="590" on="1"/>
        <pt x="501" y="0" on="1"/>
        <pt x="383" y="0" on="1"/>
        <pt x="397" y="66" on="1"/>
        <pt x="366" y="33" on="0"/>
        <pt x="284" y="-11" on="0"/>
      </contour>
      <contour>
        <pt x="277" y="89" on="1"/>
        <pt x="315" y="89" on="0"/>
        <pt x="384" y="122" on="0"/>
        <pt x="413" y="150" on="1"/>
        <pt x="461" y="377" on="1"/>
        <pt x="442" y="396" on="0"/>
        <pt x="385" y="418" on="0"/>
        <pt x="351" y="418" on="1"/>
        <pt x="307" y="418" on="0"/>
        <pt x="237" y="384" on="0"/>
        <pt x="190" y="328" on="0"/>
        <pt x="165" y="252" on="0"/>
        <pt x="165" y="211" on="1"/>
        <pt x="165" y="148" on="0"/>
        <pt x="228" y="89" on="0"/>
      </contour>
    </TTGlyph>
    <TTGlyph name="dcroat.sc" xMin="42" yMin="0" xMax="719" yMax="589">
      <component glyphName="eth.sc" x="0" y="0" flags="0x204"/>
    </TTGlyph>
    <TTGlyph name="degree" xMin="117" yMin="284" xMax="566" yMax="710">
      <contour>
        <pt x="357" y="710" on="1"/>
        <pt x="407" y="710" on="0"/>
        <pt x="485" y="680" on="0"/>
        <pt x="538" y="628" on="0"/>
        <pt x="566" y="556" on="0"/>
        <pt x="566" y="515" on="1"/>
        <pt x="566" y="469" on="0"/>
        <pt x="534" y="385" on="0"/>
        <pt x="474" y="322" on="0"/>
        <pt x="384" y="284" on="0"/>
        <pt x="326" y="284" on="1"/>
        <pt x="276" y="284" on="0"/>
        <pt x="198" y="314" on="0"/>
        <pt x="145" y="366" on="0"/>
        <pt x="117" y="437" on="0"/>
        <pt x="117" y="478" on="1"/>
        <pt x="117" y="524" on="0"/>
        <pt x="149" y="608" on="0"/>
        <pt x="209" y="672" on="0"/>
        <pt x="299" y="710" on="0"/>
      </contour>
      <contour>
        <pt x="330" y="377" on="1"/>
        <pt x="390" y="377" on="0"/>
        <pt x="459" y="454" on="0"/>
        <pt x="459" y="509" on="1"/>
        <pt x="459" y="555" on="0"/>
        <pt x="405" y="617" on="0"/>
        <pt x="353" y="617" on="1"/>
        <pt x="293" y="617" on="0"/>
        <pt x="224" y="539" on="0"/>
        <pt x="224" y="484" on="1"/>
        <pt x="224" y="438" on="0"/>
        <pt x="278" y="377" on="0"/>
      </contour>
    </TTGlyph>
    <TTGlyph name="degree.tab" xMin="143" yMin="284" xMax="592" yMax="710">
      <component glyphName="degree" x="26" y="0" flags="0x4"/>
    </TTGlyph>
    <TTGlyph name="dieresis" xMin="140" yMin="620" xMax="543" yMax="756">
      <contour>
        <pt x="291" y="695" on="1"/>
        <pt x="291" y="665" on="0"/>
        <pt x="247" y="620" on="0"/>
        <pt x="208" y="620" on="1"/>
        <pt x="175" y="620" on="0"/>
        <pt x="140" y="657" on="0"/>
        <pt x="140" y="682" on="1"/>
        <pt x="140" y="712" on="0"/>
        <pt x="185" y="756" on="0"/>
        <pt x="222" y="756" on="1"/>
        <pt x="256" y="756" on="0"/>
        <pt x="291" y="720" on="0"/>
      </contour>
      <contour>
        <pt x="543" y="695" on="1"/>
        <pt x="543" y="665" on="0"/>
        <pt x="498" y="620" on="0"/>
        <pt x="460" y="620" on="1"/>
        <pt x="427" y="620" on="0"/>
        <pt x="392" y="657" on="0"/>
        <pt x="392" y="682" on="1"/>
        <pt x="392" y="712" on="0"/>
        <pt x="436" y="756" on="0"/>
        <pt x="474" y="756" on="1"/>
        <pt x="507" y="756" on="0"/>
        <pt x="543" y="720" on="0"/>
      </contour>
    </TTGlyph>
    <TTGlyph name="divide" xMin="107" yMin="63" xMax="690" yMax="641">
      <contour>
        <pt x="447" y="641" on="1"/>
        <pt x="483" y="641" on="0"/>
        <pt x="524" y="601" on="0"/>
        <pt x="524" y="573" on="1"/>
        <pt x="524" y="540" on="0"/>
        <pt x="476" y="493" on="0"/>
        <pt x="436" y="493" on="1"/>
        <pt x="400" y="493" on="0"/>
        <pt x="360" y="532" on="0"/>
        <pt x="360" y="560" on="1"/>
        <pt x="360" y="593" on="0"/>
        <pt x="407" y="641" on="0"/>
      </contour>
      <contour>
        <pt x="690" y="404" on="1"/>
        <pt x="667" y="299" on="1"/>
        <pt x="107" y="299" on="1"/>
        <pt x="130" y="404" on="1"/>
      </contour>
      <contour>
        <pt x="273" y="130" on="1"/>
        <pt x="273" y="163" on="0"/>
        <pt x="321" y="210" on="0"/>
        <pt x="361" y="210" on="1"/>
        <pt x="397" y="210" on="0"/>
        <pt x="437" y="171" on="0"/>
        <pt x="437" y="143" on="1"/>
        <pt x="437" y="110" on="0"/>
        <pt x="389" y="63" on="0"/>
        <pt x="349" y="63" on="1"/>
        <pt x="314" y="63" on="0"/>
        <pt x="273" y="102" on="0"/>
      </contour>
    </TTGlyph>
    <TTGlyph name="divide.tab" xMin="90" yMin="63" xMax="673" yMax="641">
      <component glyphName="divide" x="-17" y="0" flags="0x4"/>
    </TTGlyph>
    <TTGlyph name="dollar" xMin="52" yMin="-118" xMax="648" yMax="805">
      <contour>
        <pt x="76" y="207" on="1"/>
        <pt x="102" y="188" on="0"/>
        <pt x="171" y="154" on="0"/>
        <pt x="244" y="128" on="0"/>
        <pt x="322" y="113" on="0"/>
        <pt x="357" y="113" on="1"/>
        <pt x="426" y="113" on="0"/>
        <pt x="486" y="164" on="0"/>
        <pt x="486" y="201" on="1"/>
        <pt x="486" y="236" on="0"/>
        <pt x="419" y="276" on="0"/>
        <pt x="334" y="304" on="1"/>
        <pt x="291" y="318" on="0"/>
        <pt x="217" y="349" on="0"/>
        <pt x="164" y="390" on="0"/>
        <pt x="134" y="448" on="0"/>
        <pt x="134" y="490" on="1"/>
        <pt x="134" y="530" on="0"/>
        <pt x="165" y="604" on="0"/>
        <pt x="227" y="658" on="0"/>
        <pt x="321" y="691" on="0"/>
        <pt x="383" y="691" on="1"/>
        <pt x="408" y="805" on="1"/>
        <pt x="517" y="805" on="1"/>
        <pt x="490" y="678" on="1"/>
        <pt x="538" y="667" on="0"/>
        <pt x="619" y="629" on="0"/>
        <pt x="648" y="610" on="1"/>
        <pt x="624" y="501" on="1"/>
        <pt x="623" y="501" on="1"/>
        <pt x="573" y="537" on="0"/>
        <pt x="443" y="587" on="0"/>
        <pt x="380" y="587" on="1"/>
        <pt x="317" y="587" on="0"/>
        <pt x="250" y="541" on="0"/>
        <pt x="250" y="501" on="1"/>
        <pt x="250" y="468" on="0"/>
        <pt x="318" y="428" on="0"/>
        <pt x="399" y="402" on="1"/>
        <pt x="442" y="388" on="0"/>
        <pt x="517" y="356" on="0"/>
        <pt x="572" y="313" on="0"/>
        <pt x="604" y="252" on="0"/>
        <pt x="604" y="209" on="1"/>
        <pt x="604" y="168" on="0"/>
        <pt x="573" y="95" on="0"/>
        <pt x="511" y="41" on="0"/>
        <pt x="416" y="9" on="0"/>
        <pt x="353" y="9" on="1"/>
        <pt x="329" y="-105" on="1"/>
        <pt x="217" y="-118" on="1"/>
        <pt x="246" y="19" on="1"/>
        <pt x="189" y="31" on="0"/>
        <pt x="89" y="73" on="0"/>
        <pt x="52" y="98" on="1"/>
        <pt x="75" y="207" on="1"/>
      </contour>
    </TTGlyph>
    <TTGlyph name="dollar.tab" xMin="72" yMin="-118" xMax="672" yMax="805">
      <contour>
        <pt x="96" y="208" on="1"/>
        <pt x="123" y="189" on="0"/>
        <pt x="191" y="154" on="0"/>
        <pt x="266" y="128" on="0"/>
        <pt x="344" y="113" on="0"/>
        <pt x="380" y="113" on="1"/>
        <pt x="449" y="113" on="0"/>
        <pt x="511" y="164" on="0"/>
        <pt x="511" y="201" on="1"/>
        <pt x="511" y="235" on="0"/>
        <pt x="443" y="276" on="0"/>
        <pt x="356" y="304" on="1"/>
        <pt x="313" y="318" on="0"/>
        <pt x="239" y="349" on="0"/>
        <pt x="185" y="390" on="0"/>
        <pt x="154" y="449" on="0"/>
        <pt x="154" y="491" on="1"/>
        <pt x="154" y="531" on="0"/>
        <pt x="186" y="604" on="0"/>
        <pt x="249" y="658" on="0"/>
        <pt x="343" y="691" on="0"/>
        <pt x="405" y="691" on="1"/>
        <pt x="430" y="805" on="1"/>
        <pt x="540" y="805" on="1"/>
        <pt x="513" y="678" on="1"/>
        <pt x="562" y="667" on="0"/>
        <pt x="643" y="628" on="0"/>
        <pt x="672" y="609" on="1"/>
        <pt x="649" y="500" on="1"/>
        <pt x="648" y="500" on="1"/>
        <pt x="598" y="537" on="0"/>
        <pt x="467" y="587" on="0"/>
        <pt x="403" y="587" on="1"/>
        <pt x="338" y="587" on="0"/>
        <pt x="270" y="541" on="0"/>
        <pt x="270" y="502" on="1"/>
        <pt x="270" y="469" on="0"/>
        <pt x="339" y="428" on="0"/>
        <pt x="421" y="402" on="1"/>
        <pt x="464" y="388" on="0"/>
        <pt x="540" y="356" on="0"/>
        <pt x="596" y="313" on="0"/>
        <pt x="628" y="252" on="0"/>
        <pt x="628" y="208" on="1"/>
        <pt x="628" y="167" on="0"/>
        <pt x="597" y="95" on="0"/>
        <pt x="535" y="41" on="0"/>
        <pt x="440" y="9" on="0"/>
        <pt x="376" y="9" on="1"/>
        <pt x="352" y="-105" on="1"/>
        <pt x="240" y="-118" on="1"/>
        <pt x="269" y="19" on="1"/>
        <pt x="211" y="30" on="0"/>
        <pt x="109" y="74" on="0"/>
        <pt x="72" y="99" on="1"/>
        <pt x="95" y="208" on="1"/>
      </contour>
    </TTGlyph>
    <TTGlyph name="dotaccent" xMin="262" yMin="620" xMax="420" yMax="761">
      <contour>
        <pt x="262" y="684" on="1"/>
        <pt x="262" y="714" on="0"/>
        <pt x="307" y="761" on="0"/>
        <pt x="347" y="761" on="1"/>
        <pt x="383" y="761" on="0"/>
        <pt x="420" y="724" on="0"/>
        <pt x="420" y="697" on="1"/>
        <pt x="420" y="667" on="0"/>
        <pt x="375" y="620" on="0"/>
        <pt x="335" y="620" on="1"/>
        <pt x="298" y="620" on="0"/>
        <pt x="262" y="658" on="0"/>
      </contour>
    </TTGlyph>
    <TTGlyph name="dotlessi" xMin="36" yMin="0" xMax="270" yMax="536">
      <contour>
        <pt x="150" y="536" on="1"/>
        <pt x="270" y="536" on="1"/>
        <pt x="155" y="0" on="1"/>
        <pt x="36" y="0" on="1"/>
      </contour>
    </TTGlyph>
    <TTGlyph name="dotlessi.sc" xMin="52" yMin="0" xMax="297" yMax="589">
      <component glyphName="i.sc" x="0" y="0" flags="0x204"/>
    </TTGlyph>
    <TTGlyph name="dotmath" xMin="112" yMin="267" xMax="298" yMax="433">
      <component glyphName="period" x="55" y="278" flags="0x4"/>
    </TTGlyph>
    <TTGlyph name="dotmath.tab" xMin="107" yMin="267" xMax="293" yMax="433">
      <component glyphName="dotmath" x="-5" y="0" flags="0x4"/>
    </TTGlyph>
    <TTGlyph name="e" xMin="51" yMin="-15" xMax="556" yMax="551">
      <contour>
        <pt x="320" y="85" on="1"/>
        <pt x="376" y="85" on="0"/>
        <pt x="471" y="119" on="0"/>
        <pt x="509" y="144" on="1"/>
        <pt x="510" y="144" on="1"/>
        <pt x="487" y="34" on="1"/>
        <pt x="456" y="15" on="0"/>
        <pt x="365" y="-15" on="0"/>
        <pt x="304" y="-15" on="1"/>
        <pt x="188" y="-15" on="0"/>
        <pt x="51" y="112" on="0"/>
        <pt x="51" y="225" on="1"/>
        <pt x="51" y="291" on="0"/>
        <pt x="96" y="411" on="0"/>
        <pt x="175" y="499" on="0"/>
        <pt x="285" y="551" on="0"/>
        <pt x="350" y="551" on="1"/>
        <pt x="443" y="551" on="0"/>
        <pt x="556" y="441" on="0"/>
        <pt x="556" y="345" on="1"/>
        <pt x="556" y="320" on="0"/>
        <pt x="548" y="266" on="0"/>
        <pt x="539" y="238" on="1"/>
        <pt x="168" y="238" on="1"/>
        <pt x="167" y="226" on="1"/>
        <pt x="167" y="148" on="0"/>
        <pt x="254" y="85" on="0"/>
      </contour>
      <contour>
        <pt x="340" y="453" on="1"/>
        <pt x="283" y="452" on="0"/>
        <pt x="196" y="377" on="0"/>
        <pt x="179" y="317" on="1"/>
        <pt x="444" y="317" on="1"/>
        <pt x="445" y="325" on="0"/>
        <pt x="446" y="342" on="0"/>
        <pt x="446" y="349" on="1"/>
        <pt x="446" y="397" on="0"/>
        <pt x="394" y="454" on="0"/>
      </contour>
    </TTGlyph>
    <TTGlyph name="e.sc" xMin="51" yMin="0" xMax="638" yMax="589">
      <contour>
        <pt x="51" y="0" on="1"/>
        <pt x="177" y="589" on="1"/>
        <pt x="638" y="589" on="1"/>
        <pt x="630" y="487" on="1"/>
        <pt x="273" y="487" on="1"/>
        <pt x="243" y="348" on="1"/>
        <pt x="530" y="348" on="1"/>
        <pt x="508" y="249" on="1"/>
        <pt x="222" y="249" on="1"/>
        <pt x="191" y="103" on="1"/>
        <pt x="565" y="103" on="1"/>
        <pt x="534" y="0" on="1"/>
      </contour>
    </TTGlyph>
    <TTGlyph name="eacute" xMin="51" yMin="-15" xMax="624" yMax="803">
      <component glyphName="e" x="0" y="0" flags="0x204"/>
      <component glyphName="acute" x="98" y="15" flags="0x4"/>
    </TTGlyph>
    <TTGlyph name="eacute.sc" xMin="51" yMin="0" xMax="674" yMax="841">
      <component glyphName="e.sc" x="0" y="0" flags="0x204"/>
      <component glyphName="acute" x="148" y="53" flags="0x4"/>
    </TTGlyph>
    <TTGlyph name="ebreve" xMin="51" yMin="-15" xMax="578" yMax="819">
      <component glyphName="e" x="0" y="0" flags="0x204"/>
      <component glyphName="breve" x="45" y="15" flags="0x4"/>
    </TTGlyph>
    <TTGlyph name="ebreve.sc" xMin="51" yMin="0" xMax="638" yMax="857">
      <component glyphName="e.sc" x="0" y="0" flags="0x204"/>
      <component glyphName="breve" x="95" y="53" flags="0x4"/>
    </TTGlyph>
    <TTGlyph name="ecaron" xMin="51" yMin="-15" xMax="624" yMax="816">
      <component glyphName="e" x="0" y="0" flags="0x204"/>
      <component glyphName="caron" x="45" y="15" flags="0x4"/>
    </TTGlyph>
    <TTGlyph name="ecaron.sc" xMin="51" yMin="0" xMax="674" yMax="854">
      <component glyphName="e.sc" x="0" y="0" flags="0x204"/>
      <component glyphName="caron" x="95" y="53" flags="0x4"/>
    </TTGlyph>
    <TTGlyph name="ecircumflex" xMin="51" yMin="-15" xMax="587" yMax="816">
      <component glyphName="e" x="0" y="0" flags="0x204"/>
      <component glyphName="circumflex" x="45" y="15" flags="0x4"/>
    </TTGlyph>
    <TTGlyph name="ecircumflex.sc" xMin="51" yMin="0" xMax="638" yMax="854">
      <component glyphName="e.sc" x="0" y="0" flags="0x204"/>
      <component glyphName="circumflex" x="94" y="53" flags="0x4"/>
    </TTGlyph>
    <TTGlyph name="edieresis" xMin="51" yMin="-15" xMax="587" yMax="771">
      <component glyphName="e" x="0" y="0" flags="0x204"/>
      <component glyphName="dieresis" x="44" y="15" flags="0x4"/>
    </TTGlyph>
    <TTGlyph name="edieresis.sc" xMin="51" yMin="0" xMax="638" yMax="809">
      <component glyphName="e.sc" x="0" y="0" flags="0x204"/>
      <component glyphName="dieresis" x="94" y="53" flags="0x4"/>
    </TTGlyph>
    <TTGlyph name="edotaccent" xMin="51" yMin="-15" xMax="556" yMax="776">
      <component glyphName="e" x="0" y="0" flags="0x204"/>
      <component glyphName="dotaccent" x="44" y="15" flags="0x4"/>
    </TTGlyph>
    <TTGlyph name="edotaccent.sc" xMin="51" yMin="0" xMax="638" yMax="814">
      <component glyphName="e.sc" x="0" y="0" flags="0x204"/>
      <component glyphName="dotaccent" x="94" y="53" flags="0x4"/>
    </TTGlyph>
    <TTGlyph name="egrave" xMin="51" yMin="-15" xMax="556" yMax="803">
      <component glyphName="e" x="0" y="0" flags="0x204"/>
      <component glyphName="grave" x="-10" y="15" flags="0x4"/>
    </TTGlyph>
    <TTGlyph name="egrave.sc" xMin="51" yMin="0" xMax="638" yMax="841">
      <component glyphName="e.sc" x="0" y="0" flags="0x204"/>
      <component glyphName="grave" x="39" y="53" flags="0x4"/>
    </TTGlyph>
    <TTGlyph name="eight" xMin="47" yMin="-23" xMax="701" yMax="720">
      <contour>
        <pt x="334" y="-23" on="1"/>
        <pt x="193" y="-23" on="0"/>
        <pt x="47" y="82" on="0"/>
        <pt x="47" y="165" on="1"/>
        <pt x="47" y="239" on="0"/>
        <pt x="152" y="344" on="0"/>
        <pt x="242" y="361" on="1"/>
        <pt x="192" y="382" on="0"/>
        <pt x="133" y="456" on="0"/>
        <pt x="133" y="507" on="1"/>
        <pt x="133" y="547" on="0"/>
        <pt x="168" y="624" on="0"/>
        <pt x="241" y="684" on="0"/>
        <pt x="355" y="720" on="0"/>
        <pt x="432" y="720" on="1"/>
        <pt x="498" y="720" on="0"/>
        <pt x="600" y="690" on="0"/>
        <pt x="667" y="638" on="0"/>
        <pt x="701" y="568" on="0"/>
        <pt x="701" y="528" on="1"/>
        <pt x="701" y="457" on="0"/>
        <pt x="601" y="361" on="0"/>
        <pt x="527" y="345" on="1"/>
        <pt x="585" y="322" on="0"/>
        <pt x="650" y="245" on="0"/>
        <pt x="650" y="188" on="1"/>
        <pt x="650" y="145" on="0"/>
        <pt x="611" y="68" on="0"/>
        <pt x="532" y="11" on="0"/>
        <pt x="413" y="-23" on="0"/>
      </contour>
      <contour>
        <pt x="405" y="396" on="1"/>
        <pt x="477" y="396" on="0"/>
        <pt x="576" y="461" on="0"/>
        <pt x="576" y="516" on="1"/>
        <pt x="576" y="565" on="0"/>
        <pt x="498" y="619" on="0"/>
        <pt x="428" y="619" on="1"/>
        <pt x="356" y="619" on="0"/>
        <pt x="257" y="555" on="0"/>
        <pt x="257" y="499" on="1"/>
        <pt x="257" y="450" on="0"/>
        <pt x="335" y="396" on="0"/>
      </contour>
      <contour>
        <pt x="359" y="307" on="1"/>
        <pt x="275" y="307" on="0"/>
        <pt x="174" y="240" on="0"/>
        <pt x="174" y="184" on="1"/>
        <pt x="174" y="135" on="0"/>
        <pt x="258" y="77" on="0"/>
        <pt x="338" y="77" on="1"/>
        <pt x="422" y="77" on="0"/>
        <pt x="523" y="144" on="0"/>
        <pt x="523" y="199" on="1"/>
        <pt x="523" y="249" on="0"/>
        <pt x="440" y="307" on="0"/>
      </contour>
    </TTGlyph>
    <TTGlyph name="eight.den" xMin="-7" yMin="-12" xMax="385" yMax="417">
      <component glyphName="eight.small" x="-12" y="0" flags="0x4"/>
    </TTGlyph>
    <TTGlyph name="eight.den_tab" xMin="-25" yMin="-12" xMax="367" yMax="417">
      <component glyphName="eight.small" x="-30" y="0" flags="0x4"/>
    </TTGlyph>
    <TTGlyph name="eight.inf" xMin="-16" yMin="-206" xMax="376" yMax="223">
      <component glyphName="eight.small" x="-21" y="-194" flags="0x4"/>
    </TTGlyph>
    <TTGlyph name="eight.num" xMin="79" yMin="282" xMax="471" yMax="711">
      <component glyphName="eight.small" x="74" y="294" flags="0x4"/>
    </TTGlyph>
    <TTGlyph name="eight.num_tab" xMin="61" yMin="282" xMax="453" yMax="711">
      <component glyphName="eight.small" x="56" y="294" flags="0x4"/>
    </TTGlyph>
    <TTGlyph name="eight.osf" xMin="50" yMin="-23" xMax="657" yMax="720">
      <contour>
        <pt x="409" y="720" on="1"/>
        <pt x="472" y="720" on="0"/>
        <pt x="566" y="689" on="0"/>
        <pt x="627" y="637" on="0"/>
        <pt x="657" y="568" on="0"/>
        <pt x="657" y="530" on="1"/>
        <pt x="657" y="458" on="0"/>
        <pt x="566" y="361" on="0"/>
        <pt x="497" y="344" on="1"/>
        <pt x="553" y="319" on="0"/>
        <pt x="610" y="240" on="0"/>
        <pt x="610" y="187" on="1"/>
        <pt x="610" y="145" on="0"/>
        <pt x="574" y="69" on="0"/>
        <pt x="502" y="11" on="0"/>
        <pt x="392" y="-23" on="0"/>
        <pt x="318" y="-23" on="1"/>
        <pt x="189" y="-23" on="0"/>
        <pt x="50" y="79" on="0"/>
        <pt x="50" y="166" on="1"/>
        <pt x="50" y="241" on="0"/>
        <pt x="150" y="342" on="0"/>
        <pt x="231" y="361" on="1"/>
        <pt x="188" y="383" on="0"/>
        <pt x="134" y="453" on="0"/>
        <pt x="134" y="509" on="1"/>
        <pt x="134" y="549" on="0"/>
        <pt x="169" y="625" on="0"/>
        <pt x="237" y="684" on="0"/>
        <pt x="341" y="720" on="0"/>
      </contour>
      <contour>
        <pt x="405" y="622" on="1"/>
        <pt x="339" y="622" on="0"/>
        <pt x="252" y="555" on="0"/>
        <pt x="252" y="501" on="1"/>
        <pt x="252" y="451" on="0"/>
        <pt x="323" y="397" on="0"/>
        <pt x="386" y="397" on="1"/>
        <pt x="452" y="397" on="0"/>
        <pt x="539" y="464" on="0"/>
        <pt x="539" y="518" on="1"/>
        <pt x="539" y="567" on="0"/>
        <pt x="468" y="622" on="0"/>
      </contour>
      <contour>
        <pt x="320" y="75" on="1"/>
        <pt x="395" y="75" on="0"/>
        <pt x="488" y="142" on="0"/>
        <pt x="488" y="199" on="1"/>
        <pt x="488" y="247" on="0"/>
        <pt x="412" y="306" on="0"/>
        <pt x="340" y="306" on="1"/>
        <pt x="265" y="306" on="0"/>
        <pt x="172" y="238" on="0"/>
        <pt x="172" y="181" on="1"/>
        <pt x="172" y="134" on="0"/>
        <pt x="248" y="75" on="0"/>
      </contour>
    </TTGlyph>
    <TTGlyph name="eight.small" xMin="5" yMin="-12" xMax="397" yMax="417">
      <contour>
        <pt x="179" y="-12" on="1"/>
        <pt x="93" y="-12" on="0"/>
        <pt x="5" y="48" on="0"/>
        <pt x="5" y="97" on="1"/>
        <pt x="5" y="138" on="0"/>
        <pt x="64" y="200" on="0"/>
        <pt x="116" y="210" on="1"/>
        <pt x="88" y="221" on="0"/>
        <pt x="55" y="264" on="0"/>
        <pt x="55" y="293" on="1"/>
        <pt x="55" y="341" on="0"/>
        <pt x="142" y="417" on="0"/>
        <pt x="235" y="417" on="1"/>
        <pt x="317" y="417" on="0"/>
        <pt x="397" y="352" on="0"/>
        <pt x="397" y="305" on="1"/>
        <pt x="397" y="264" on="0"/>
        <pt x="340" y="209" on="0"/>
        <pt x="297" y="201" on="1"/>
        <pt x="331" y="188" on="0"/>
        <pt x="369" y="144" on="0"/>
        <pt x="369" y="111" on="1"/>
        <pt x="369" y="61" on="0"/>
        <pt x="275" y="-12" on="0"/>
      </contour>
      <contour>
        <pt x="221" y="235" on="1"/>
        <pt x="260" y="235" on="0"/>
        <pt x="309" y="266" on="0"/>
        <pt x="309" y="293" on="1"/>
        <pt x="309" y="316" on="0"/>
        <pt x="269" y="344" on="0"/>
        <pt x="232" y="344" on="1"/>
        <pt x="192" y="344" on="0"/>
        <pt x="143" y="313" on="0"/>
        <pt x="143" y="286" on="1"/>
        <pt x="143" y="262" on="0"/>
        <pt x="184" y="235" on="0"/>
      </contour>
      <contour>
        <pt x="192" y="174" on="1"/>
        <pt x="146" y="174" on="0"/>
        <pt x="96" y="141" on="0"/>
        <pt x="96" y="113" on="1"/>
        <pt x="96" y="89" on="0"/>
        <pt x="140" y="60" on="0"/>
        <pt x="182" y="60" on="1"/>
        <pt x="228" y="60" on="0"/>
        <pt x="277" y="93" on="0"/>
        <pt x="277" y="121" on="1"/>
        <pt x="277" y="145" on="0"/>
        <pt x="233" y="174" on="0"/>
      </contour>
    </TTGlyph>
    <TTGlyph name="eight.sup" xMin="99" yMin="339" xMax="491" yMax="768">
      <component glyphName="eight.small" x="94" y="351" flags="0x4"/>
    </TTGlyph>
    <TTGlyph name="eight.tab" xMin="51" yMin="-23" xMax="700" yMax="720">
      <contour>
        <pt x="336" y="-23" on="1"/>
        <pt x="195" y="-23" on="0"/>
        <pt x="51" y="82" on="0"/>
        <pt x="51" y="165" on="1"/>
        <pt x="51" y="239" on="0"/>
        <pt x="155" y="344" on="0"/>
        <pt x="246" y="361" on="1"/>
        <pt x="195" y="382" on="0"/>
        <pt x="136" y="456" on="0"/>
        <pt x="136" y="507" on="1"/>
        <pt x="136" y="547" on="0"/>
        <pt x="171" y="624" on="0"/>
        <pt x="244" y="684" on="0"/>
        <pt x="357" y="720" on="0"/>
        <pt x="433" y="720" on="1"/>
        <pt x="499" y="720" on="0"/>
        <pt x="600" y="690" on="0"/>
        <pt x="666" y="638" on="0"/>
        <pt x="700" y="568" on="0"/>
        <pt x="700" y="528" on="1"/>
        <pt x="700" y="457" on="0"/>
        <pt x="600" y="361" on="0"/>
        <pt x="526" y="345" on="1"/>
        <pt x="584" y="322" on="0"/>
        <pt x="649" y="245" on="0"/>
        <pt x="649" y="188" on="1"/>
        <pt x="649" y="145" on="0"/>
        <pt x="610" y="68" on="0"/>
        <pt x="532" y="11" on="0"/>
        <pt x="414" y="-23" on="0"/>
      </contour>
      <contour>
        <pt x="407" y="396" on="1"/>
        <pt x="479" y="396" on="0"/>
        <pt x="575" y="461" on="0"/>
        <pt x="575" y="516" on="1"/>
        <pt x="575" y="565" on="0"/>
        <pt x="499" y="619" on="0"/>
        <pt x="430" y="619" on="1"/>
        <pt x="358" y="619" on="0"/>
        <pt x="261" y="555" on="0"/>
        <pt x="261" y="499" on="1"/>
        <pt x="261" y="450" on="0"/>
        <pt x="338" y="396" on="0"/>
      </contour>
      <contour>
        <pt x="361" y="307" on="1"/>
        <pt x="278" y="307" on="0"/>
        <pt x="178" y="240" on="0"/>
        <pt x="178" y="184" on="1"/>
        <pt x="178" y="135" on="0"/>
        <pt x="260" y="77" on="0"/>
        <pt x="340" y="77" on="1"/>
        <pt x="423" y="77" on="0"/>
        <pt x="523" y="144" on="0"/>
        <pt x="523" y="199" on="1"/>
        <pt x="523" y="249" on="0"/>
        <pt x="440" y="307" on="0"/>
      </contour>
    </TTGlyph>
    <TTGlyph name="ellipsis" xMin="57" yMin="-11" xMax="1003" yMax="155">
      <contour>
        <pt x="57" y="65" on="1"/>
        <pt x="57" y="101" on="0"/>
        <pt x="112" y="155" on="0"/>
        <pt x="159" y="155" on="1"/>
        <pt x="199" y="155" on="0"/>
        <pt x="243" y="111" on="0"/>
        <pt x="243" y="79" on="1"/>
        <pt x="243" y="43" on="0"/>
        <pt x="188" y="-11" on="0"/>
        <pt x="141" y="-11" on="1"/>
        <pt x="101" y="-11" on="0"/>
        <pt x="57" y="33" on="0"/>
      </contour>
      <contour>
        <pt x="436" y="65" on="1"/>
        <pt x="436" y="101" on="0"/>
        <pt x="492" y="155" on="0"/>
        <pt x="539" y="155" on="1"/>
        <pt x="579" y="155" on="0"/>
        <pt x="623" y="111" on="0"/>
        <pt x="623" y="79" on="1"/>
        <pt x="623" y="43" on="0"/>
        <pt x="568" y="-11" on="0"/>
        <pt x="521" y="-11" on="1"/>
        <pt x="481" y="-11" on="0"/>
        <pt x="436" y="33" on="0"/>
      </contour>
      <contour>
        <pt x="816" y="65" on="1"/>
        <pt x="816" y="101" on="0"/>
        <pt x="871" y="155" on="0"/>
        <pt x="918" y="155" on="1"/>
        <pt x="959" y="155" on="0"/>
        <pt x="1003" y="111" on="0"/>
        <pt x="1003" y="79" on="1"/>
        <pt x="1003" y="43" on="0"/>
        <pt x="948" y="-11" on="0"/>
        <pt x="901" y="-11" on="1"/>
        <pt x="860" y="-11" on="0"/>
        <pt x="816" y="33" on="0"/>
      </contour>
    </TTGlyph>
    <TTGlyph name="emacron" xMin="51" yMin="-15" xMax="579" yMax="748">
      <component glyphName="e" x="0" y="0" flags="0x204"/>
      <component glyphName="macron" x="44" y="15" flags="0x4"/>
    </TTGlyph>
    <TTGlyph name="emacron.sc" xMin="51" yMin="0" xMax="638" yMax="786">
      <component glyphName="e.sc" x="0" y="0" flags="0x204"/>
      <component glyphName="macron" x="94" y="53" flags="0x4"/>
    </TTGlyph>
    <TTGlyph name="emdash" xMin="79" yMin="264" xMax="799" yMax="376">
      <contour>
        <pt x="79" y="264" on="1"/>
        <pt x="103" y="376" on="1"/>
        <pt x="799" y="376" on="1"/>
        <pt x="775" y="264" on="1"/>
      </contour>
    </TTGlyph>
    <TTGlyph name="emdash.cap" xMin="85" yMin="294" xMax="805" yMax="406">
      <component glyphName="emdash" x="6" y="30" flags="0x4"/>
    </TTGlyph>
    <TTGlyph name="endash" xMin="79" yMin="264" xMax="645" yMax="376">
      <contour>
        <pt x="79" y="264" on="1"/>
        <pt x="103" y="376" on="1"/>
        <pt x="645" y="376" on="1"/>
        <pt x="621" y="264" on="1"/>
      </contour>
    </TTGlyph>
    <TTGlyph name="endash.cap" xMin="85" yMin="294" xMax="651" yMax="406">
      <component glyphName="endash" x="6" y="30" flags="0x4"/>
    </TTGlyph>
    <TTGlyph name="endash.tab" xMin="88" yMin="294" xMax="674" yMax="406">
      <contour>
        <pt x="88" y="294" on="1"/>
        <pt x="112" y="406" on="1"/>
        <pt x="674" y="406" on="1"/>
        <pt x="650" y="294" on="1"/>
      </contour>
    </TTGlyph>
    <TTGlyph name="eogonek" xMin="51" yMin="-288" xMax="556" yMax="551">
      <contour>
        <pt x="320" y="85" on="1"/>
        <pt x="376" y="85" on="0"/>
        <pt x="471" y="119" on="0"/>
        <pt x="509" y="144" on="1"/>
        <pt x="510" y="144" on="1"/>
        <pt x="487" y="34" on="1"/>
        <pt x="390" y="-50" on="1"/>
        <pt x="341" y="-93" on="0"/>
        <pt x="301" y="-142" on="0"/>
        <pt x="301" y="-162" on="1"/>
        <pt x="301" y="-178" on="0"/>
        <pt x="327" y="-197" on="0"/>
        <pt x="355" y="-197" on="1"/>
        <pt x="374" y="-197" on="0"/>
        <pt x="418" y="-186" on="0"/>
        <pt x="444" y="-175" on="1"/>
        <pt x="424" y="-264" on="1"/>
        <pt x="400" y="-277" on="0"/>
        <pt x="350" y="-288" on="0"/>
        <pt x="322" y="-288" on="1"/>
        <pt x="258" y="-288" on="0"/>
        <pt x="187" y="-229" on="0"/>
        <pt x="187" y="-186" on="1"/>
        <pt x="187" y="-140" on="0"/>
        <pt x="260" y="-60" on="0"/>
        <pt x="320" y="-15" on="1"/>
        <pt x="316" y="-15" on="0"/>
        <pt x="308" y="-15" on="0"/>
        <pt x="304" y="-15" on="1"/>
        <pt x="188" y="-15" on="0"/>
        <pt x="51" y="112" on="0"/>
        <pt x="51" y="225" on="1"/>
        <pt x="51" y="291" on="0"/>
        <pt x="96" y="411" on="0"/>
        <pt x="175" y="499" on="0"/>
        <pt x="285" y="551" on="0"/>
        <pt x="350" y="551" on="1"/>
        <pt x="443" y="551" on="0"/>
        <pt x="556" y="441" on="0"/>
        <pt x="556" y="345" on="1"/>
        <pt x="556" y="320" on="0"/>
        <pt x="548" y="266" on="0"/>
        <pt x="539" y="238" on="1"/>
        <pt x="168" y="238" on="1"/>
        <pt x="167" y="226" on="1"/>
        <pt x="167" y="148" on="0"/>
        <pt x="254" y="85" on="0"/>
      </contour>
      <contour>
        <pt x="340" y="453" on="1"/>
        <pt x="283" y="452" on="0"/>
        <pt x="196" y="377" on="0"/>
        <pt x="179" y="317" on="1"/>
        <pt x="444" y="317" on="1"/>
        <pt x="445" y="325" on="0"/>
        <pt x="446" y="342" on="0"/>
        <pt x="446" y="349" on="1"/>
        <pt x="446" y="397" on="0"/>
        <pt x="394" y="454" on="0"/>
      </contour>
    </TTGlyph>
    <TTGlyph name="eogonek.sc" xMin="51" yMin="-289" xMax="638" yMax="589">
      <contour>
        <pt x="51" y="0" on="1"/>
        <pt x="177" y="589" on="1"/>
        <pt x="638" y="589" on="1"/>
        <pt x="630" y="487" on="1"/>
        <pt x="273" y="487" on="1"/>
        <pt x="243" y="348" on="1"/>
        <pt x="530" y="348" on="1"/>
        <pt x="508" y="249" on="1"/>
        <pt x="222" y="249" on="1"/>
        <pt x="191" y="103" on="1"/>
        <pt x="565" y="103" on="1"/>
        <pt x="534" y="0" on="1"/>
        <pt x="467" y="-54" on="1"/>
        <pt x="417" y="-94" on="0"/>
        <pt x="376" y="-142" on="0"/>
        <pt x="376" y="-163" on="1"/>
        <pt x="376" y="-179" on="0"/>
        <pt x="401" y="-198" on="0"/>
        <pt x="429" y="-198" on="1"/>
        <pt x="448" y="-198" on="0"/>
        <pt x="493" y="-187" on="0"/>
        <pt x="518" y="-176" on="1"/>
        <pt x="499" y="-265" on="1"/>
        <pt x="475" y="-278" on="0"/>
        <pt x="424" y="-289" on="0"/>
        <pt x="396" y="-289" on="1"/>
        <pt x="333" y="-289" on="0"/>
        <pt x="263" y="-230" on="0"/>
        <pt x="263" y="-187" on="1"/>
        <pt x="263" y="-139" on="0"/>
        <pt x="338" y="-53" on="0"/>
        <pt x="400" y="-6" on="1"/>
        <pt x="408" y="0" on="1"/>
      </contour>
    </TTGlyph>
    <TTGlyph name="equal" xMin="93" yMin="164" xMax="696" yMax="539">
      <contour>
        <pt x="151" y="434" on="1"/>
        <pt x="174" y="539" on="1"/>
        <pt x="696" y="539" on="1"/>
        <pt x="673" y="434" on="1"/>
      </contour>
      <contour>
        <pt x="93" y="164" on="1"/>
        <pt x="116" y="269" on="1"/>
        <pt x="638" y="269" on="1"/>
        <pt x="616" y="164" on="1"/>
      </contour>
    </TTGlyph>
    <TTGlyph name="equal.tab" xMin="80" yMin="164" xMax="683" yMax="539">
      <component glyphName="equal" x="-13" y="0" flags="0x4"/>
    </TTGlyph>
    <TTGlyph name="eth" xMin="48" yMin="-15" xMax="621" yMax="754">
      <contour>
        <pt x="584" y="333" on="1"/>
        <pt x="584" y="264" on="0"/>
        <pt x="545" y="137" on="0"/>
        <pt x="471" y="42" on="0"/>
        <pt x="362" y="-15" on="0"/>
        <pt x="293" y="-15" on="1"/>
        <pt x="184" y="-15" on="0"/>
        <pt x="48" y="108" on="0"/>
        <pt x="48" y="213" on="1"/>
        <pt x="48" y="270" on="0"/>
        <pt x="84" y="375" on="0"/>
        <pt x="152" y="453" on="0"/>
        <pt x="248" y="500" on="0"/>
        <pt x="308" y="500" on="1"/>
        <pt x="367" y="500" on="0"/>
        <pt x="449" y="453" on="0"/>
        <pt x="473" y="414" on="1"/>
        <pt x="464" y="462" on="0"/>
        <pt x="424" y="553" on="0"/>
        <pt x="385" y="599" on="1"/>
        <pt x="197" y="537" on="1"/>
        <pt x="214" y="621" on="1"/>
        <pt x="328" y="658" on="1"/>
        <pt x="305" y="680" on="0"/>
        <pt x="248" y="724" on="0"/>
        <pt x="214" y="748" on="1"/>
        <pt x="215" y="754" on="1"/>
        <pt x="349" y="754" on="1"/>
        <pt x="371" y="740" on="0"/>
        <pt x="412" y="709" on="0"/>
        <pt x="431" y="692" on="1"/>
        <pt x="621" y="754" on="1"/>
        <pt x="603" y="672" on="1"/>
        <pt x="485" y="633" on="1"/>
        <pt x="533" y="571" on="0"/>
        <pt x="585" y="419" on="0"/>
      </contour>
      <contour>
        <pt x="166" y="224" on="1"/>
        <pt x="166" y="161" on="0"/>
        <pt x="237" y="85" on="0"/>
        <pt x="298" y="85" on="1"/>
        <pt x="340" y="85" on="0"/>
        <pt x="404" y="126" on="0"/>
        <pt x="447" y="192" on="0"/>
        <pt x="469" y="278" on="0"/>
        <pt x="469" y="322" on="1"/>
        <pt x="450" y="366" on="0"/>
        <pt x="376" y="409" on="0"/>
        <pt x="330" y="409" on="1"/>
        <pt x="292" y="409" on="0"/>
        <pt x="230" y="378" on="0"/>
        <pt x="188" y="327" on="0"/>
        <pt x="166" y="260" on="0"/>
      </contour>
    </TTGlyph>
    <TTGlyph name="eth.sc" xMin="42" yMin="0" xMax="719" yMax="589">
      <contour>
        <pt x="83" y="0" on="1"/>
        <pt x="137" y="252" on="1"/>
        <pt x="42" y="252" on="1"/>
        <pt x="68" y="340" on="1"/>
        <pt x="156" y="340" on="1"/>
        <pt x="209" y="589" on="1"/>
        <pt x="425" y="589" on="1"/>
        <pt x="501" y="589" on="0"/>
        <pt x="613" y="552" on="0"/>
        <pt x="684" y="487" on="0"/>
        <pt x="719" y="396" on="0"/>
        <pt x="719" y="343" on="1"/>
        <pt x="719" y="281" on="0"/>
        <pt x="678" y="158" on="0"/>
        <pt x="587" y="61" on="0"/>
        <pt x="439" y="0" on="0"/>
        <pt x="332" y="0" on="1"/>
      </contour>
      <contour>
        <pt x="599" y="334" on="1"/>
        <pt x="598" y="406" on="0"/>
        <pt x="510" y="485" on="0"/>
        <pt x="417" y="485" on="1"/>
        <pt x="306" y="485" on="1"/>
        <pt x="275" y="340" on="1"/>
        <pt x="449" y="340" on="1"/>
        <pt x="431" y="252" on="1"/>
        <pt x="256" y="252" on="1"/>
        <pt x="225" y="104" on="1"/>
        <pt x="348" y="104" on="1"/>
        <pt x="416" y="104" on="0"/>
        <pt x="511" y="142" on="0"/>
        <pt x="571" y="206" on="0"/>
        <pt x="599" y="289" on="0"/>
      </contour>
    </TTGlyph>
    <TTGlyph name="exclam" xMin="62" yMin="-11" xMax="370" yMax="700">
      <contour>
        <pt x="147" y="254" on="1"/>
        <pt x="207" y="698" on="1"/>
        <pt x="207" y="700" on="1"/>
        <pt x="370" y="700" on="1"/>
        <pt x="370" y="698" on="1"/>
        <pt x="240" y="254" on="1"/>
      </contour>
      <contour>
        <pt x="62" y="65" on="1"/>
        <pt x="62" y="101" on="0"/>
        <pt x="117" y="155" on="0"/>
        <pt x="164" y="155" on="1"/>
        <pt x="204" y="155" on="0"/>
        <pt x="249" y="111" on="0"/>
        <pt x="249" y="79" on="1"/>
        <pt x="249" y="43" on="0"/>
        <pt x="193" y="-11" on="0"/>
        <pt x="146" y="-11" on="1"/>
        <pt x="106" y="-11" on="0"/>
        <pt x="62" y="33" on="0"/>
      </contour>
    </TTGlyph>
    <TTGlyph name="exclamdown" xMin="23" yMin="-160" xMax="331" yMax="551">
      <contour>
        <pt x="331" y="475" on="1"/>
        <pt x="331" y="439" on="0"/>
        <pt x="276" y="385" on="0"/>
        <pt x="229" y="385" on="1"/>
        <pt x="189" y="385" on="0"/>
        <pt x="144" y="429" on="0"/>
        <pt x="144" y="461" on="1"/>
        <pt x="144" y="497" on="0"/>
        <pt x="200" y="551" on="0"/>
        <pt x="247" y="551" on="1"/>
        <pt x="287" y="551" on="0"/>
        <pt x="331" y="507" on="0"/>
      </contour>
      <contour>
        <pt x="246" y="286" on="1"/>
        <pt x="186" y="-158" on="1"/>
        <pt x="186" y="-160" on="1"/>
        <pt x="23" y="-160" on="1"/>
        <pt x="23" y="-158" on="1"/>
        <pt x="153" y="286" on="1"/>
      </contour>
    </TTGlyph>
    <TTGlyph name="exclamdown.cap" xMin="57" yMin="0" xMax="365" yMax="711">
      <contour>
        <pt x="365" y="635" on="1"/>
        <pt x="365" y="599" on="0"/>
        <pt x="310" y="545" on="0"/>
        <pt x="263" y="545" on="1"/>
        <pt x="223" y="545" on="0"/>
        <pt x="178" y="589" on="0"/>
        <pt x="178" y="621" on="1"/>
        <pt x="178" y="657" on="0"/>
        <pt x="234" y="711" on="0"/>
        <pt x="281" y="711" on="1"/>
        <pt x="321" y="711" on="0"/>
        <pt x="365" y="667" on="0"/>
      </contour>
      <contour>
        <pt x="280" y="446" on="1"/>
        <pt x="220" y="2" on="1"/>
        <pt x="220" y="0" on="1"/>
        <pt x="57" y="0" on="1"/>
        <pt x="57" y="2" on="1"/>
        <pt x="187" y="446" on="1"/>
      </contour>
    </TTGlyph>
    <TTGlyph name="f" xMin="69" yMin="0" xMax="503" yMax="768">
      <contour>
        <pt x="320" y="569" on="1"/>
        <pt x="313" y="536" on="1"/>
        <pt x="466" y="536" on="1"/>
        <pt x="445" y="438" on="1"/>
        <pt x="292" y="438" on="1"/>
        <pt x="199" y="0" on="1"/>
        <pt x="81" y="0" on="1"/>
        <pt x="174" y="438" on="1"/>
        <pt x="69" y="438" on="1"/>
        <pt x="111" y="536" on="1"/>
        <pt x="195" y="536" on="1"/>
        <pt x="203" y="574" on="1"/>
        <pt x="226" y="684" on="0"/>
        <pt x="336" y="768" on="0"/>
        <pt x="406" y="768" on="1"/>
        <pt x="433" y="768" on="0"/>
        <pt x="483" y="756" on="0"/>
        <pt x="503" y="744" on="1"/>
        <pt x="479" y="649" on="1"/>
        <pt x="478" y="649" on="1"/>
        <pt x="467" y="656" on="0"/>
        <pt x="433" y="667" on="0"/>
        <pt x="414" y="667" on="1"/>
        <pt x="380" y="667" on="0"/>
        <pt x="332" y="624" on="0"/>
      </contour>
    </TTGlyph>
    <TTGlyph name="f.sc" xMin="51" yMin="0" xMax="622" yMax="589">
      <contour>
        <pt x="273" y="485" on="1"/>
        <pt x="241" y="334" on="1"/>
        <pt x="523" y="334" on="1"/>
        <pt x="500" y="230" on="1"/>
        <pt x="219" y="230" on="1"/>
        <pt x="170" y="0" on="1"/>
        <pt x="51" y="0" on="1"/>
        <pt x="177" y="589" on="1"/>
        <pt x="622" y="589" on="1"/>
        <pt x="614" y="485" on="1"/>
      </contour>
    </TTGlyph>
    <TTGlyph name="five" xMin="33" yMin="-16" xMax="649" yMax="700">
      <contour>
        <pt x="33" y="52" on="1"/>
        <pt x="57" y="162" on="1"/>
        <pt x="58" y="162" on="1"/>
        <pt x="112" y="133" on="0"/>
        <pt x="234" y="92" on="0"/>
        <pt x="307" y="92" on="1"/>
        <pt x="399" y="91" on="0"/>
        <pt x="486" y="162" on="0"/>
        <pt x="486" y="213" on="1"/>
        <pt x="486" y="266" on="0"/>
        <pt x="379" y="323" on="0"/>
        <pt x="243" y="323" on="1"/>
        <pt x="109" y="323" on="1"/>
        <pt x="199" y="700" on="1"/>
        <pt x="649" y="700" on="1"/>
        <pt x="639" y="592" on="1"/>
        <pt x="288" y="592" on="1"/>
        <pt x="248" y="428" on="1"/>
        <pt x="274" y="428" on="1"/>
        <pt x="459" y="428" on="0"/>
        <pt x="610" y="314" on="0"/>
        <pt x="610" y="221" on="1"/>
        <pt x="610" y="171" on="0"/>
        <pt x="571" y="84" on="0"/>
        <pt x="495" y="21" on="0"/>
        <pt x="380" y="-16" on="0"/>
        <pt x="305" y="-16" on="1"/>
        <pt x="225" y="-16" on="0"/>
        <pt x="84" y="23" on="0"/>
      </contour>
    </TTGlyph>
    <TTGlyph name="five.den" xMin="4" yMin="-11" xMax="379" yMax="406">
      <component glyphName="five.small" x="-12" y="0" flags="0x4"/>
    </TTGlyph>
    <TTGlyph name="five.den_tab" xMin="-14" yMin="-11" xMax="361" yMax="406">
      <component glyphName="five.small" x="-30" y="0" flags="0x4"/>
    </TTGlyph>
    <TTGlyph name="five.inf" xMin="-5" yMin="-205" xMax="370" yMax="212">
      <component glyphName="five.small" x="-21" y="-194" flags="0x4"/>
    </TTGlyph>
    <TTGlyph name="five.num" xMin="90" yMin="283" xMax="465" yMax="700">
      <component glyphName="five.small" x="74" y="294" flags="0x4"/>
    </TTGlyph>
    <TTGlyph name="five.num_tab" xMin="72" yMin="283" xMax="447" yMax="700">
      <component glyphName="five.small" x="56" y="294" flags="0x4"/>
    </TTGlyph>
    <TTGlyph name="five.osf" xMin="-2" yMin="-128" xMax="572" yMax="589">
      <contour>
        <pt x="-2" y="-70" on="1"/>
        <pt x="20" y="32" on="1"/>
        <pt x="21" y="32" on="1"/>
        <pt x="68" y="8" on="0"/>
        <pt x="184" y="-26" on="0"/>
        <pt x="244" y="-26" on="1"/>
        <pt x="328" y="-26" on="0"/>
        <pt x="401" y="44" on="0"/>
        <pt x="401" y="95" on="1"/>
        <pt x="401" y="148" on="0"/>
        <pt x="287" y="211" on="0"/>
        <pt x="147" y="215" on="1"/>
        <pt x="80" y="217" on="1"/>
        <pt x="166" y="589" on="1"/>
        <pt x="572" y="589" on="1"/>
        <pt x="563" y="485" on="1"/>
        <pt x="255" y="485" on="1"/>
        <pt x="215" y="311" on="1"/>
        <pt x="221" y="311" on="1"/>
        <pt x="367" y="303" on="0"/>
        <pt x="521" y="199" on="0"/>
        <pt x="521" y="103" on="1"/>
        <pt x="521" y="54" on="0"/>
        <pt x="485" y="-31" on="0"/>
        <pt x="416" y="-93" on="0"/>
        <pt x="311" y="-128" on="0"/>
        <pt x="243" y="-128" on="1"/>
        <pt x="174" y="-128" on="0"/>
        <pt x="43" y="-93" on="0"/>
      </contour>
    </TTGlyph>
    <TTGlyph name="five.small" xMin="16" yMin="-11" xMax="391" yMax="406">
      <contour>
        <pt x="181" y="-11" on="1"/>
        <pt x="133" y="-11" on="0"/>
        <pt x="50" y="11" on="0"/>
        <pt x="16" y="28" on="1"/>
        <pt x="33" y="107" on="1"/>
        <pt x="66" y="90" on="0"/>
        <pt x="141" y="69" on="0"/>
        <pt x="183" y="69" on="1"/>
        <pt x="231" y="68" on="0"/>
        <pt x="270" y="102" on="0"/>
        <pt x="270" y="125" on="1"/>
        <pt x="270" y="152" on="0"/>
        <pt x="203" y="176" on="0"/>
        <pt x="118" y="176" on="1"/>
        <pt x="58" y="176" on="1"/>
        <pt x="112" y="406" on="1"/>
        <pt x="391" y="406" on="1"/>
        <pt x="383" y="326" on="1"/>
        <pt x="180" y="326" on="1"/>
        <pt x="160" y="247" on="1"/>
        <pt x="161" y="247" on="1"/>
        <pt x="263" y="247" on="0"/>
        <pt x="365" y="189" on="0"/>
        <pt x="365" y="129" on="1"/>
        <pt x="365" y="68" on="0"/>
        <pt x="271" y="-11" on="0"/>
      </contour>
    </TTGlyph>
    <TTGlyph name="five.sup" xMin="110" yMin="340" xMax="485" yMax="757">
      <component glyphName="five.small" x="94" y="351" flags="0x4"/>
    </TTGlyph>
    <TTGlyph name="five.tab" xMin="52" yMin="-16" xMax="678" yMax="700">
      <contour>
        <pt x="329" y="-16" on="1"/>
        <pt x="247" y="-16" on="0"/>
        <pt x="103" y="23" on="0"/>
        <pt x="52" y="52" on="1"/>
        <pt x="76" y="162" on="1"/>
        <pt x="77" y="162" on="1"/>
        <pt x="130" y="133" on="0"/>
        <pt x="255" y="92" on="0"/>
        <pt x="330" y="92" on="1"/>
        <pt x="423" y="91" on="0"/>
        <pt x="512" y="162" on="0"/>
        <pt x="512" y="213" on="1"/>
        <pt x="512" y="266" on="0"/>
        <pt x="399" y="323" on="0"/>
        <pt x="260" y="323" on="1"/>
        <pt x="124" y="323" on="1"/>
        <pt x="214" y="700" on="1"/>
        <pt x="678" y="700" on="1"/>
        <pt x="669" y="592" on="1"/>
        <pt x="303" y="592" on="1"/>
        <pt x="263" y="428" on="1"/>
        <pt x="291" y="428" on="1"/>
        <pt x="479" y="428" on="0"/>
        <pt x="636" y="314" on="0"/>
        <pt x="636" y="221" on="1"/>
        <pt x="636" y="171" on="0"/>
        <pt x="597" y="84" on="0"/>
        <pt x="520" y="21" on="0"/>
        <pt x="404" y="-16" on="0"/>
      </contour>
    </TTGlyph>
    <TTGlyph name="fiveeighths" xMin="90" yMin="-12" xMax="1057" yMax="700">
      <component glyphName="five.num" x="0" y="0" flags="0x4"/>
      <component glyphName="fraction" x="434" y="0" flags="0x4"/>
      <component glyphName="eight.den" x="672" y="0" flags="0x4"/>
    </TTGlyph>
    <TTGlyph name="fiveeighths.tab" xMin="72" yMin="-12" xMax="1019" yMax="700">
      <component glyphName="five.num_tab" x="0" y="0" flags="0x4"/>
      <component glyphName="fraction.tab" x="437" y="0" flags="0x4"/>
      <component glyphName="eight.den_tab" x="652" y="0" flags="0x4"/>
    </TTGlyph>
    <TTGlyph name="four" xMin="16" yMin="0" xMax="701" yMax="700">
      <contour>
        <pt x="400" y="0" on="1"/>
        <pt x="435" y="164" on="1"/>
        <pt x="16" y="164" on="1"/>
        <pt x="45" y="259" on="1"/>
        <pt x="380" y="700" on="1"/>
        <pt x="665" y="700" on="1"/>
        <pt x="573" y="268" on="1"/>
        <pt x="701" y="268" on="1"/>
        <pt x="671" y="164" on="1"/>
        <pt x="551" y="164" on="1"/>
        <pt x="516" y="0" on="1"/>
      </contour>
      <contour>
        <pt x="193" y="268" on="1"/>
        <pt x="457" y="268" on="1"/>
        <pt x="526" y="592" on="1"/>
        <pt x="435" y="592" on="1"/>
      </contour>
    </TTGlyph>
    <TTGlyph name="four.den" xMin="-24" yMin="0" xMax="387" yMax="406">
      <component glyphName="four.small" x="-12" y="0" flags="0x4"/>
    </TTGlyph>
    <TTGlyph name="four.den_tab" xMin="-42" yMin="0" xMax="369" yMax="406">
      <component glyphName="four.small" x="-30" y="0" flags="0x4"/>
    </TTGlyph>
    <TTGlyph name="four.inf" xMin="-33" yMin="-194" xMax="378" yMax="212">
      <component glyphName="four.small" x="-21" y="-194" flags="0x4"/>
    </TTGlyph>
    <TTGlyph name="four.num" xMin="62" yMin="294" xMax="473" yMax="700">
      <component glyphName="four.small" x="74" y="294" flags="0x4"/>
    </TTGlyph>
    <TTGlyph name="four.num_tab" xMin="44" yMin="294" xMax="455" yMax="700">
      <component glyphName="four.small" x="56" y="294" flags="0x4"/>
    </TTGlyph>
    <TTGlyph name="four.osf" xMin="4" yMin="-114" xMax="639" yMax="589">
      <contour>
        <pt x="350" y="-114" on="1"/>
        <pt x="385" y="48" on="1"/>
        <pt x="4" y="48" on="1"/>
        <pt x="25" y="144" on="1"/>
        <pt x="338" y="589" on="1"/>
        <pt x="613" y="589" on="1"/>
        <pt x="519" y="149" on="1"/>
        <pt x="639" y="149" on="1"/>
        <pt x="609" y="48" on="1"/>
        <pt x="498" y="48" on="1"/>
        <pt x="464" y="-114" on="1"/>
      </contour>
      <contour>
        <pt x="157" y="149" on="1"/>
        <pt x="406" y="149" on="1"/>
        <pt x="477" y="481" on="1"/>
        <pt x="388" y="481" on="1"/>
      </contour>
    </TTGlyph>
    <TTGlyph name="four.small" xMin="-12" yMin="0" xMax="399" yMax="406">
      <contour>
        <pt x="205" y="0" on="1"/>
        <pt x="223" y="84" on="1"/>
        <pt x="-12" y="84" on="1"/>
        <pt x="3" y="155" on="1"/>
        <pt x="171" y="406" on="1"/>
        <pt x="382" y="406" on="1"/>
        <pt x="329" y="161" on="1"/>
        <pt x="399" y="161" on="1"/>
        <pt x="376" y="84" on="1"/>
        <pt x="313" y="84" on="1"/>
        <pt x="295" y="0" on="1"/>
      </contour>
      <contour>
        <pt x="104" y="160" on="1"/>
        <pt x="241" y="160" on="1"/>
        <pt x="277" y="329" on="1"/>
        <pt x="217" y="329" on="1"/>
      </contour>
    </TTGlyph>
    <TTGlyph name="four.sup" xMin="82" yMin="351" xMax="493" yMax="757">
      <component glyphName="four.small" x="94" y="351" flags="0x4"/>
    </TTGlyph>
    <TTGlyph name="four.tab" xMin="22" yMin="0" xMax="689" yMax="700">
      <contour>
        <pt x="400" y="0" on="1"/>
        <pt x="433" y="154" on="1"/>
        <pt x="22" y="154" on="1"/>
        <pt x="43" y="250" on="1"/>
        <pt x="363" y="700" on="1"/>
        <pt x="666" y="700" on="1"/>
        <pt x="572" y="258" on="1"/>
        <pt x="689" y="258" on="1"/>
        <pt x="662" y="154" on="1"/>
        <pt x="550" y="154" on="1"/>
        <pt x="517" y="0" on="1"/>
      </contour>
      <contour>
        <pt x="184" y="258" on="1"/>
        <pt x="455" y="258" on="1"/>
        <pt x="526" y="592" on="1"/>
        <pt x="422" y="592" on="1"/>
      </contour>
    </TTGlyph>
    <TTGlyph name="fraction" xMin="-237" yMin="0" xMax="514" yMax="700">
      <contour>
        <pt x="-237" y="1" on="1"/>
        <pt x="404" y="700" on="1"/>
        <pt x="514" y="700" on="1"/>
        <pt x="514" y="699" on="1"/>
        <pt x="-127" y="0" on="1"/>
        <pt x="-237" y="0" on="1"/>
      </contour>
    </TTGlyph>
    <TTGlyph name="fraction.tab" xMin="-265" yMin="0" xMax="486" yMax="700">
      <contour>
        <pt x="-265" y="1" on="1"/>
        <pt x="376" y="700" on="1"/>
        <pt x="486" y="700" on="1"/>
        <pt x="486" y="699" on="1"/>
        <pt x="-155" y="0" on="1"/>
        <pt x="-265" y="0" on="1"/>
      </contour>
    </TTGlyph>
    <TTGlyph name="g" xMin="-28" yMin="-209" xMax="636" yMax="633">
      <contour>
        <pt x="245" y="-209" on="1"/>
        <pt x="121" y="-209" on="0"/>
        <pt x="-28" y="-134" on="0"/>
        <pt x="-28" y="-68" on="1"/>
        <pt x="-28" y="-27" on="0"/>
        <pt x="38" y="40" on="0"/>
        <pt x="98" y="62" on="1"/>
        <pt x="157" y="205" on="1"/>
        <pt x="119" y="229" on="0"/>
        <pt x="79" y="301" on="0"/>
        <pt x="79" y="344" on="1"/>
        <pt x="79" y="384" on="0"/>
        <pt x="110" y="459" on="0"/>
        <pt x="172" y="516" on="0"/>
        <pt x="265" y="551" on="0"/>
        <pt x="326" y="551" on="1"/>
        <pt x="353" y="551" on="0"/>
        <pt x="401" y="544" on="0"/>
        <pt x="421" y="537" on="1"/>
        <pt x="494" y="633" on="1"/>
        <pt x="636" y="633" on="1"/>
        <pt x="636" y="632" on="1"/>
        <pt x="495" y="495" on="1"/>
        <pt x="523" y="472" on="0"/>
        <pt x="550" y="409" on="0"/>
        <pt x="550" y="373" on="1"/>
        <pt x="550" y="335" on="0"/>
        <pt x="519" y="261" on="0"/>
        <pt x="457" y="204" on="0"/>
        <pt x="365" y="169" on="0"/>
        <pt x="304" y="169" on="1"/>
        <pt x="285" y="169" on="0"/>
        <pt x="252" y="172" on="0"/>
        <pt x="236" y="175" on="1"/>
        <pt x="207" y="104" on="1"/>
        <pt x="375" y="88" on="0"/>
        <pt x="521" y="10" on="0"/>
        <pt x="521" y="-51" on="1"/>
        <pt x="521" y="-80" on="0"/>
        <pt x="490" y="-137" on="0"/>
        <pt x="424" y="-181" on="0"/>
        <pt x="319" y="-209" on="0"/>
      </contour>
      <contour>
        <pt x="310" y="255" on="1"/>
        <pt x="374" y="255" on="0"/>
        <pt x="439" y="324" on="0"/>
        <pt x="439" y="369" on="1"/>
        <pt x="439" y="415" on="0"/>
        <pt x="375" y="465" on="0"/>
        <pt x="324" y="465" on="1"/>
        <pt x="259" y="465" on="0"/>
        <pt x="195" y="396" on="0"/>
        <pt x="195" y="351" on="1"/>
        <pt x="195" y="305" on="0"/>
        <pt x="258" y="255" on="0"/>
      </contour>
      <contour>
        <pt x="265" y="-123" on="1"/>
        <pt x="337" y="-123" on="0"/>
        <pt x="412" y="-86" on="0"/>
        <pt x="412" y="-61" on="1"/>
        <pt x="412" y="-30" on="0"/>
        <pt x="267" y="12" on="0"/>
        <pt x="136" y="19" on="1"/>
        <pt x="109" y="6" on="0"/>
        <pt x="77" y="-28" on="0"/>
        <pt x="77" y="-47" on="1"/>
        <pt x="77" y="-67" on="0"/>
        <pt x="108" y="-96" on="0"/>
        <pt x="160" y="-115" on="0"/>
        <pt x="228" y="-123" on="0"/>
      </contour>
    </TTGlyph>
    <TTGlyph name="g.sc" xMin="70" yMin="-16" xMax="694" yMax="602">
      <contour>
        <pt x="423" y="496" on="1"/>
        <pt x="369" y="496" on="0"/>
        <pt x="282" y="460" on="0"/>
        <pt x="223" y="399" on="0"/>
        <pt x="192" y="315" on="0"/>
        <pt x="192" y="267" on="1"/>
        <pt x="192" y="185" on="0"/>
        <pt x="286" y="91" on="0"/>
        <pt x="375" y="91" on="1"/>
        <pt x="448" y="91" on="0"/>
        <pt x="553" y="166" on="0"/>
        <pt x="566" y="238" on="1"/>
        <pt x="357" y="238" on="1"/>
        <pt x="378" y="334" on="1"/>
        <pt x="694" y="334" on="1"/>
        <pt x="689" y="245" on="0"/>
        <pt x="641" y="117" on="0"/>
        <pt x="595" y="71" on="1"/>
        <pt x="552" y="29" on="0"/>
        <pt x="434" y="-16" on="0"/>
        <pt x="368" y="-16" on="1"/>
        <pt x="231" y="-16" on="0"/>
        <pt x="70" y="132" on="0"/>
        <pt x="70" y="257" on="1"/>
        <pt x="70" y="325" on="0"/>
        <pt x="117" y="451" on="0"/>
        <pt x="207" y="545" on="0"/>
        <pt x="339" y="602" on="0"/>
        <pt x="423" y="602" on="1"/>
        <pt x="498" y="602" on="0"/>
        <pt x="621" y="556" on="0"/>
        <pt x="660" y="525" on="1"/>
        <pt x="636" y="413" on="1"/>
        <pt x="635" y="413" on="1"/>
        <pt x="595" y="448" on="0"/>
        <pt x="486" y="496" on="0"/>
      </contour>
    </TTGlyph>
    <TTGlyph name="gbreve" xMin="-28" yMin="-209" xMax="636" yMax="823">
      <component glyphName="g" x="0" y="0" flags="0x204"/>
      <component glyphName="breve" x="18" y="19" flags="0x4"/>
    </TTGlyph>
    <TTGlyph name="gbreve.sc" xMin="70" yMin="-16" xMax="694" yMax="870">
      <component glyphName="g.sc" x="0" y="0" flags="0x204"/>
      <component glyphName="breve" x="117" y="66" flags="0x4"/>
    </TTGlyph>
    <TTGlyph name="gdotaccent" xMin="-28" yMin="-209" xMax="636" yMax="780">
      <component glyphName="g" x="0" y="0" flags="0x204"/>
      <component glyphName="dotaccent" x="18" y="19" flags="0x4"/>
    </TTGlyph>
    <TTGlyph name="gdotaccent.sc" xMin="70" yMin="-16" xMax="694" yMax="827">
      <component glyphName="g.sc" x="0" y="0" flags="0x204"/>
      <component glyphName="dotaccent" x="117" y="66" flags="0x4"/>
    </TTGlyph>
</ttFont>
